<svg width="729" height="900" viewBox="0 0 729 900" fill="none" xmlns="http://www.w3.org/2000/svg">
<g id="cover_right_panel">
<rect id="Rectangle" width="729" height="900" fill="black"/>
<path id="by Ilia Blinderman" d="M549.518 865.989C550.678 865.989 551.586 866.443 552.242 867.352C552.898 868.254 553.227 869.493 553.227 871.069C553.227 872.692 552.887 873.949 552.207 874.84C551.533 875.73 550.613 876.176 549.447 876.176C548.293 876.176 547.388 875.757 546.731 874.919H546.547L546.099 876H544.051V862.324H546.731V865.506C546.731 865.91 546.696 866.558 546.626 867.448H546.731C547.358 866.476 548.287 865.989 549.518 865.989ZM548.656 868.134C547.994 868.134 547.511 868.339 547.206 868.749C546.901 869.153 546.743 869.824 546.731 870.762V871.052C546.731 872.106 546.887 872.862 547.197 873.319C547.514 873.776 548.012 874.005 548.691 874.005C549.242 874.005 549.679 873.753 550.001 873.249C550.329 872.739 550.493 872.001 550.493 871.034C550.493 870.067 550.329 869.344 550.001 868.863C549.673 868.377 549.225 868.134 548.656 868.134ZM554.035 866.174H556.971L558.825 871.702C558.983 872.183 559.092 872.751 559.15 873.407H559.203C559.268 872.804 559.394 872.235 559.581 871.702L561.4 866.174H564.274L560.117 877.257C559.736 878.282 559.191 879.05 558.482 879.56C557.779 880.069 556.956 880.324 556.013 880.324C555.55 880.324 555.096 880.274 554.65 880.175V878.048C554.973 878.124 555.324 878.162 555.705 878.162C556.18 878.162 556.593 878.016 556.944 877.723C557.302 877.436 557.58 876.999 557.779 876.413L557.938 875.93L554.035 866.174ZM570.576 876V863.15H573.301V876H570.576ZM579.005 876H576.324V862.324H579.005V876ZM581.712 863.634C581.712 862.761 582.198 862.324 583.171 862.324C584.144 862.324 584.63 862.761 584.63 863.634C584.63 864.05 584.507 864.375 584.261 864.609C584.021 864.838 583.657 864.952 583.171 864.952C582.198 864.952 581.712 864.513 581.712 863.634ZM584.507 876H581.826V866.174H584.507V876ZM593.568 876L593.05 874.664H592.979C592.528 875.232 592.062 875.628 591.582 875.851C591.107 876.067 590.486 876.176 589.719 876.176C588.775 876.176 588.031 875.906 587.486 875.367C586.947 874.828 586.678 874.061 586.678 873.064C586.678 872.021 587.041 871.254 587.768 870.762C588.5 870.264 589.602 869.988 591.072 869.936L592.777 869.883V869.452C592.777 868.456 592.268 867.958 591.248 867.958C590.463 867.958 589.54 868.195 588.479 868.67L587.592 866.859C588.723 866.268 589.977 865.972 591.354 865.972C592.672 865.972 593.683 866.259 594.386 866.833C595.089 867.407 595.44 868.28 595.44 869.452V876H593.568ZM592.777 871.447L591.74 871.482C590.961 871.506 590.381 871.646 590 871.904C589.619 872.162 589.429 872.555 589.429 873.082C589.429 873.838 589.862 874.216 590.729 874.216C591.351 874.216 591.846 874.037 592.215 873.68C592.59 873.322 592.777 872.848 592.777 872.256V871.447ZM603.096 863.15H607.095C608.917 863.15 610.238 863.411 611.059 863.933C611.885 864.448 612.298 865.271 612.298 866.402C612.298 867.17 612.116 867.8 611.753 868.292C611.396 868.784 610.918 869.08 610.32 869.18V869.268C611.135 869.449 611.721 869.789 612.078 870.287C612.441 870.785 612.623 871.447 612.623 872.273C612.623 873.445 612.198 874.359 611.349 875.016C610.505 875.672 609.356 876 607.903 876H603.096V863.15ZM605.82 868.239H607.402C608.141 868.239 608.674 868.125 609.002 867.896C609.336 867.668 609.503 867.29 609.503 866.763C609.503 866.271 609.321 865.919 608.958 865.708C608.601 865.491 608.032 865.383 607.253 865.383H605.82V868.239ZM605.82 870.401V873.75H607.596C608.346 873.75 608.899 873.606 609.257 873.319C609.614 873.032 609.793 872.593 609.793 872.001C609.793 870.935 609.031 870.401 607.508 870.401H605.82ZM617.659 876H614.979V862.324H617.659V876ZM620.366 863.634C620.366 862.761 620.853 862.324 621.825 862.324C622.798 862.324 623.284 862.761 623.284 863.634C623.284 864.05 623.161 864.375 622.915 864.609C622.675 864.838 622.312 864.952 621.825 864.952C620.853 864.952 620.366 864.513 620.366 863.634ZM623.161 876H620.48V866.174H623.161V876ZM635.053 876H632.372V870.261C632.372 869.552 632.246 869.021 631.994 868.67C631.742 868.312 631.341 868.134 630.79 868.134C630.04 868.134 629.498 868.386 629.164 868.89C628.83 869.388 628.663 870.217 628.663 871.377V876H625.982V866.174H628.03L628.391 867.431H628.54C628.839 866.956 629.249 866.599 629.771 866.358C630.298 866.112 630.896 865.989 631.563 865.989C632.706 865.989 633.573 866.3 634.165 866.921C634.757 867.536 635.053 868.427 635.053 869.593V876ZM640.924 876.176C639.77 876.176 638.861 875.728 638.199 874.831C637.543 873.935 637.215 872.692 637.215 871.104C637.215 869.493 637.549 868.239 638.217 867.343C638.891 866.44 639.816 865.989 640.994 865.989C642.23 865.989 643.174 866.47 643.824 867.431H643.912C643.777 866.698 643.71 866.045 643.71 865.471V862.324H646.399V876H644.343L643.824 874.726H643.71C643.101 875.692 642.172 876.176 640.924 876.176ZM641.864 874.04C642.55 874.04 643.051 873.841 643.367 873.442C643.689 873.044 643.865 872.367 643.895 871.412V871.122C643.895 870.067 643.73 869.312 643.402 868.854C643.08 868.397 642.553 868.169 641.82 868.169C641.223 868.169 640.757 868.424 640.423 868.934C640.095 869.438 639.931 870.173 639.931 871.14C639.931 872.106 640.098 872.833 640.432 873.319C640.766 873.8 641.243 874.04 641.864 874.04ZM653.272 867.896C652.704 867.896 652.259 868.078 651.937 868.441C651.614 868.799 651.43 869.309 651.383 869.971H655.145C655.133 869.309 654.96 868.799 654.626 868.441C654.292 868.078 653.841 867.896 653.272 867.896ZM653.65 876.176C652.068 876.176 650.832 875.739 649.941 874.866C649.051 873.993 648.605 872.757 648.605 871.157C648.605 869.511 649.016 868.239 649.836 867.343C650.662 866.44 651.802 865.989 653.255 865.989C654.644 865.989 655.725 866.385 656.498 867.176C657.271 867.967 657.658 869.06 657.658 870.454V871.755H651.321C651.351 872.517 651.576 873.111 651.998 873.539C652.42 873.967 653.012 874.181 653.773 874.181C654.365 874.181 654.925 874.119 655.452 873.996C655.979 873.873 656.53 873.677 657.104 873.407V875.481C656.636 875.716 656.135 875.889 655.602 876C655.068 876.117 654.418 876.176 653.65 876.176ZM665.322 865.989C665.686 865.989 665.987 866.016 666.228 866.068L666.025 868.582C665.809 868.523 665.545 868.494 665.234 868.494C664.379 868.494 663.711 868.714 663.23 869.153C662.756 869.593 662.519 870.208 662.519 870.999V876H659.838V866.174H661.868L662.264 867.826H662.396C662.7 867.275 663.11 866.833 663.626 866.499C664.147 866.159 664.713 865.989 665.322 865.989ZM676.81 876H674.129V870.261C674.129 869.552 674.009 869.021 673.769 868.67C673.534 868.312 673.162 868.134 672.652 868.134C671.967 868.134 671.469 868.386 671.158 868.89C670.848 869.394 670.692 870.223 670.692 871.377V876H668.012V866.174H670.06L670.42 867.431H670.569C670.833 866.979 671.214 866.628 671.712 866.376C672.21 866.118 672.781 865.989 673.426 865.989C674.896 865.989 675.893 866.47 676.414 867.431H676.651C676.915 866.974 677.302 866.619 677.812 866.367C678.327 866.115 678.907 865.989 679.552 865.989C680.665 865.989 681.506 866.276 682.074 866.851C682.648 867.419 682.936 868.333 682.936 869.593V876H680.246V870.261C680.246 869.552 680.126 869.021 679.886 868.67C679.651 868.312 679.279 868.134 678.77 868.134C678.113 868.134 677.621 868.368 677.293 868.837C676.971 869.306 676.81 870.05 676.81 871.069V876ZM691.936 876L691.417 874.664H691.347C690.896 875.232 690.43 875.628 689.949 875.851C689.475 876.067 688.854 876.176 688.086 876.176C687.143 876.176 686.398 875.906 685.854 875.367C685.314 874.828 685.045 874.061 685.045 873.064C685.045 872.021 685.408 871.254 686.135 870.762C686.867 870.264 687.969 869.988 689.439 869.936L691.145 869.883V869.452C691.145 868.456 690.635 867.958 689.615 867.958C688.83 867.958 687.907 868.195 686.847 868.67L685.959 866.859C687.09 866.268 688.344 865.972 689.721 865.972C691.039 865.972 692.05 866.259 692.753 866.833C693.456 867.407 693.808 868.28 693.808 869.452V876H691.936ZM691.145 871.447L690.107 871.482C689.328 871.506 688.748 871.646 688.367 871.904C687.986 872.162 687.796 872.555 687.796 873.082C687.796 873.838 688.229 874.216 689.097 874.216C689.718 874.216 690.213 874.037 690.582 873.68C690.957 873.322 691.145 872.848 691.145 872.256V871.447ZM705.646 876H702.966V870.261C702.966 869.552 702.84 869.021 702.588 868.67C702.336 868.312 701.935 868.134 701.384 868.134C700.634 868.134 700.092 868.386 699.758 868.89C699.424 869.388 699.257 870.217 699.257 871.377V876H696.576V866.174H698.624L698.984 867.431H699.134C699.433 866.956 699.843 866.599 700.364 866.358C700.892 866.112 701.489 865.989 702.157 865.989C703.3 865.989 704.167 866.3 704.759 866.921C705.351 867.536 705.646 868.427 705.646 869.593V876Z" fill="white"/>
<path id="Science rests on citing those who came before us." d="M74.3145 240.449C74.3145 242.254 73.6628 243.676 72.3594 244.715C71.0651 245.754 69.2604 246.273 66.9453 246.273C64.8125 246.273 62.9258 245.872 61.2852 245.07V241.133C62.6341 241.734 63.7734 242.158 64.7031 242.404C65.6419 242.65 66.4987 242.773 67.2734 242.773C68.2031 242.773 68.9141 242.596 69.4062 242.24C69.9076 241.885 70.1582 241.356 70.1582 240.654C70.1582 240.262 70.0488 239.916 69.8301 239.615C69.6113 239.305 69.2878 239.009 68.8594 238.727C68.4401 238.444 67.5788 237.993 66.2754 237.373C65.054 236.799 64.138 236.247 63.5273 235.719C62.9167 235.19 62.429 234.575 62.0645 233.873C61.6999 233.171 61.5176 232.351 61.5176 231.412C61.5176 229.644 62.1146 228.254 63.3086 227.242C64.5117 226.23 66.1706 225.725 68.2852 225.725C69.3242 225.725 70.3132 225.848 71.252 226.094C72.1999 226.34 73.1888 226.686 74.2188 227.133L72.8516 230.428C71.7852 229.99 70.901 229.685 70.1992 229.512C69.5065 229.339 68.8229 229.252 68.1484 229.252C67.3464 229.252 66.7311 229.439 66.3027 229.812C65.8743 230.186 65.6602 230.674 65.6602 231.275C65.6602 231.649 65.7467 231.977 65.9199 232.26C66.0931 232.533 66.3665 232.802 66.7402 233.066C67.123 233.322 68.0208 233.786 69.4336 234.461C71.3021 235.354 72.5827 236.252 73.2754 237.154C73.9681 238.048 74.3145 239.146 74.3145 240.449ZM83.8164 246.273C79.0586 246.273 76.6797 243.662 76.6797 238.439C76.6797 235.842 77.3268 233.859 78.6211 232.492C79.9154 231.116 81.7702 230.428 84.1855 230.428C85.9538 230.428 87.5397 230.774 88.9434 231.467L87.7129 234.693C87.0566 234.429 86.446 234.215 85.8809 234.051C85.3158 233.878 84.7507 233.791 84.1855 233.791C82.0163 233.791 80.9316 235.331 80.9316 238.412C80.9316 241.402 82.0163 242.896 84.1855 242.896C84.9876 242.896 85.7305 242.792 86.4141 242.582C87.0977 242.363 87.7812 242.026 88.4648 241.57V245.139C87.7904 245.567 87.1068 245.863 86.4141 246.027C85.7305 246.191 84.8646 246.273 83.8164 246.273ZM91.8418 226.764C91.8418 225.406 92.5983 224.727 94.1113 224.727C95.6243 224.727 96.3809 225.406 96.3809 226.764C96.3809 227.411 96.1895 227.917 95.8066 228.281C95.4329 228.637 94.8678 228.814 94.1113 228.814C92.5983 228.814 91.8418 228.131 91.8418 226.764ZM96.1895 246H92.0195V230.715H96.1895V246ZM106.908 233.395C106.024 233.395 105.331 233.677 104.83 234.242C104.329 234.798 104.042 235.591 103.969 236.621H109.82C109.802 235.591 109.533 234.798 109.014 234.242C108.494 233.677 107.792 233.395 106.908 233.395ZM107.496 246.273C105.035 246.273 103.112 245.594 101.727 244.236C100.341 242.878 99.6484 240.955 99.6484 238.467C99.6484 235.906 100.286 233.928 101.562 232.533C102.848 231.13 104.62 230.428 106.881 230.428C109.041 230.428 110.723 231.043 111.926 232.273C113.129 233.504 113.73 235.204 113.73 237.373V239.396H103.873C103.919 240.581 104.27 241.507 104.926 242.172C105.582 242.837 106.503 243.17 107.688 243.17C108.608 243.17 109.479 243.074 110.299 242.883C111.119 242.691 111.976 242.386 112.869 241.967V245.193C112.14 245.558 111.361 245.827 110.531 246C109.702 246.182 108.69 246.273 107.496 246.273ZM131.23 246H127.061V237.072C127.061 235.969 126.865 235.145 126.473 234.598C126.081 234.042 125.456 233.764 124.6 233.764C123.433 233.764 122.59 234.156 122.07 234.939C121.551 235.714 121.291 237.004 121.291 238.809V246H117.121V230.715H120.307L120.867 232.67H121.1C121.564 231.932 122.202 231.376 123.014 231.002C123.834 230.619 124.764 230.428 125.803 230.428C127.58 230.428 128.929 230.911 129.85 231.877C130.77 232.834 131.23 234.219 131.23 236.033V246ZM141.73 246.273C136.973 246.273 134.594 243.662 134.594 238.439C134.594 235.842 135.241 233.859 136.535 232.492C137.829 231.116 139.684 230.428 142.1 230.428C143.868 230.428 145.454 230.774 146.857 231.467L145.627 234.693C144.971 234.429 144.36 234.215 143.795 234.051C143.23 233.878 142.665 233.791 142.1 233.791C139.93 233.791 138.846 235.331 138.846 238.412C138.846 241.402 139.93 242.896 142.1 242.896C142.902 242.896 143.645 242.792 144.328 242.582C145.012 242.363 145.695 242.026 146.379 241.57V245.139C145.704 245.567 145.021 245.863 144.328 246.027C143.645 246.191 142.779 246.273 141.73 246.273ZM156.264 233.395C155.38 233.395 154.687 233.677 154.186 234.242C153.684 234.798 153.397 235.591 153.324 236.621H159.176C159.158 235.591 158.889 234.798 158.369 234.242C157.85 233.677 157.148 233.395 156.264 233.395ZM156.852 246.273C154.391 246.273 152.467 245.594 151.082 244.236C149.697 242.878 149.004 240.955 149.004 238.467C149.004 235.906 149.642 233.928 150.918 232.533C152.203 231.13 153.976 230.428 156.236 230.428C158.396 230.428 160.078 231.043 161.281 232.273C162.484 233.504 163.086 235.204 163.086 237.373V239.396H153.229C153.274 240.581 153.625 241.507 154.281 242.172C154.938 242.837 155.858 243.17 157.043 243.17C157.964 243.17 158.834 243.074 159.654 242.883C160.475 242.691 161.331 242.386 162.225 241.967V245.193C161.495 245.558 160.716 245.827 159.887 246C159.057 246.182 158.046 246.273 156.852 246.273ZM182.281 230.428C182.846 230.428 183.316 230.469 183.689 230.551L183.375 234.461C183.038 234.37 182.628 234.324 182.145 234.324C180.814 234.324 179.775 234.666 179.027 235.35C178.289 236.033 177.92 236.99 177.92 238.221V246H173.75V230.715H176.908L177.523 233.285H177.729C178.202 232.428 178.84 231.74 179.643 231.221C180.454 230.692 181.333 230.428 182.281 230.428ZM192.795 233.395C191.911 233.395 191.218 233.677 190.717 234.242C190.215 234.798 189.928 235.591 189.855 236.621H195.707C195.689 235.591 195.42 234.798 194.9 234.242C194.381 233.677 193.679 233.395 192.795 233.395ZM193.383 246.273C190.922 246.273 188.999 245.594 187.613 244.236C186.228 242.878 185.535 240.955 185.535 238.467C185.535 235.906 186.173 233.928 187.449 232.533C188.734 231.13 190.507 230.428 192.768 230.428C194.928 230.428 196.609 231.043 197.812 232.273C199.016 233.504 199.617 235.204 199.617 237.373V239.396H189.76C189.805 240.581 190.156 241.507 190.812 242.172C191.469 242.837 192.389 243.17 193.574 243.17C194.495 243.17 195.365 243.074 196.186 242.883C197.006 242.691 197.863 242.386 198.756 241.967V245.193C198.027 245.558 197.247 245.827 196.418 246C195.589 246.182 194.577 246.273 193.383 246.273ZM213.672 241.461C213.672 243.029 213.125 244.223 212.031 245.043C210.947 245.863 209.32 246.273 207.15 246.273C206.038 246.273 205.09 246.196 204.307 246.041C203.523 245.895 202.789 245.676 202.105 245.385V241.939C202.88 242.304 203.751 242.609 204.717 242.855C205.692 243.102 206.549 243.225 207.287 243.225C208.8 243.225 209.557 242.787 209.557 241.912C209.557 241.584 209.456 241.32 209.256 241.119C209.055 240.91 208.709 240.677 208.217 240.422C207.725 240.158 207.068 239.852 206.248 239.506C205.072 239.014 204.206 238.558 203.65 238.139C203.104 237.719 202.702 237.241 202.447 236.703C202.201 236.156 202.078 235.486 202.078 234.693C202.078 233.335 202.602 232.287 203.65 231.549C204.708 230.801 206.202 230.428 208.135 230.428C209.976 230.428 211.767 230.829 213.508 231.631L212.25 234.639C211.484 234.311 210.769 234.042 210.104 233.832C209.438 233.622 208.759 233.518 208.066 233.518C206.836 233.518 206.221 233.85 206.221 234.516C206.221 234.889 206.417 235.213 206.809 235.486C207.21 235.76 208.08 236.165 209.42 236.703C210.614 237.186 211.489 237.637 212.045 238.057C212.601 238.476 213.011 238.959 213.275 239.506C213.54 240.053 213.672 240.704 213.672 241.461ZM223.365 242.951C224.094 242.951 224.969 242.792 225.99 242.473V245.576C224.951 246.041 223.675 246.273 222.162 246.273C220.494 246.273 219.277 245.854 218.512 245.016C217.755 244.168 217.377 242.901 217.377 241.215V233.846H215.381V232.082L217.678 230.688L218.881 227.461H221.547V230.715H225.826V233.846H221.547V241.215C221.547 241.807 221.711 242.245 222.039 242.527C222.376 242.81 222.818 242.951 223.365 242.951ZM239.758 241.461C239.758 243.029 239.211 244.223 238.117 245.043C237.033 245.863 235.406 246.273 233.236 246.273C232.124 246.273 231.176 246.196 230.393 246.041C229.609 245.895 228.875 245.676 228.191 245.385V241.939C228.966 242.304 229.837 242.609 230.803 242.855C231.778 243.102 232.635 243.225 233.373 243.225C234.886 243.225 235.643 242.787 235.643 241.912C235.643 241.584 235.542 241.32 235.342 241.119C235.141 240.91 234.795 240.677 234.303 240.422C233.811 240.158 233.154 239.852 232.334 239.506C231.158 239.014 230.292 238.558 229.736 238.139C229.189 237.719 228.788 237.241 228.533 236.703C228.287 236.156 228.164 235.486 228.164 234.693C228.164 233.335 228.688 232.287 229.736 231.549C230.794 230.801 232.288 230.428 234.221 230.428C236.062 230.428 237.853 230.829 239.594 231.631L238.336 234.639C237.57 234.311 236.855 234.042 236.189 233.832C235.524 233.622 234.845 233.518 234.152 233.518C232.922 233.518 232.307 233.85 232.307 234.516C232.307 234.889 232.503 235.213 232.895 235.486C233.296 235.76 234.166 236.165 235.506 236.703C236.7 237.186 237.575 237.637 238.131 238.057C238.687 238.476 239.097 238.959 239.361 239.506C239.626 240.053 239.758 240.704 239.758 241.461ZM65.5098 276.33C65.5098 277.843 65.7559 278.987 66.248 279.762C66.7493 280.536 67.5605 280.924 68.6816 280.924C69.7936 280.924 70.5911 280.541 71.0742 279.775C71.5664 279.001 71.8125 277.852 71.8125 276.33C71.8125 274.817 71.5664 273.682 71.0742 272.926C70.582 272.169 69.7754 271.791 68.6543 271.791C67.5423 271.791 66.7402 272.169 66.248 272.926C65.7559 273.673 65.5098 274.808 65.5098 276.33ZM76.0781 276.33C76.0781 278.818 75.4219 280.764 74.1094 282.168C72.7969 283.572 70.9694 284.273 68.627 284.273C67.1595 284.273 65.8652 283.954 64.7441 283.316C63.623 282.669 62.7617 281.744 62.1602 280.541C61.5586 279.338 61.2578 277.934 61.2578 276.33C61.2578 273.833 61.9095 271.891 63.2129 270.506C64.5163 269.12 66.3483 268.428 68.709 268.428C70.1764 268.428 71.4707 268.747 72.5918 269.385C73.7129 270.023 74.5742 270.939 75.1758 272.133C75.7773 273.327 76.0781 274.726 76.0781 276.33ZM93.6328 284H89.4629V275.072C89.4629 273.969 89.2669 273.145 88.875 272.598C88.4831 272.042 87.8587 271.764 87.002 271.764C85.8353 271.764 84.9922 272.156 84.4727 272.939C83.9531 273.714 83.6934 275.004 83.6934 276.809V284H79.5234V268.715H82.709L83.2695 270.67H83.502C83.9668 269.932 84.6048 269.376 85.416 269.002C86.2363 268.619 87.166 268.428 88.2051 268.428C89.9824 268.428 91.3314 268.911 92.252 269.877C93.1725 270.834 93.6328 272.219 93.6328 274.033V284ZM111.406 284.273C106.648 284.273 104.27 281.662 104.27 276.439C104.27 273.842 104.917 271.859 106.211 270.492C107.505 269.116 109.36 268.428 111.775 268.428C113.544 268.428 115.13 268.774 116.533 269.467L115.303 272.693C114.646 272.429 114.036 272.215 113.471 272.051C112.906 271.878 112.34 271.791 111.775 271.791C109.606 271.791 108.521 273.331 108.521 276.412C108.521 279.402 109.606 280.896 111.775 280.896C112.577 280.896 113.32 280.792 114.004 280.582C114.688 280.363 115.371 280.026 116.055 279.57V283.139C115.38 283.567 114.697 283.863 114.004 284.027C113.32 284.191 112.454 284.273 111.406 284.273ZM119.432 264.764C119.432 263.406 120.188 262.727 121.701 262.727C123.214 262.727 123.971 263.406 123.971 264.764C123.971 265.411 123.779 265.917 123.396 266.281C123.023 266.637 122.458 266.814 121.701 266.814C120.188 266.814 119.432 266.131 119.432 264.764ZM123.779 284H119.609V268.715H123.779V284ZM134.607 280.951C135.337 280.951 136.212 280.792 137.232 280.473V283.576C136.193 284.041 134.917 284.273 133.404 284.273C131.736 284.273 130.52 283.854 129.754 283.016C128.997 282.168 128.619 280.901 128.619 279.215V271.846H126.623V270.082L128.92 268.688L130.123 265.461H132.789V268.715H137.068V271.846H132.789V279.215C132.789 279.807 132.953 280.245 133.281 280.527C133.618 280.81 134.061 280.951 134.607 280.951ZM140.158 264.764C140.158 263.406 140.915 262.727 142.428 262.727C143.941 262.727 144.697 263.406 144.697 264.764C144.697 265.411 144.506 265.917 144.123 266.281C143.749 266.637 143.184 266.814 142.428 266.814C140.915 266.814 140.158 266.131 140.158 264.764ZM144.506 284H140.336V268.715H144.506V284ZM163.004 284H158.834V275.072C158.834 273.969 158.638 273.145 158.246 272.598C157.854 272.042 157.23 271.764 156.373 271.764C155.206 271.764 154.363 272.156 153.844 272.939C153.324 273.714 153.064 275.004 153.064 276.809V284H148.895V268.715H152.08L152.641 270.67H152.873C153.338 269.932 153.976 269.376 154.787 269.002C155.607 268.619 156.537 268.428 157.576 268.428C159.354 268.428 160.702 268.911 161.623 269.877C162.544 270.834 163.004 272.219 163.004 274.033V284ZM180.6 268.715V270.834L178.207 271.449C178.645 272.133 178.863 272.898 178.863 273.746C178.863 275.387 178.289 276.667 177.141 277.588C176.001 278.499 174.415 278.955 172.383 278.955L171.631 278.914L171.016 278.846C170.587 279.174 170.373 279.538 170.373 279.939C170.373 280.541 171.139 280.842 172.67 280.842H175.268C176.945 280.842 178.221 281.202 179.096 281.922C179.98 282.642 180.422 283.699 180.422 285.094C180.422 286.88 179.674 288.266 178.18 289.25C176.694 290.234 174.557 290.727 171.768 290.727C169.635 290.727 168.003 290.353 166.873 289.605C165.752 288.867 165.191 287.828 165.191 286.488C165.191 285.568 165.479 284.798 166.053 284.178C166.627 283.558 167.47 283.116 168.582 282.852C168.154 282.669 167.78 282.373 167.461 281.963C167.142 281.544 166.982 281.102 166.982 280.637C166.982 280.053 167.151 279.57 167.488 279.188C167.826 278.796 168.313 278.413 168.951 278.039C168.149 277.693 167.511 277.137 167.037 276.371C166.572 275.605 166.34 274.703 166.34 273.664C166.34 271.996 166.882 270.706 167.967 269.795C169.051 268.883 170.601 268.428 172.615 268.428C173.044 268.428 173.549 268.469 174.133 268.551C174.725 268.624 175.104 268.678 175.268 268.715H180.6ZM168.801 286.16C168.801 286.734 169.074 287.186 169.621 287.514C170.177 287.842 170.952 288.006 171.945 288.006C173.44 288.006 174.611 287.801 175.459 287.391C176.307 286.98 176.73 286.42 176.73 285.709C176.73 285.135 176.48 284.738 175.979 284.52C175.477 284.301 174.702 284.191 173.654 284.191H171.494C170.729 284.191 170.086 284.369 169.566 284.725C169.056 285.089 168.801 285.568 168.801 286.16ZM170.318 273.719C170.318 274.548 170.505 275.204 170.879 275.688C171.262 276.171 171.84 276.412 172.615 276.412C173.399 276.412 173.973 276.171 174.338 275.688C174.702 275.204 174.885 274.548 174.885 273.719C174.885 271.878 174.128 270.957 172.615 270.957C171.084 270.957 170.318 271.878 170.318 273.719ZM196.842 280.951C197.571 280.951 198.446 280.792 199.467 280.473V283.576C198.428 284.041 197.152 284.273 195.639 284.273C193.971 284.273 192.754 283.854 191.988 283.016C191.232 282.168 190.854 280.901 190.854 279.215V271.846H188.857V270.082L191.154 268.688L192.357 265.461H195.023V268.715H199.303V271.846H195.023V279.215C195.023 279.807 195.188 280.245 195.516 280.527C195.853 280.81 196.295 280.951 196.842 280.951ZM216.68 284H212.51V275.072C212.51 272.867 211.689 271.764 210.049 271.764C208.882 271.764 208.039 272.16 207.52 272.953C207 273.746 206.74 275.031 206.74 276.809V284H202.57V262.727H206.74V267.061C206.74 267.398 206.708 268.191 206.645 269.439L206.549 270.67H206.768C207.697 269.175 209.174 268.428 211.197 268.428C212.993 268.428 214.355 268.911 215.285 269.877C216.215 270.843 216.68 272.229 216.68 274.033V284ZM224.295 276.33C224.295 277.843 224.541 278.987 225.033 279.762C225.535 280.536 226.346 280.924 227.467 280.924C228.579 280.924 229.376 280.541 229.859 279.775C230.352 279.001 230.598 277.852 230.598 276.33C230.598 274.817 230.352 273.682 229.859 272.926C229.367 272.169 228.561 271.791 227.439 271.791C226.327 271.791 225.525 272.169 225.033 272.926C224.541 273.673 224.295 274.808 224.295 276.33ZM234.863 276.33C234.863 278.818 234.207 280.764 232.895 282.168C231.582 283.572 229.755 284.273 227.412 284.273C225.945 284.273 224.65 283.954 223.529 283.316C222.408 282.669 221.547 281.744 220.945 280.541C220.344 279.338 220.043 277.934 220.043 276.33C220.043 273.833 220.695 271.891 221.998 270.506C223.301 269.12 225.133 268.428 227.494 268.428C228.962 268.428 230.256 268.747 231.377 269.385C232.498 270.023 233.359 270.939 233.961 272.133C234.562 273.327 234.863 274.726 234.863 276.33ZM248.973 279.461C248.973 281.029 248.426 282.223 247.332 283.043C246.247 283.863 244.62 284.273 242.451 284.273C241.339 284.273 240.391 284.196 239.607 284.041C238.824 283.895 238.09 283.676 237.406 283.385V279.939C238.181 280.304 239.051 280.609 240.018 280.855C240.993 281.102 241.85 281.225 242.588 281.225C244.101 281.225 244.857 280.787 244.857 279.912C244.857 279.584 244.757 279.32 244.557 279.119C244.356 278.91 244.01 278.677 243.518 278.422C243.025 278.158 242.369 277.852 241.549 277.506C240.373 277.014 239.507 276.558 238.951 276.139C238.404 275.719 238.003 275.241 237.748 274.703C237.502 274.156 237.379 273.486 237.379 272.693C237.379 271.335 237.903 270.287 238.951 269.549C240.008 268.801 241.503 268.428 243.436 268.428C245.277 268.428 247.068 268.829 248.809 269.631L247.551 272.639C246.785 272.311 246.07 272.042 245.404 271.832C244.739 271.622 244.06 271.518 243.367 271.518C242.137 271.518 241.521 271.85 241.521 272.516C241.521 272.889 241.717 273.213 242.109 273.486C242.51 273.76 243.381 274.165 244.721 274.703C245.915 275.186 246.79 275.637 247.346 276.057C247.902 276.476 248.312 276.959 248.576 277.506C248.84 278.053 248.973 278.704 248.973 279.461ZM258.557 271.395C257.673 271.395 256.98 271.677 256.479 272.242C255.977 272.798 255.69 273.591 255.617 274.621H261.469C261.451 273.591 261.182 272.798 260.662 272.242C260.143 271.677 259.441 271.395 258.557 271.395ZM259.145 284.273C256.684 284.273 254.76 283.594 253.375 282.236C251.99 280.878 251.297 278.955 251.297 276.467C251.297 273.906 251.935 271.928 253.211 270.533C254.496 269.13 256.269 268.428 258.529 268.428C260.689 268.428 262.371 269.043 263.574 270.273C264.777 271.504 265.379 273.204 265.379 275.373V277.396H255.521C255.567 278.581 255.918 279.507 256.574 280.172C257.23 280.837 258.151 281.17 259.336 281.17C260.257 281.17 261.127 281.074 261.947 280.883C262.768 280.691 263.624 280.386 264.518 279.967V283.193C263.788 283.558 263.009 283.827 262.18 284C261.35 284.182 260.339 284.273 259.145 284.273ZM288.607 284L287.432 278.654L285.846 271.9H285.75L282.961 284H278.477L274.129 268.715H278.285L280.049 275.482C280.331 276.695 280.618 278.367 280.91 280.5H280.992C281.029 279.807 281.188 278.709 281.471 277.205L281.689 276.043L283.576 268.715H288.17L289.961 276.043C289.997 276.243 290.052 276.54 290.125 276.932C290.207 277.324 290.285 277.743 290.357 278.189C290.43 278.627 290.494 279.06 290.549 279.488C290.613 279.908 290.649 280.245 290.658 280.5H290.74C290.822 279.844 290.968 278.946 291.178 277.807C291.387 276.658 291.538 275.883 291.629 275.482L293.461 268.715H297.549L293.146 284H288.607ZM314.133 284H309.963V275.072C309.963 272.867 309.143 271.764 307.502 271.764C306.335 271.764 305.492 272.16 304.973 272.953C304.453 273.746 304.193 275.031 304.193 276.809V284H300.023V262.727H304.193V267.061C304.193 267.398 304.161 268.191 304.098 269.439L304.002 270.67H304.221C305.15 269.175 306.627 268.428 308.65 268.428C310.446 268.428 311.809 268.911 312.738 269.877C313.668 270.843 314.133 272.229 314.133 274.033V284ZM321.748 276.33C321.748 277.843 321.994 278.987 322.486 279.762C322.988 280.536 323.799 280.924 324.92 280.924C326.032 280.924 326.829 280.541 327.312 279.775C327.805 279.001 328.051 277.852 328.051 276.33C328.051 274.817 327.805 273.682 327.312 272.926C326.82 272.169 326.014 271.791 324.893 271.791C323.781 271.791 322.979 272.169 322.486 272.926C321.994 273.673 321.748 274.808 321.748 276.33ZM332.316 276.33C332.316 278.818 331.66 280.764 330.348 282.168C329.035 283.572 327.208 284.273 324.865 284.273C323.398 284.273 322.104 283.954 320.982 283.316C319.861 282.669 319 281.744 318.398 280.541C317.797 279.338 317.496 277.934 317.496 276.33C317.496 273.833 318.148 271.891 319.451 270.506C320.755 269.12 322.587 268.428 324.947 268.428C326.415 268.428 327.709 268.747 328.83 269.385C329.951 270.023 330.812 270.939 331.414 272.133C332.016 273.327 332.316 274.726 332.316 276.33ZM68.3945 322.273C63.6367 322.273 61.2578 319.662 61.2578 314.439C61.2578 311.842 61.9049 309.859 63.1992 308.492C64.4935 307.116 66.3483 306.428 68.7637 306.428C70.5319 306.428 72.1178 306.774 73.5215 307.467L72.291 310.693C71.6348 310.429 71.0241 310.215 70.459 310.051C69.8939 309.878 69.3288 309.791 68.7637 309.791C66.5944 309.791 65.5098 311.331 65.5098 314.412C65.5098 317.402 66.5944 318.896 68.7637 318.896C69.5658 318.896 70.3086 318.792 70.9922 318.582C71.6758 318.363 72.3594 318.026 73.043 317.57V321.139C72.3685 321.567 71.6849 321.863 70.9922 322.027C70.3086 322.191 69.4427 322.273 68.3945 322.273ZM86.3047 322L85.498 319.922H85.3887C84.6868 320.806 83.9622 321.421 83.2148 321.768C82.4766 322.105 81.5104 322.273 80.3164 322.273C78.849 322.273 77.6914 321.854 76.8438 321.016C76.0052 320.177 75.5859 318.983 75.5859 317.434C75.5859 315.811 76.151 314.617 77.2812 313.852C78.4206 313.077 80.1341 312.648 82.4219 312.566L85.0742 312.484V311.814C85.0742 310.265 84.2812 309.49 82.6953 309.49C81.474 309.49 80.0384 309.859 78.3887 310.598L77.0078 307.781C78.7669 306.861 80.7174 306.4 82.8594 306.4C84.9102 306.4 86.4824 306.847 87.5762 307.74C88.6699 308.633 89.2168 309.992 89.2168 311.814V322H86.3047ZM85.0742 314.918L83.4609 314.973C82.2487 315.009 81.3464 315.228 80.7539 315.629C80.1615 316.03 79.8652 316.641 79.8652 317.461C79.8652 318.637 80.5397 319.225 81.8887 319.225C82.8548 319.225 83.625 318.947 84.1992 318.391C84.7826 317.835 85.0742 317.096 85.0742 316.176V314.918ZM107.209 322H103.039V313.072C103.039 311.969 102.852 311.145 102.479 310.598C102.114 310.042 101.535 309.764 100.742 309.764C99.6758 309.764 98.901 310.156 98.418 310.939C97.9349 311.723 97.6934 313.013 97.6934 314.809V322H93.5234V306.715H96.709L97.2695 308.67H97.502C97.9121 307.968 98.5046 307.421 99.2793 307.029C100.054 306.628 100.943 306.428 101.945 306.428C104.233 306.428 105.783 307.175 106.594 308.67H106.963C107.373 307.959 107.975 307.408 108.768 307.016C109.57 306.624 110.472 306.428 111.475 306.428C113.206 306.428 114.514 306.874 115.398 307.768C116.292 308.652 116.738 310.074 116.738 312.033V322H112.555V313.072C112.555 311.969 112.368 311.145 111.994 310.598C111.63 310.042 111.051 309.764 110.258 309.764C109.237 309.764 108.471 310.128 107.961 310.857C107.46 311.587 107.209 312.744 107.209 314.33V322ZM127.361 309.395C126.477 309.395 125.785 309.677 125.283 310.242C124.782 310.798 124.495 311.591 124.422 312.621H130.273C130.255 311.591 129.986 310.798 129.467 310.242C128.947 309.677 128.245 309.395 127.361 309.395ZM127.949 322.273C125.488 322.273 123.565 321.594 122.18 320.236C120.794 318.878 120.102 316.955 120.102 314.467C120.102 311.906 120.74 309.928 122.016 308.533C123.301 307.13 125.074 306.428 127.334 306.428C129.494 306.428 131.176 307.043 132.379 308.273C133.582 309.504 134.184 311.204 134.184 313.373V315.396H124.326C124.372 316.581 124.723 317.507 125.379 318.172C126.035 318.837 126.956 319.17 128.141 319.17C129.061 319.17 129.932 319.074 130.752 318.883C131.572 318.691 132.429 318.386 133.322 317.967V321.193C132.593 321.558 131.814 321.827 130.984 322C130.155 322.182 129.143 322.273 127.949 322.273ZM153.352 306.428C155.156 306.428 156.569 307.134 157.59 308.547C158.611 309.951 159.121 311.878 159.121 314.33C159.121 316.855 158.592 318.81 157.535 320.195C156.487 321.581 155.056 322.273 153.242 322.273C151.447 322.273 150.038 321.622 149.018 320.318H148.73L148.033 322H144.848V300.727H149.018V305.676C149.018 306.305 148.963 307.312 148.854 308.697H149.018C149.993 307.184 151.438 306.428 153.352 306.428ZM152.012 309.764C150.982 309.764 150.23 310.083 149.756 310.721C149.282 311.35 149.036 312.393 149.018 313.852V314.303C149.018 315.943 149.259 317.119 149.742 317.83C150.234 318.541 151.009 318.896 152.066 318.896C152.923 318.896 153.602 318.505 154.104 317.721C154.614 316.928 154.869 315.779 154.869 314.275C154.869 312.771 154.614 311.646 154.104 310.898C153.593 310.142 152.896 309.764 152.012 309.764ZM168.896 309.395C168.012 309.395 167.32 309.677 166.818 310.242C166.317 310.798 166.03 311.591 165.957 312.621H171.809C171.79 311.591 171.521 310.798 171.002 310.242C170.482 309.677 169.781 309.395 168.896 309.395ZM169.484 322.273C167.023 322.273 165.1 321.594 163.715 320.236C162.329 318.878 161.637 316.955 161.637 314.467C161.637 311.906 162.275 309.928 163.551 308.533C164.836 307.13 166.609 306.428 168.869 306.428C171.029 306.428 172.711 307.043 173.914 308.273C175.117 309.504 175.719 311.204 175.719 313.373V315.396H165.861C165.907 316.581 166.258 317.507 166.914 318.172C167.57 318.837 168.491 319.17 169.676 319.17C170.596 319.17 171.467 319.074 172.287 318.883C173.107 318.691 173.964 318.386 174.857 317.967V321.193C174.128 321.558 173.349 321.827 172.52 322C171.69 322.182 170.678 322.273 169.484 322.273ZM187.559 309.846H183.949V322H179.779V309.846H177.482V307.836L179.779 306.715V305.594C179.779 303.853 180.208 302.581 181.064 301.779C181.921 300.977 183.293 300.576 185.18 300.576C186.62 300.576 187.9 300.79 189.021 301.219L187.955 304.281C187.117 304.017 186.342 303.885 185.631 303.885C185.038 303.885 184.61 304.062 184.346 304.418C184.081 304.764 183.949 305.211 183.949 305.758V306.715H187.559V309.846ZM193.287 314.33C193.287 315.843 193.533 316.987 194.025 317.762C194.527 318.536 195.338 318.924 196.459 318.924C197.571 318.924 198.368 318.541 198.852 317.775C199.344 317.001 199.59 315.852 199.59 314.33C199.59 312.817 199.344 311.682 198.852 310.926C198.359 310.169 197.553 309.791 196.432 309.791C195.32 309.791 194.518 310.169 194.025 310.926C193.533 311.673 193.287 312.808 193.287 314.33ZM203.855 314.33C203.855 316.818 203.199 318.764 201.887 320.168C200.574 321.572 198.747 322.273 196.404 322.273C194.937 322.273 193.643 321.954 192.521 321.316C191.4 320.669 190.539 319.744 189.938 318.541C189.336 317.338 189.035 315.934 189.035 314.33C189.035 311.833 189.687 309.891 190.99 308.506C192.294 307.12 194.126 306.428 196.486 306.428C197.954 306.428 199.248 306.747 200.369 307.385C201.49 308.023 202.352 308.939 202.953 310.133C203.555 311.327 203.855 312.726 203.855 314.33ZM215.832 306.428C216.397 306.428 216.867 306.469 217.24 306.551L216.926 310.461C216.589 310.37 216.178 310.324 215.695 310.324C214.365 310.324 213.326 310.666 212.578 311.35C211.84 312.033 211.471 312.99 211.471 314.221V322H207.301V306.715H210.459L211.074 309.285H211.279C211.753 308.428 212.391 307.74 213.193 307.221C214.005 306.692 214.884 306.428 215.832 306.428ZM226.346 309.395C225.462 309.395 224.769 309.677 224.268 310.242C223.766 310.798 223.479 311.591 223.406 312.621H229.258C229.24 311.591 228.971 310.798 228.451 310.242C227.932 309.677 227.23 309.395 226.346 309.395ZM226.934 322.273C224.473 322.273 222.549 321.594 221.164 320.236C219.779 318.878 219.086 316.955 219.086 314.467C219.086 311.906 219.724 309.928 221 308.533C222.285 307.13 224.058 306.428 226.318 306.428C228.479 306.428 230.16 307.043 231.363 308.273C232.566 309.504 233.168 311.204 233.168 313.373V315.396H223.311C223.356 316.581 223.707 317.507 224.363 318.172C225.02 318.837 225.94 319.17 227.125 319.17C228.046 319.17 228.916 319.074 229.736 318.883C230.557 318.691 231.413 318.386 232.307 317.967V321.193C231.577 321.558 230.798 321.827 229.969 322C229.139 322.182 228.128 322.273 226.934 322.273ZM254.66 322L254.1 320.045H253.881C253.434 320.756 252.801 321.307 251.98 321.699C251.16 322.082 250.226 322.273 249.178 322.273C247.382 322.273 246.029 321.795 245.117 320.838C244.206 319.872 243.75 318.486 243.75 316.682V306.715H247.92V315.643C247.92 316.745 248.116 317.575 248.508 318.131C248.9 318.678 249.524 318.951 250.381 318.951C251.548 318.951 252.391 318.564 252.91 317.789C253.43 317.005 253.689 315.711 253.689 313.906V306.715H257.859V322H254.66ZM272.898 317.461C272.898 319.029 272.352 320.223 271.258 321.043C270.173 321.863 268.546 322.273 266.377 322.273C265.265 322.273 264.317 322.196 263.533 322.041C262.749 321.895 262.016 321.676 261.332 321.385V317.939C262.107 318.304 262.977 318.609 263.943 318.855C264.919 319.102 265.775 319.225 266.514 319.225C268.027 319.225 268.783 318.787 268.783 317.912C268.783 317.584 268.683 317.32 268.482 317.119C268.282 316.91 267.936 316.677 267.443 316.422C266.951 316.158 266.295 315.852 265.475 315.506C264.299 315.014 263.433 314.558 262.877 314.139C262.33 313.719 261.929 313.241 261.674 312.703C261.428 312.156 261.305 311.486 261.305 310.693C261.305 309.335 261.829 308.287 262.877 307.549C263.934 306.801 265.429 306.428 267.361 306.428C269.202 306.428 270.993 306.829 272.734 307.631L271.477 310.639C270.711 310.311 269.995 310.042 269.33 309.832C268.665 309.622 267.986 309.518 267.293 309.518C266.062 309.518 265.447 309.85 265.447 310.516C265.447 310.889 265.643 311.213 266.035 311.486C266.436 311.76 267.307 312.165 268.646 312.703C269.84 313.186 270.715 313.637 271.271 314.057C271.827 314.476 272.238 314.959 272.502 315.506C272.766 316.053 272.898 316.704 272.898 317.461ZM275.564 320.045C275.564 319.279 275.77 318.701 276.18 318.309C276.59 317.917 277.187 317.721 277.971 317.721C278.727 317.721 279.311 317.921 279.721 318.322C280.14 318.723 280.35 319.298 280.35 320.045C280.35 320.765 280.14 321.335 279.721 321.754C279.301 322.164 278.718 322.369 277.971 322.369C277.205 322.369 276.613 322.169 276.193 321.768C275.774 321.357 275.564 320.783 275.564 320.045Z" fill="white"/>
<path id="But what does that really mean?" d="M411.656 460.012H417.877C420.712 460.012 422.767 460.417 424.043 461.229C425.328 462.031 425.971 463.311 425.971 465.07C425.971 466.264 425.688 467.244 425.123 468.01C424.567 468.775 423.824 469.236 422.895 469.391V469.527C424.161 469.81 425.073 470.339 425.629 471.113C426.194 471.888 426.477 472.918 426.477 474.203C426.477 476.026 425.816 477.448 424.494 478.469C423.182 479.49 421.395 480 419.135 480H411.656V460.012ZM415.895 467.928H418.355C419.504 467.928 420.333 467.75 420.844 467.395C421.363 467.039 421.623 466.451 421.623 465.631C421.623 464.865 421.34 464.318 420.775 463.99C420.219 463.653 419.335 463.484 418.123 463.484H415.895V467.928ZM415.895 471.291V476.5H418.656C419.823 476.5 420.684 476.277 421.24 475.83C421.796 475.383 422.074 474.7 422.074 473.779C422.074 472.12 420.889 471.291 418.52 471.291H415.895ZM440.969 480L440.408 478.045H440.189C439.743 478.756 439.109 479.307 438.289 479.699C437.469 480.082 436.535 480.273 435.486 480.273C433.691 480.273 432.337 479.795 431.426 478.838C430.514 477.872 430.059 476.486 430.059 474.682V464.715H434.229V473.643C434.229 474.745 434.424 475.575 434.816 476.131C435.208 476.678 435.833 476.951 436.689 476.951C437.856 476.951 438.699 476.564 439.219 475.789C439.738 475.005 439.998 473.711 439.998 471.906V464.715H444.168V480H440.969ZM454.982 476.951C455.712 476.951 456.587 476.792 457.607 476.473V479.576C456.568 480.041 455.292 480.273 453.779 480.273C452.111 480.273 450.895 479.854 450.129 479.016C449.372 478.168 448.994 476.901 448.994 475.215V467.846H446.998V466.082L449.295 464.688L450.498 461.461H453.164V464.715H457.443V467.846H453.164V475.215C453.164 475.807 453.328 476.245 453.656 476.527C453.993 476.81 454.436 476.951 454.982 476.951ZM480.549 480L479.373 474.654L477.787 467.9H477.691L474.902 480H470.418L466.07 464.715H470.227L471.99 471.482C472.273 472.695 472.56 474.367 472.852 476.5H472.934C472.97 475.807 473.13 474.709 473.412 473.205L473.631 472.043L475.518 464.715H480.111L481.902 472.043C481.939 472.243 481.993 472.54 482.066 472.932C482.148 473.324 482.226 473.743 482.299 474.189C482.372 474.627 482.436 475.06 482.49 475.488C482.554 475.908 482.59 476.245 482.6 476.5H482.682C482.764 475.844 482.91 474.946 483.119 473.807C483.329 472.658 483.479 471.883 483.57 471.482L485.402 464.715H489.49L485.088 480H480.549ZM506.074 480H501.904V471.072C501.904 468.867 501.084 467.764 499.443 467.764C498.277 467.764 497.434 468.16 496.914 468.953C496.395 469.746 496.135 471.031 496.135 472.809V480H491.965V458.727H496.135V463.061C496.135 463.398 496.103 464.191 496.039 465.439L495.943 466.67H496.162C497.092 465.175 498.568 464.428 500.592 464.428C502.387 464.428 503.75 464.911 504.68 465.877C505.609 466.843 506.074 468.229 506.074 470.033V480ZM520.074 480L519.268 477.922H519.158C518.456 478.806 517.732 479.421 516.984 479.768C516.246 480.105 515.28 480.273 514.086 480.273C512.618 480.273 511.461 479.854 510.613 479.016C509.775 478.177 509.355 476.983 509.355 475.434C509.355 473.811 509.921 472.617 511.051 471.852C512.19 471.077 513.904 470.648 516.191 470.566L518.844 470.484V469.814C518.844 468.265 518.051 467.49 516.465 467.49C515.243 467.49 513.808 467.859 512.158 468.598L510.777 465.781C512.536 464.861 514.487 464.4 516.629 464.4C518.68 464.4 520.252 464.847 521.346 465.74C522.439 466.633 522.986 467.992 522.986 469.814V480H520.074ZM518.844 472.918L517.23 472.973C516.018 473.009 515.116 473.228 514.523 473.629C513.931 474.03 513.635 474.641 513.635 475.461C513.635 476.637 514.309 477.225 515.658 477.225C516.624 477.225 517.395 476.947 517.969 476.391C518.552 475.835 518.844 475.096 518.844 474.176V472.918ZM533.732 476.951C534.462 476.951 535.337 476.792 536.357 476.473V479.576C535.318 480.041 534.042 480.273 532.529 480.273C530.861 480.273 529.645 479.854 528.879 479.016C528.122 478.168 527.744 476.901 527.744 475.215V467.846H525.748V466.082L528.045 464.688L529.248 461.461H531.914V464.715H536.193V467.846H531.914V475.215C531.914 475.807 532.078 476.245 532.406 476.527C532.743 476.81 533.186 476.951 533.732 476.951ZM551.574 480.273C549.779 480.273 548.366 479.576 547.336 478.182C546.315 476.787 545.805 474.855 545.805 472.385C545.805 469.878 546.324 467.928 547.363 466.533C548.411 465.13 549.852 464.428 551.684 464.428C553.607 464.428 555.074 465.175 556.086 466.67H556.223C556.013 465.531 555.908 464.514 555.908 463.621V458.727H560.092V480H556.893L556.086 478.018H555.908C554.96 479.521 553.516 480.273 551.574 480.273ZM553.037 476.951C554.104 476.951 554.883 476.641 555.375 476.021C555.876 475.402 556.15 474.349 556.195 472.863V472.412C556.195 470.771 555.94 469.596 555.43 468.885C554.928 468.174 554.108 467.818 552.969 467.818C552.039 467.818 551.314 468.215 550.795 469.008C550.285 469.792 550.029 470.936 550.029 472.439C550.029 473.943 550.289 475.074 550.809 475.83C551.328 476.577 552.071 476.951 553.037 476.951ZM567.775 472.33C567.775 473.843 568.021 474.987 568.514 475.762C569.015 476.536 569.826 476.924 570.947 476.924C572.059 476.924 572.857 476.541 573.34 475.775C573.832 475.001 574.078 473.852 574.078 472.33C574.078 470.817 573.832 469.682 573.34 468.926C572.848 468.169 572.041 467.791 570.92 467.791C569.808 467.791 569.006 468.169 568.514 468.926C568.021 469.673 567.775 470.808 567.775 472.33ZM578.344 472.33C578.344 474.818 577.688 476.764 576.375 478.168C575.062 479.572 573.235 480.273 570.893 480.273C569.425 480.273 568.131 479.954 567.01 479.316C565.889 478.669 565.027 477.744 564.426 476.541C563.824 475.338 563.523 473.934 563.523 472.33C563.523 469.833 564.175 467.891 565.479 466.506C566.782 465.12 568.614 464.428 570.975 464.428C572.442 464.428 573.736 464.747 574.857 465.385C575.979 466.023 576.84 466.939 577.441 468.133C578.043 469.327 578.344 470.726 578.344 472.33ZM588.119 467.395C587.235 467.395 586.542 467.677 586.041 468.242C585.54 468.798 585.253 469.591 585.18 470.621H591.031C591.013 469.591 590.744 468.798 590.225 468.242C589.705 467.677 589.003 467.395 588.119 467.395ZM588.707 480.273C586.246 480.273 584.323 479.594 582.938 478.236C581.552 476.878 580.859 474.955 580.859 472.467C580.859 469.906 581.497 467.928 582.773 466.533C584.059 465.13 585.831 464.428 588.092 464.428C590.252 464.428 591.934 465.043 593.137 466.273C594.34 467.504 594.941 469.204 594.941 471.373V473.396H585.084C585.13 474.581 585.48 475.507 586.137 476.172C586.793 476.837 587.714 477.17 588.898 477.17C589.819 477.17 590.689 477.074 591.51 476.883C592.33 476.691 593.187 476.386 594.08 475.967V479.193C593.351 479.558 592.572 479.827 591.742 480C590.913 480.182 589.901 480.273 588.707 480.273ZM608.996 475.461C608.996 477.029 608.449 478.223 607.355 479.043C606.271 479.863 604.644 480.273 602.475 480.273C601.363 480.273 600.415 480.196 599.631 480.041C598.847 479.895 598.113 479.676 597.43 479.385V475.939C598.204 476.304 599.075 476.609 600.041 476.855C601.016 477.102 601.873 477.225 602.611 477.225C604.124 477.225 604.881 476.787 604.881 475.912C604.881 475.584 604.781 475.32 604.58 475.119C604.38 474.91 604.033 474.677 603.541 474.422C603.049 474.158 602.393 473.852 601.572 473.506C600.396 473.014 599.531 472.558 598.975 472.139C598.428 471.719 598.027 471.241 597.771 470.703C597.525 470.156 597.402 469.486 597.402 468.693C597.402 467.335 597.926 466.287 598.975 465.549C600.032 464.801 601.527 464.428 603.459 464.428C605.3 464.428 607.091 464.829 608.832 465.631L607.574 468.639C606.809 468.311 606.093 468.042 605.428 467.832C604.762 467.622 604.083 467.518 603.391 467.518C602.16 467.518 601.545 467.85 601.545 468.516C601.545 468.889 601.741 469.213 602.133 469.486C602.534 469.76 603.404 470.165 604.744 470.703C605.938 471.186 606.813 471.637 607.369 472.057C607.925 472.476 608.335 472.959 608.6 473.506C608.864 474.053 608.996 474.704 608.996 475.461ZM625.963 476.951C626.692 476.951 627.567 476.792 628.588 476.473V479.576C627.549 480.041 626.273 480.273 624.76 480.273C623.092 480.273 621.875 479.854 621.109 479.016C620.353 478.168 619.975 476.901 619.975 475.215V467.846H617.979V466.082L620.275 464.688L621.479 461.461H624.145V464.715H628.424V467.846H624.145V475.215C624.145 475.807 624.309 476.245 624.637 476.527C624.974 476.81 625.416 476.951 625.963 476.951ZM645.801 480H641.631V471.072C641.631 468.867 640.811 467.764 639.17 467.764C638.003 467.764 637.16 468.16 636.641 468.953C636.121 469.746 635.861 471.031 635.861 472.809V480H631.691V458.727H635.861V463.061C635.861 463.398 635.829 464.191 635.766 465.439L635.67 466.67H635.889C636.818 465.175 638.295 464.428 640.318 464.428C642.114 464.428 643.477 464.911 644.406 465.877C645.336 466.843 645.801 468.229 645.801 470.033V480ZM659.801 480L658.994 477.922H658.885C658.183 478.806 657.458 479.421 656.711 479.768C655.973 480.105 655.007 480.273 653.812 480.273C652.345 480.273 651.188 479.854 650.34 479.016C649.501 478.177 649.082 476.983 649.082 475.434C649.082 473.811 649.647 472.617 650.777 471.852C651.917 471.077 653.63 470.648 655.918 470.566L658.57 470.484V469.814C658.57 468.265 657.777 467.49 656.191 467.49C654.97 467.49 653.535 467.859 651.885 468.598L650.504 465.781C652.263 464.861 654.214 464.4 656.355 464.4C658.406 464.4 659.979 464.847 661.072 465.74C662.166 466.633 662.713 467.992 662.713 469.814V480H659.801ZM658.57 472.918L656.957 472.973C655.745 473.009 654.842 473.228 654.25 473.629C653.658 474.03 653.361 474.641 653.361 475.461C653.361 476.637 654.036 477.225 655.385 477.225C656.351 477.225 657.121 476.947 657.695 476.391C658.279 475.835 658.57 475.096 658.57 474.176V472.918ZM673.459 476.951C674.188 476.951 675.063 476.792 676.084 476.473V479.576C675.045 480.041 673.769 480.273 672.256 480.273C670.588 480.273 669.371 479.854 668.605 479.016C667.849 478.168 667.471 476.901 667.471 475.215V467.846H665.475V466.082L667.771 464.688L668.975 461.461H671.641V464.715H675.92V467.846H671.641V475.215C671.641 475.807 671.805 476.245 672.133 476.527C672.47 476.81 672.912 476.951 673.459 476.951ZM508.453 502.428C509.018 502.428 509.488 502.469 509.861 502.551L509.547 506.461C509.21 506.37 508.799 506.324 508.316 506.324C506.986 506.324 505.947 506.666 505.199 507.35C504.461 508.033 504.092 508.99 504.092 510.221V518H499.922V502.715H503.08L503.695 505.285H503.9C504.374 504.428 505.012 503.74 505.814 503.221C506.626 502.692 507.505 502.428 508.453 502.428ZM518.967 505.395C518.083 505.395 517.39 505.677 516.889 506.242C516.387 506.798 516.1 507.591 516.027 508.621H521.879C521.861 507.591 521.592 506.798 521.072 506.242C520.553 505.677 519.851 505.395 518.967 505.395ZM519.555 518.273C517.094 518.273 515.171 517.594 513.785 516.236C512.4 514.878 511.707 512.955 511.707 510.467C511.707 507.906 512.345 505.928 513.621 504.533C514.906 503.13 516.679 502.428 518.939 502.428C521.1 502.428 522.781 503.043 523.984 504.273C525.188 505.504 525.789 507.204 525.789 509.373V511.396H515.932C515.977 512.581 516.328 513.507 516.984 514.172C517.641 514.837 518.561 515.17 519.746 515.17C520.667 515.17 521.537 515.074 522.357 514.883C523.178 514.691 524.035 514.386 524.928 513.967V517.193C524.199 517.558 523.419 517.827 522.59 518C521.76 518.182 520.749 518.273 519.555 518.273ZM538.887 518L538.08 515.922H537.971C537.269 516.806 536.544 517.421 535.797 517.768C535.059 518.105 534.092 518.273 532.898 518.273C531.431 518.273 530.273 517.854 529.426 517.016C528.587 516.177 528.168 514.983 528.168 513.434C528.168 511.811 528.733 510.617 529.863 509.852C531.003 509.077 532.716 508.648 535.004 508.566L537.656 508.484V507.814C537.656 506.265 536.863 505.49 535.277 505.49C534.056 505.49 532.62 505.859 530.971 506.598L529.59 503.781C531.349 502.861 533.299 502.4 535.441 502.4C537.492 502.4 539.064 502.847 540.158 503.74C541.252 504.633 541.799 505.992 541.799 507.814V518H538.887ZM537.656 510.918L536.043 510.973C534.831 511.009 533.928 511.228 533.336 511.629C532.743 512.03 532.447 512.641 532.447 513.461C532.447 514.637 533.122 515.225 534.471 515.225C535.437 515.225 536.207 514.947 536.781 514.391C537.365 513.835 537.656 513.096 537.656 512.176V510.918ZM550.275 518H546.105V496.727H550.275V518ZM558.834 518H554.664V496.727H558.834V518ZM561.035 502.715H565.602L568.486 511.314C568.732 512.062 568.901 512.946 568.992 513.967H569.074C569.174 513.028 569.37 512.144 569.662 511.314L572.492 502.715H576.963L570.496 519.955C569.904 521.55 569.056 522.744 567.953 523.537C566.859 524.33 565.579 524.727 564.111 524.727C563.391 524.727 562.685 524.649 561.992 524.494V521.186C562.493 521.304 563.04 521.363 563.633 521.363C564.371 521.363 565.014 521.135 565.561 520.68C566.117 520.233 566.549 519.554 566.859 518.643L567.105 517.891L561.035 502.715ZM600.123 518H595.953V509.072C595.953 507.969 595.766 507.145 595.393 506.598C595.028 506.042 594.449 505.764 593.656 505.764C592.59 505.764 591.815 506.156 591.332 506.939C590.849 507.723 590.607 509.013 590.607 510.809V518H586.438V502.715H589.623L590.184 504.67H590.416C590.826 503.968 591.419 503.421 592.193 503.029C592.968 502.628 593.857 502.428 594.859 502.428C597.147 502.428 598.697 503.175 599.508 504.67H599.877C600.287 503.959 600.889 503.408 601.682 503.016C602.484 502.624 603.386 502.428 604.389 502.428C606.12 502.428 607.428 502.874 608.312 503.768C609.206 504.652 609.652 506.074 609.652 508.033V518H605.469V509.072C605.469 507.969 605.282 507.145 604.908 506.598C604.544 506.042 603.965 505.764 603.172 505.764C602.151 505.764 601.385 506.128 600.875 506.857C600.374 507.587 600.123 508.744 600.123 510.33V518ZM620.275 505.395C619.391 505.395 618.699 505.677 618.197 506.242C617.696 506.798 617.409 507.591 617.336 508.621H623.188C623.169 507.591 622.9 506.798 622.381 506.242C621.861 505.677 621.16 505.395 620.275 505.395ZM620.863 518.273C618.402 518.273 616.479 517.594 615.094 516.236C613.708 514.878 613.016 512.955 613.016 510.467C613.016 507.906 613.654 505.928 614.93 504.533C616.215 503.13 617.988 502.428 620.248 502.428C622.408 502.428 624.09 503.043 625.293 504.273C626.496 505.504 627.098 507.204 627.098 509.373V511.396H617.24C617.286 512.581 617.637 513.507 618.293 514.172C618.949 514.837 619.87 515.17 621.055 515.17C621.975 515.17 622.846 515.074 623.666 514.883C624.486 514.691 625.343 514.386 626.236 513.967V517.193C625.507 517.558 624.728 517.827 623.898 518C623.069 518.182 622.057 518.273 620.863 518.273ZM640.195 518L639.389 515.922H639.279C638.577 516.806 637.853 517.421 637.105 517.768C636.367 518.105 635.401 518.273 634.207 518.273C632.74 518.273 631.582 517.854 630.734 517.016C629.896 516.177 629.477 514.983 629.477 513.434C629.477 511.811 630.042 510.617 631.172 509.852C632.311 509.077 634.025 508.648 636.312 508.566L638.965 508.484V507.814C638.965 506.265 638.172 505.49 636.586 505.49C635.365 505.49 633.929 505.859 632.279 506.598L630.898 503.781C632.658 502.861 634.608 502.4 636.75 502.4C638.801 502.4 640.373 502.847 641.467 503.74C642.561 504.633 643.107 505.992 643.107 507.814V518H640.195ZM638.965 510.918L637.352 510.973C636.139 511.009 635.237 511.228 634.645 511.629C634.052 512.03 633.756 512.641 633.756 513.461C633.756 514.637 634.43 515.225 635.779 515.225C636.745 515.225 637.516 514.947 638.09 514.391C638.673 513.835 638.965 513.096 638.965 512.176V510.918ZM661.523 518H657.354V509.072C657.354 507.969 657.158 507.145 656.766 506.598C656.374 506.042 655.749 505.764 654.893 505.764C653.726 505.764 652.883 506.156 652.363 506.939C651.844 507.714 651.584 509.004 651.584 510.809V518H647.414V502.715H650.6L651.16 504.67H651.393C651.857 503.932 652.495 503.376 653.307 503.002C654.127 502.619 655.057 502.428 656.096 502.428C657.873 502.428 659.222 502.911 660.143 503.877C661.063 504.834 661.523 506.219 661.523 508.033V518ZM667.402 511.369V510.357C667.402 509.482 667.589 508.721 667.963 508.074C668.337 507.427 669.02 506.739 670.014 506.01C670.971 505.326 671.6 504.77 671.9 504.342C672.21 503.913 672.365 503.435 672.365 502.906C672.365 502.314 672.146 501.863 671.709 501.553C671.271 501.243 670.661 501.088 669.877 501.088C668.51 501.088 666.951 501.535 665.201 502.428L663.711 499.434C665.743 498.294 667.899 497.725 670.178 497.725C672.055 497.725 673.546 498.176 674.648 499.078C675.76 499.98 676.316 501.184 676.316 502.688C676.316 503.69 676.089 504.556 675.633 505.285C675.177 506.014 674.311 506.835 673.035 507.746C672.16 508.393 671.604 508.885 671.367 509.223C671.139 509.56 671.025 510.002 671.025 510.549V511.369H667.402ZM666.965 516.045C666.965 515.279 667.17 514.701 667.58 514.309C667.99 513.917 668.587 513.721 669.371 513.721C670.128 513.721 670.711 513.921 671.121 514.322C671.54 514.723 671.75 515.298 671.75 516.045C671.75 516.765 671.54 517.335 671.121 517.754C670.702 518.164 670.118 518.369 669.371 518.369C668.605 518.369 668.013 518.169 667.594 517.768C667.174 517.357 666.965 516.783 666.965 516.045Z" fill="white"/>
<g id="kick_it">
<circle id="Ellipse" cx="362" cy="656" r="52" fill="#FE5444"/>
<path id="Click to begin" d="M345.055 645.234C342.508 645.234 340.523 644.543 339.102 643.16C337.68 641.77 336.969 639.824 336.969 637.324C336.969 634.621 337.652 632.578 339.02 631.195C340.387 629.805 342.414 629.109 345.102 629.109C346.734 629.109 348.488 629.309 350.363 629.707L350.434 633.141H349.66L349.309 631.102C348.762 630.766 348.125 630.508 347.398 630.328C346.68 630.141 345.945 630.047 345.195 630.047C343.188 630.047 341.723 630.637 340.801 631.816C339.879 632.996 339.418 634.824 339.418 637.301C339.418 639.582 339.898 641.324 340.859 642.527C341.828 643.73 343.234 644.332 345.078 644.332C345.969 644.332 346.809 644.227 347.598 644.016C348.387 643.797 349.012 643.508 349.473 643.148L349.906 640.805H350.668L350.598 644.496C348.879 644.988 347.031 645.234 345.055 645.234ZM356.293 644.18L358.18 644.473V645H352.473V644.473L354.348 644.18V629.156L352.473 628.875V628.348H356.293V644.18ZM363.113 630.387C363.113 630.73 362.988 631.027 362.738 631.277C362.488 631.527 362.188 631.652 361.836 631.652C361.492 631.652 361.195 631.527 360.945 631.277C360.695 631.027 360.57 630.73 360.57 630.387C360.57 630.035 360.695 629.734 360.945 629.484C361.195 629.234 361.492 629.109 361.836 629.109C362.188 629.109 362.488 629.234 362.738 629.484C362.988 629.734 363.113 630.035 363.113 630.387ZM362.996 644.18L364.883 644.473V645H359.176V644.473L361.051 644.18V634.805L359.492 634.512V633.984H362.996V644.18ZM375.266 644.332C374.883 644.613 374.355 644.836 373.684 645C373.012 645.156 372.324 645.234 371.621 645.234C368.051 645.234 366.266 643.293 366.266 639.41C366.266 637.574 366.719 636.164 367.625 635.18C368.539 634.188 369.844 633.691 371.539 633.691C372.594 633.691 373.746 633.812 374.996 634.055V637.125H374.352L373.848 635.18C373.199 634.812 372.422 634.629 371.516 634.629C369.422 634.629 368.375 636.223 368.375 639.41C368.375 641.066 368.691 642.25 369.324 642.961C369.965 643.664 370.953 644.016 372.289 644.016C373.43 644.016 374.422 643.887 375.266 643.629V644.332ZM380.047 639.691L384.559 634.828L383.41 634.512V633.984H387.301V634.512L385.93 634.781L382.789 637.992L386.82 644.203L388.016 644.473V645H383.504V644.473L384.512 644.18L381.488 639.434L380.047 641.016V644.18L381.219 644.473V645H376.707V644.473L378.102 644.18V629.156L376.473 628.875V628.348H380.047V639.691ZM326.902 673.234C326.152 673.234 325.59 673.012 325.215 672.566C324.848 672.121 324.664 671.496 324.664 670.691V662.969H323.223V662.441L324.688 661.984L325.871 659.488H326.609V661.984H329.129V662.969H326.609V670.48C326.609 670.988 326.723 671.371 326.949 671.629C327.184 671.887 327.488 672.016 327.863 672.016C328.316 672.016 328.867 671.953 329.516 671.828V672.59C329.242 672.777 328.848 672.93 328.332 673.047C327.816 673.172 327.34 673.234 326.902 673.234ZM340.754 667.434C340.754 671.301 339.035 673.234 335.598 673.234C333.941 673.234 332.691 672.738 331.848 671.746C331.004 670.754 330.582 669.316 330.582 667.434C330.582 665.574 331.004 664.152 331.848 663.168C332.691 662.184 333.973 661.691 335.691 661.691C337.363 661.691 338.625 662.176 339.477 663.145C340.328 664.105 340.754 665.535 340.754 667.434ZM338.645 667.434C338.645 665.746 338.398 664.523 337.906 663.766C337.414 663.008 336.645 662.629 335.598 662.629C334.574 662.629 333.832 662.992 333.371 663.719C332.918 664.445 332.691 665.684 332.691 667.434C332.691 669.207 332.922 670.465 333.383 671.207C333.852 671.941 334.59 672.309 335.598 672.309C336.629 672.309 337.395 671.926 337.895 671.16C338.395 670.395 338.645 669.152 338.645 667.434ZM356.645 667.188C356.645 665.75 356.395 664.68 355.895 663.977C355.395 663.273 354.621 662.922 353.574 662.922C353.113 662.922 352.656 662.965 352.203 663.051C351.75 663.129 351.422 663.215 351.219 663.309V672.039C351.875 672.164 352.66 672.227 353.574 672.227C354.652 672.227 355.434 671.805 355.918 670.961C356.402 670.117 356.645 668.859 356.645 667.188ZM349.273 657.156L347.668 656.875V656.348H351.219V660.285C351.219 660.707 351.195 661.48 351.148 662.605C351.93 661.996 352.914 661.691 354.102 661.691C355.602 661.691 356.75 662.148 357.547 663.062C358.352 663.969 358.754 665.344 358.754 667.188C358.754 669.164 358.312 670.668 357.43 671.699C356.555 672.723 355.285 673.234 353.621 673.234C352.949 673.234 352.207 673.16 351.395 673.012C350.59 672.863 349.883 672.668 349.273 672.426V657.156ZM362.715 667.457V667.668C362.715 668.746 362.832 669.586 363.066 670.188C363.309 670.781 363.676 671.234 364.168 671.547C364.668 671.859 365.32 672.016 366.125 672.016C366.547 672.016 367.047 671.98 367.625 671.91C368.203 671.84 368.68 671.762 369.055 671.676V672.332C368.68 672.574 368.168 672.785 367.52 672.965C366.879 673.145 366.223 673.234 365.551 673.234C363.84 673.234 362.586 672.773 361.789 671.852C361 670.93 360.605 669.449 360.605 667.41C360.605 665.488 361.008 664.055 361.812 663.109C362.617 662.164 363.766 661.691 365.258 661.691C368.078 661.691 369.488 663.293 369.488 666.496V667.457H362.715ZM365.258 662.629C364.445 662.629 363.82 662.957 363.383 663.613C362.953 664.27 362.738 665.238 362.738 666.52H367.449C367.449 665.121 367.27 664.125 366.91 663.531C366.551 662.93 366 662.629 365.258 662.629ZM380.527 665.465C380.527 666.73 380.148 667.688 379.391 668.336C378.633 668.984 377.543 669.309 376.121 669.309C375.48 669.309 374.887 669.25 374.34 669.133L373.602 670.668C373.625 670.801 373.777 670.926 374.059 671.043C374.34 671.16 374.691 671.219 375.113 671.219H378.371C379.559 671.219 380.438 671.477 381.008 671.992C381.586 672.508 381.875 673.219 381.875 674.125C381.875 674.945 381.645 675.66 381.184 676.27C380.73 676.879 380.062 677.348 379.18 677.676C378.297 678.012 377.227 678.18 375.969 678.18C374.469 678.18 373.324 677.949 372.535 677.488C371.754 677.027 371.363 676.371 371.363 675.52C371.363 675.105 371.504 674.695 371.785 674.289C372.066 673.891 372.582 673.422 373.332 672.883C372.887 672.734 372.512 672.48 372.207 672.121C371.902 671.762 371.75 671.375 371.75 670.961L373.602 668.875C372.367 668.297 371.75 667.16 371.75 665.465C371.75 664.262 372.129 663.332 372.887 662.676C373.652 662.02 374.762 661.691 376.215 661.691C376.504 661.691 376.875 661.723 377.328 661.785C377.781 661.84 378.129 661.906 378.371 661.984L380.961 660.684L381.371 661.188L379.742 662.875C380.266 663.461 380.527 664.324 380.527 665.465ZM380.047 674.488C380.047 674.043 379.91 673.695 379.637 673.445C379.363 673.195 378.949 673.07 378.395 673.07H374.129C373.801 673.352 373.531 673.707 373.32 674.137C373.117 674.574 373.016 674.98 373.016 675.355C373.016 676.027 373.258 676.508 373.742 676.797C374.227 677.094 374.969 677.242 375.969 677.242C377.273 677.242 378.277 677 378.98 676.516C379.691 676.031 380.047 675.355 380.047 674.488ZM376.145 668.418C376.996 668.418 377.598 668.176 377.949 667.691C378.309 667.199 378.488 666.457 378.488 665.465C378.488 664.426 378.305 663.688 377.938 663.25C377.57 662.805 376.98 662.582 376.168 662.582C375.348 662.582 374.746 662.805 374.363 663.25C373.98 663.695 373.789 664.434 373.789 665.465C373.789 666.496 373.977 667.246 374.352 667.715C374.727 668.184 375.324 668.418 376.145 668.418ZM386.773 658.387C386.773 658.73 386.648 659.027 386.398 659.277C386.148 659.527 385.848 659.652 385.496 659.652C385.152 659.652 384.855 659.527 384.605 659.277C384.355 659.027 384.23 658.73 384.23 658.387C384.23 658.035 384.355 657.734 384.605 657.484C384.855 657.234 385.152 657.109 385.496 657.109C385.848 657.109 386.148 657.234 386.398 657.484C386.648 657.734 386.773 658.035 386.773 658.387ZM386.656 672.18L388.543 672.473V673H382.836V672.473L384.711 672.18V662.805L383.152 662.512V661.984H386.656V672.18ZM392.809 662.875C393.41 662.531 394.051 662.25 394.73 662.031C395.41 661.805 395.977 661.691 396.43 661.691C397.383 661.691 398.102 661.969 398.586 662.523C399.07 663.078 399.312 663.883 399.312 664.938V672.18L400.648 672.473V673H395.902V672.473L397.367 672.18V665.148C397.367 664.5 397.207 663.992 396.887 663.625C396.574 663.25 396.086 663.062 395.422 663.062C394.719 663.062 393.855 663.176 392.832 663.402V672.18L394.32 672.473V673H389.562V672.473L390.887 672.18V662.805L389.562 662.512V661.984H392.703L392.809 662.875Z" fill="black"/>
</g>
<line id="Line" x1="164.5" y1="365" x2="164.5" y2="518" stroke="white"/>
<line id="Line_2" x1="592.5" y1="546" x2="592.5" y2="674" stroke="white"/>
<line id="Line_3" x1="445" y1="518.5" x2="164" y2="518.5" stroke="white"/>
<line id="Line_4" x1="592" y1="674.5" x2="445" y2="674.5" stroke="white"/>
<line id="Line_5" x1="483" y1="655.5" x2="425" y2="655.5" stroke="white"/>
<line id="Line_6" x1="465" y1="503.5" x2="362" y2="503.5" stroke="white"/>
</g>
</svg>
