<svg width="711" height="900" viewBox="0 0 711 900" fill="none" xmlns="http://www.w3.org/2000/svg">
<g id="cover_left_panel">
<rect id="Rectangle 2" width="711" height="900" fill="white"/>
<path id="science." d="M364.305 667.742C372.143 667.742 378.113 670.477 382.215 675.945C386.316 681.368 388.367 689.503 388.367 700.35C388.367 705.909 387.98 710.649 387.205 714.568C386.476 718.488 385.382 722.156 383.924 725.574L366.697 725.574C368.52 721.701 370.047 717.348 371.277 712.518C372.508 707.641 373.123 703.357 373.123 699.666C373.123 692.101 370.936 688.318 366.561 688.318C364.92 688.318 363.598 688.82 362.596 689.822C361.548 690.825 360.385 692.557 359.109 695.018C357.788 697.479 356.261 700.76 354.529 704.861C352.068 710.74 349.79 715.07 347.693 717.85C345.597 720.584 343.204 722.589 340.516 723.865C337.781 725.096 334.432 725.711 330.467 725.711C323.676 725.711 318.436 723.09 314.744 717.85C311.007 712.563 309.139 705.089 309.139 695.428C309.139 686.222 311.144 677.267 315.154 668.562L330.193 674.852C328.553 678.68 327.208 682.257 326.16 685.584C325.112 688.911 324.588 692.306 324.588 695.77C324.588 701.922 326.251 704.998 329.578 704.998C331.447 704.998 333.064 704.018 334.432 702.059C335.799 700.053 337.827 695.701 340.516 689.002C342.931 683.032 345.187 678.657 347.283 675.877C349.38 673.097 351.795 671.046 354.529 669.725C357.264 668.403 360.522 667.742 364.305 667.742ZM388.367 620.437C388.367 644.227 375.311 656.121 349.197 656.121C336.209 656.121 326.297 652.885 319.461 646.414C312.579 639.943 309.139 630.669 309.139 618.592C309.139 609.751 310.87 601.821 314.334 594.803L330.467 600.955C329.145 604.236 328.074 607.29 327.254 610.115C326.388 612.941 325.955 615.766 325.955 618.592C325.955 629.438 333.657 634.861 349.061 634.861C364.008 634.861 371.482 629.438 371.482 618.592C371.482 614.581 370.958 610.867 369.91 607.449C368.816 604.031 367.13 600.613 364.852 597.195L382.693 597.195C384.835 600.568 386.316 603.986 387.137 607.449C387.957 610.867 388.367 615.197 388.367 620.437ZM290.818 580.311C284.028 580.311 280.633 576.528 280.633 568.963C280.633 561.398 284.028 557.615 290.818 557.615C294.054 557.615 296.583 558.572 298.406 560.486C300.184 562.355 301.072 565.18 301.072 568.963C301.072 576.528 297.654 580.311 290.818 580.311ZM387 558.572L387 579.422L310.574 579.422L310.574 558.572L387 558.572ZM323.973 504.979C323.973 509.399 325.385 512.863 328.211 515.369C330.991 517.876 334.956 519.311 340.105 519.676L340.105 490.418C334.956 490.509 330.991 491.854 328.211 494.451C325.385 497.049 323.973 500.558 323.973 504.979ZM388.367 502.039C388.367 514.344 384.972 523.96 378.182 530.887C371.391 537.814 361.775 541.277 349.334 541.277C336.528 541.277 326.639 538.087 319.666 531.707C312.648 525.281 309.139 516.417 309.139 505.115C309.139 494.314 312.215 485.906 318.367 479.891C324.52 473.875 333.019 470.867 343.865 470.867L353.982 470.867L353.982 520.154C359.907 519.926 364.533 518.172 367.859 514.891C371.186 511.609 372.85 507.007 372.85 501.082C372.85 496.479 372.371 492.127 371.414 488.025C370.457 483.924 368.93 479.64 366.834 475.174L382.967 475.174C384.79 478.82 386.134 482.716 387 486.863C387.911 491.01 388.367 496.069 388.367 502.039ZM387 383.367L387 404.217L342.361 404.217C336.847 404.217 332.723 405.197 329.988 407.156C327.208 409.116 325.818 412.238 325.818 416.521C325.818 422.355 327.778 426.57 331.697 429.168C335.571 431.766 342.02 433.064 351.043 433.064L387 433.064L387 453.914L310.574 453.914L310.574 437.986L320.35 435.184L320.35 434.021C316.658 431.697 313.878 428.507 312.01 424.451C310.096 420.35 309.139 415.701 309.139 410.506C309.139 401.619 311.554 394.874 316.385 390.271C321.17 385.669 328.097 383.367 337.166 383.367L387 383.367ZM388.367 330.867C388.367 354.656 375.311 366.551 349.197 366.551C336.209 366.551 326.297 363.315 319.461 356.844C312.579 350.372 309.139 341.098 309.139 329.021C309.139 320.18 310.87 312.251 314.334 305.232L330.467 311.385C329.145 314.666 328.074 317.719 327.254 320.545C326.388 323.37 325.955 326.196 325.955 329.021C325.955 339.868 333.657 345.291 349.061 345.291C364.008 345.291 371.482 339.868 371.482 329.021C371.482 325.011 370.958 321.297 369.91 317.879C368.816 314.461 367.13 311.043 364.852 307.625L382.693 307.625C384.835 310.997 386.316 314.415 387.137 317.879C387.957 321.297 388.367 325.626 388.367 330.867ZM323.973 258.201C323.973 262.622 325.385 266.085 328.211 268.592C330.991 271.098 334.956 272.534 340.105 272.898L340.105 243.641C334.956 243.732 330.991 245.076 328.211 247.674C325.385 250.271 323.973 253.781 323.973 258.201ZM388.367 255.262C388.367 267.566 384.972 277.182 378.182 284.109C371.391 291.036 361.775 294.5 349.334 294.5C336.528 294.5 326.639 291.31 319.666 284.93C312.648 278.504 309.139 269.64 309.139 258.338C309.139 247.537 312.215 239.129 318.367 233.113C324.52 227.098 333.019 224.09 343.865 224.09L353.982 224.09L353.982 273.377C359.907 273.149 364.533 271.395 367.859 268.113C371.186 264.832 372.85 260.229 372.85 254.305C372.85 249.702 372.371 245.35 371.414 241.248C370.457 237.146 368.93 232.863 366.834 228.396L382.967 228.396C384.79 232.042 386.134 235.939 387 240.086C387.911 244.233 388.367 249.292 388.367 255.262ZM377.225 210.076C373.396 210.076 370.503 209.051 368.543 207C366.583 204.949 365.603 201.964 365.603 198.045C365.603 194.262 366.606 191.346 368.611 189.295C370.617 187.199 373.488 186.15 377.225 186.15C380.825 186.15 383.673 187.199 385.77 189.295C387.82 191.391 388.846 194.308 388.846 198.045C388.846 201.873 387.843 204.835 385.838 206.932C383.787 209.028 380.916 210.076 377.225 210.076Z" fill="black"/>
<path id="weekly" d="M413.483 203L412.728 199.563L411.708 195.222H411.646L409.854 203H406.971L404.176 193.174H406.848L407.981 197.524C408.163 198.304 408.348 199.379 408.535 200.75H408.588C408.611 200.305 408.714 199.599 408.896 198.632L409.036 197.885L410.249 193.174H413.202L414.354 197.885C414.377 198.014 414.412 198.204 414.459 198.456C414.512 198.708 414.562 198.978 414.608 199.265C414.655 199.546 414.696 199.824 414.731 200.1C414.772 200.369 414.796 200.586 414.802 200.75H414.854C414.907 200.328 415.001 199.751 415.136 199.019C415.271 198.28 415.367 197.782 415.426 197.524L416.604 193.174H419.231L416.401 203H413.483ZM424.892 194.896C424.323 194.896 423.878 195.078 423.556 195.441C423.233 195.799 423.049 196.309 423.002 196.971H426.764C426.752 196.309 426.579 195.799 426.245 195.441C425.911 195.078 425.46 194.896 424.892 194.896ZM425.27 203.176C423.688 203.176 422.451 202.739 421.561 201.866C420.67 200.993 420.225 199.757 420.225 198.157C420.225 196.511 420.635 195.239 421.455 194.343C422.281 193.44 423.421 192.989 424.874 192.989C426.263 192.989 427.344 193.385 428.117 194.176C428.891 194.967 429.277 196.06 429.277 197.454V198.755H422.94C422.97 199.517 423.195 200.111 423.617 200.539C424.039 200.967 424.631 201.181 425.393 201.181C425.984 201.181 426.544 201.119 427.071 200.996C427.599 200.873 428.149 200.677 428.724 200.407V202.481C428.255 202.716 427.754 202.889 427.221 203C426.688 203.117 426.037 203.176 425.27 203.176ZM435.526 194.896C434.958 194.896 434.513 195.078 434.19 195.441C433.868 195.799 433.684 196.309 433.637 196.971H437.398C437.387 196.309 437.214 195.799 436.88 195.441C436.546 195.078 436.095 194.896 435.526 194.896ZM435.904 203.176C434.322 203.176 433.086 202.739 432.195 201.866C431.305 200.993 430.859 199.757 430.859 198.157C430.859 196.511 431.27 195.239 432.09 194.343C432.916 193.44 434.056 192.989 435.509 192.989C436.897 192.989 437.979 193.385 438.752 194.176C439.525 194.967 439.912 196.06 439.912 197.454V198.755H433.575C433.604 199.517 433.83 200.111 434.252 200.539C434.674 200.967 435.266 201.181 436.027 201.181C436.619 201.181 437.179 201.119 437.706 200.996C438.233 200.873 438.784 200.677 439.358 200.407V202.481C438.89 202.716 438.389 202.889 437.855 203C437.322 203.117 436.672 203.176 435.904 203.176ZM444.667 197.656L445.836 196.162L448.587 193.174H451.61L447.708 197.437L451.848 203H448.754L445.924 199.019L444.772 199.941V203H442.092V189.324H444.772V195.424L444.632 197.656H444.667ZM455.935 203H453.254V189.324H455.935V203ZM457.35 193.174H460.285L462.14 198.702C462.298 199.183 462.406 199.751 462.465 200.407H462.518C462.582 199.804 462.708 199.235 462.896 198.702L464.715 193.174H467.589L463.432 204.257C463.051 205.282 462.506 206.05 461.797 206.56C461.094 207.069 460.271 207.324 459.327 207.324C458.864 207.324 458.41 207.274 457.965 207.175V205.048C458.287 205.124 458.639 205.162 459.02 205.162C459.494 205.162 459.907 205.016 460.259 204.723C460.616 204.436 460.895 203.999 461.094 203.413L461.252 202.93L457.35 193.174Z" fill="black"/>
<path id="A visual exploration of topics in science" d="M29.4834 876L28.5518 872.941H23.8672L22.9355 876H20L24.5352 863.098H27.8662L32.4189 876H29.4834ZM27.9014 870.656C27.04 867.885 26.5537 866.317 26.4424 865.954C26.3369 865.591 26.2607 865.304 26.2139 865.093C26.0205 865.843 25.4668 867.697 24.5527 870.656H27.9014ZM40.8477 876L37.1035 866.174H39.9072L41.8057 871.772C42.0166 872.481 42.1484 873.152 42.2012 873.785H42.2539C42.2832 873.223 42.415 872.552 42.6494 871.772L44.5391 866.174H47.3428L43.5986 876H40.8477ZM48.6436 863.634C48.6436 862.761 49.1299 862.324 50.1025 862.324C51.0752 862.324 51.5615 862.761 51.5615 863.634C51.5615 864.05 51.4385 864.375 51.1924 864.609C50.9521 864.838 50.5889 864.952 50.1025 864.952C49.1299 864.952 48.6436 864.513 48.6436 863.634ZM51.4385 876H48.7578V866.174H51.4385V876ZM61.1152 873.082C61.1152 874.09 60.7637 874.857 60.0605 875.385C59.3633 875.912 58.3174 876.176 56.9229 876.176C56.208 876.176 55.5986 876.126 55.0947 876.026C54.5908 875.933 54.1191 875.792 53.6797 875.604V873.39C54.1777 873.624 54.7373 873.82 55.3584 873.979C55.9854 874.137 56.5361 874.216 57.0107 874.216C57.9834 874.216 58.4697 873.935 58.4697 873.372C58.4697 873.161 58.4053 872.991 58.2764 872.862C58.1475 872.728 57.9248 872.578 57.6084 872.414C57.292 872.244 56.8701 872.048 56.3428 871.825C55.5869 871.509 55.0303 871.216 54.6729 870.946C54.3213 870.677 54.0635 870.369 53.8994 870.023C53.7412 869.672 53.6621 869.241 53.6621 868.731C53.6621 867.858 53.999 867.185 54.6729 866.71C55.3525 866.229 56.3135 865.989 57.5557 865.989C58.7393 865.989 59.8906 866.247 61.0098 866.763L60.2012 868.696C59.709 868.485 59.249 868.312 58.8213 868.178C58.3936 868.043 57.957 867.976 57.5117 867.976C56.7207 867.976 56.3252 868.189 56.3252 868.617C56.3252 868.857 56.4512 869.065 56.7031 869.241C56.9609 869.417 57.5205 869.678 58.3818 870.023C59.1494 870.334 59.7119 870.624 60.0693 870.894C60.4268 871.163 60.6904 871.474 60.8604 871.825C61.0303 872.177 61.1152 872.596 61.1152 873.082ZM70.168 876L69.8076 874.743H69.667C69.3799 875.2 68.9727 875.555 68.4453 875.807C67.918 876.053 67.3174 876.176 66.6436 876.176C65.4893 876.176 64.6191 875.868 64.0332 875.253C63.4473 874.632 63.1543 873.741 63.1543 872.581V866.174H65.835V871.913C65.835 872.622 65.9609 873.155 66.2129 873.513C66.4648 873.864 66.8662 874.04 67.417 874.04C68.167 874.04 68.709 873.791 69.043 873.293C69.377 872.789 69.5439 871.957 69.5439 870.797V866.174H72.2246V876H70.168ZM81.2773 876L80.7588 874.664H80.6885C80.2373 875.232 79.7715 875.628 79.291 875.851C78.8164 876.067 78.1953 876.176 77.4277 876.176C76.4844 876.176 75.7402 875.906 75.1953 875.367C74.6562 874.828 74.3867 874.061 74.3867 873.064C74.3867 872.021 74.75 871.254 75.4766 870.762C76.209 870.264 77.3105 869.988 78.7812 869.936L80.4863 869.883V869.452C80.4863 868.456 79.9766 867.958 78.957 867.958C78.1719 867.958 77.249 868.195 76.1885 868.67L75.3008 866.859C76.4316 866.268 77.6855 865.972 79.0625 865.972C80.3809 865.972 81.3916 866.259 82.0947 866.833C82.7979 867.407 83.1494 868.28 83.1494 869.452V876H81.2773ZM80.4863 871.447L79.4492 871.482C78.6699 871.506 78.0898 871.646 77.709 871.904C77.3281 872.162 77.1377 872.555 77.1377 873.082C77.1377 873.838 77.5713 874.216 78.4385 874.216C79.0596 874.216 79.5547 874.037 79.9238 873.68C80.2988 873.322 80.4863 872.848 80.4863 872.256V871.447ZM88.5986 876H85.918V862.324H88.5986V876ZM100.165 867.896C99.5967 867.896 99.1514 868.078 98.8291 868.441C98.5068 868.799 98.3223 869.309 98.2754 869.971H102.037C102.025 869.309 101.853 868.799 101.519 868.441C101.185 868.078 100.733 867.896 100.165 867.896ZM100.543 876.176C98.9609 876.176 97.7246 875.739 96.834 874.866C95.9434 873.993 95.498 872.757 95.498 871.157C95.498 869.511 95.9082 868.239 96.7285 867.343C97.5547 866.44 98.6943 865.989 100.147 865.989C101.536 865.989 102.617 866.385 103.391 867.176C104.164 867.967 104.551 869.06 104.551 870.454V871.755H98.2139C98.2432 872.517 98.4688 873.111 98.8906 873.539C99.3125 873.967 99.9043 874.181 100.666 874.181C101.258 874.181 101.817 874.119 102.345 873.996C102.872 873.873 103.423 873.677 103.997 873.407V875.481C103.528 875.716 103.027 875.889 102.494 876C101.961 876.117 101.311 876.176 100.543 876.176ZM108.743 870.981L105.579 866.174H108.62L110.527 869.303L112.452 866.174H115.493L112.294 870.981L115.643 876H112.593L110.527 872.634L108.453 876H105.412L108.743 870.981ZM122.533 876.176C121.379 876.176 120.474 875.757 119.817 874.919H119.677C119.771 875.739 119.817 876.214 119.817 876.343V880.324H117.137V866.174H119.316L119.694 867.448H119.817C120.444 866.476 121.373 865.989 122.604 865.989C123.764 865.989 124.672 866.438 125.328 867.334C125.984 868.23 126.312 869.476 126.312 871.069C126.312 872.118 126.157 873.029 125.847 873.803C125.542 874.576 125.105 875.165 124.537 875.569C123.969 875.974 123.301 876.176 122.533 876.176ZM121.742 868.134C121.08 868.134 120.597 868.339 120.292 868.749C119.987 869.153 119.829 869.824 119.817 870.762V871.052C119.817 872.106 119.973 872.862 120.283 873.319C120.6 873.776 121.098 874.005 121.777 874.005C122.979 874.005 123.579 873.015 123.579 871.034C123.579 870.067 123.43 869.344 123.131 868.863C122.838 868.377 122.375 868.134 121.742 868.134ZM131.208 876H128.527V862.324H131.208V876ZM136.165 871.069C136.165 872.042 136.323 872.777 136.64 873.275C136.962 873.773 137.483 874.022 138.204 874.022C138.919 874.022 139.432 873.776 139.742 873.284C140.059 872.786 140.217 872.048 140.217 871.069C140.217 870.097 140.059 869.367 139.742 868.881C139.426 868.395 138.907 868.151 138.187 868.151C137.472 868.151 136.956 868.395 136.64 868.881C136.323 869.361 136.165 870.091 136.165 871.069ZM142.959 871.069C142.959 872.669 142.537 873.92 141.693 874.822C140.85 875.725 139.675 876.176 138.169 876.176C137.226 876.176 136.394 875.971 135.673 875.561C134.952 875.145 134.398 874.55 134.012 873.776C133.625 873.003 133.432 872.101 133.432 871.069C133.432 869.464 133.851 868.216 134.688 867.325C135.526 866.435 136.704 865.989 138.222 865.989C139.165 865.989 139.997 866.194 140.718 866.604C141.438 867.015 141.992 867.604 142.379 868.371C142.766 869.139 142.959 870.038 142.959 871.069ZM150.658 865.989C151.021 865.989 151.323 866.016 151.563 866.068L151.361 868.582C151.145 868.523 150.881 868.494 150.57 868.494C149.715 868.494 149.047 868.714 148.566 869.153C148.092 869.593 147.854 870.208 147.854 870.999V876H145.174V866.174H147.204L147.6 867.826H147.731C148.036 867.275 148.446 866.833 148.962 866.499C149.483 866.159 150.049 865.989 150.658 865.989ZM159.588 876L159.069 874.664H158.999C158.548 875.232 158.082 875.628 157.602 875.851C157.127 876.067 156.506 876.176 155.738 876.176C154.795 876.176 154.051 875.906 153.506 875.367C152.967 874.828 152.697 874.061 152.697 873.064C152.697 872.021 153.061 871.254 153.787 870.762C154.52 870.264 155.621 869.988 157.092 869.936L158.797 869.883V869.452C158.797 868.456 158.287 867.958 157.268 867.958C156.482 867.958 155.56 868.195 154.499 868.67L153.611 866.859C154.742 866.268 155.996 865.972 157.373 865.972C158.691 865.972 159.702 866.259 160.405 866.833C161.108 867.407 161.46 868.28 161.46 869.452V876H159.588ZM158.797 871.447L157.76 871.482C156.98 871.506 156.4 871.646 156.02 871.904C155.639 872.162 155.448 872.555 155.448 873.082C155.448 873.838 155.882 874.216 156.749 874.216C157.37 874.216 157.865 874.037 158.234 873.68C158.609 873.322 158.797 872.848 158.797 872.256V871.447ZM168.368 874.04C168.837 874.04 169.399 873.938 170.056 873.732V875.728C169.388 876.026 168.567 876.176 167.595 876.176C166.522 876.176 165.74 875.906 165.248 875.367C164.762 874.822 164.519 874.008 164.519 872.924V868.187H163.235V867.053L164.712 866.156L165.485 864.082H167.199V866.174H169.95V868.187H167.199V872.924C167.199 873.305 167.305 873.586 167.516 873.768C167.732 873.949 168.017 874.04 168.368 874.04ZM171.937 863.634C171.937 862.761 172.423 862.324 173.396 862.324C174.368 862.324 174.854 862.761 174.854 863.634C174.854 864.05 174.731 864.375 174.485 864.609C174.245 864.838 173.882 864.952 173.396 864.952C172.423 864.952 171.937 864.513 171.937 863.634ZM174.731 876H172.051V866.174H174.731V876ZM179.688 871.069C179.688 872.042 179.847 872.777 180.163 873.275C180.485 873.773 181.007 874.022 181.728 874.022C182.442 874.022 182.955 873.776 183.266 873.284C183.582 872.786 183.74 872.048 183.74 871.069C183.74 870.097 183.582 869.367 183.266 868.881C182.949 868.395 182.431 868.151 181.71 868.151C180.995 868.151 180.479 868.395 180.163 868.881C179.847 869.361 179.688 870.091 179.688 871.069ZM186.482 871.069C186.482 872.669 186.061 873.92 185.217 874.822C184.373 875.725 183.198 876.176 181.692 876.176C180.749 876.176 179.917 875.971 179.196 875.561C178.476 875.145 177.922 874.55 177.535 873.776C177.148 873.003 176.955 872.101 176.955 871.069C176.955 869.464 177.374 868.216 178.212 867.325C179.05 866.435 180.228 865.989 181.745 865.989C182.688 865.989 183.521 866.194 184.241 866.604C184.962 867.015 185.516 867.604 185.902 868.371C186.289 869.139 186.482 870.038 186.482 871.069ZM197.768 876H195.087V870.261C195.087 869.552 194.961 869.021 194.709 868.67C194.457 868.312 194.056 868.134 193.505 868.134C192.755 868.134 192.213 868.386 191.879 868.89C191.545 869.388 191.378 870.217 191.378 871.377V876H188.697V866.174H190.745L191.105 867.431H191.255C191.554 866.956 191.964 866.599 192.485 866.358C193.013 866.112 193.61 865.989 194.278 865.989C195.421 865.989 196.288 866.3 196.88 866.921C197.472 867.536 197.768 868.427 197.768 869.593V876ZM207.339 871.069C207.339 872.042 207.497 872.777 207.813 873.275C208.136 873.773 208.657 874.022 209.378 874.022C210.093 874.022 210.605 873.776 210.916 873.284C211.232 872.786 211.391 872.048 211.391 871.069C211.391 870.097 211.232 869.367 210.916 868.881C210.6 868.395 210.081 868.151 209.36 868.151C208.646 868.151 208.13 868.395 207.813 868.881C207.497 869.361 207.339 870.091 207.339 871.069ZM214.133 871.069C214.133 872.669 213.711 873.92 212.867 874.822C212.023 875.725 210.849 876.176 209.343 876.176C208.399 876.176 207.567 875.971 206.847 875.561C206.126 875.145 205.572 874.55 205.186 873.776C204.799 873.003 204.605 872.101 204.605 871.069C204.605 869.464 205.024 868.216 205.862 867.325C206.7 866.435 207.878 865.989 209.396 865.989C210.339 865.989 211.171 866.194 211.892 866.604C212.612 867.015 213.166 867.604 213.553 868.371C213.939 869.139 214.133 870.038 214.133 871.069ZM221.779 868.187H219.459V876H216.778V868.187H215.302V866.895L216.778 866.174V865.453C216.778 864.334 217.054 863.517 217.604 863.001C218.155 862.485 219.037 862.228 220.25 862.228C221.176 862.228 221.999 862.365 222.72 862.641L222.034 864.609C221.495 864.439 220.997 864.354 220.54 864.354C220.159 864.354 219.884 864.469 219.714 864.697C219.544 864.92 219.459 865.207 219.459 865.559V866.174H221.779V868.187ZM232.142 874.04C232.61 874.04 233.173 873.938 233.829 873.732V875.728C233.161 876.026 232.341 876.176 231.368 876.176C230.296 876.176 229.514 875.906 229.021 875.367C228.535 874.822 228.292 874.008 228.292 872.924V868.187H227.009V867.053L228.485 866.156L229.259 864.082H230.973V866.174H233.724V868.187H230.973V872.924C230.973 873.305 231.078 873.586 231.289 873.768C231.506 873.949 231.79 874.04 232.142 874.04ZM237.96 871.069C237.96 872.042 238.118 872.777 238.435 873.275C238.757 873.773 239.278 874.022 239.999 874.022C240.714 874.022 241.227 873.776 241.537 873.284C241.854 872.786 242.012 872.048 242.012 871.069C242.012 870.097 241.854 869.367 241.537 868.881C241.221 868.395 240.702 868.151 239.981 868.151C239.267 868.151 238.751 868.395 238.435 868.881C238.118 869.361 237.96 870.091 237.96 871.069ZM244.754 871.069C244.754 872.669 244.332 873.92 243.488 874.822C242.645 875.725 241.47 876.176 239.964 876.176C239.021 876.176 238.188 875.971 237.468 875.561C236.747 875.145 236.193 874.55 235.807 873.776C235.42 873.003 235.227 872.101 235.227 871.069C235.227 869.464 235.646 868.216 236.483 867.325C237.321 866.435 238.499 865.989 240.017 865.989C240.96 865.989 241.792 866.194 242.513 866.604C243.233 867.015 243.787 867.604 244.174 868.371C244.561 869.139 244.754 870.038 244.754 871.069ZM252.365 876.176C251.211 876.176 250.306 875.757 249.649 874.919H249.509C249.603 875.739 249.649 876.214 249.649 876.343V880.324H246.969V866.174H249.148L249.526 867.448H249.649C250.276 866.476 251.205 865.989 252.436 865.989C253.596 865.989 254.504 866.438 255.16 867.334C255.816 868.23 256.145 869.476 256.145 871.069C256.145 872.118 255.989 873.029 255.679 873.803C255.374 874.576 254.938 875.165 254.369 875.569C253.801 875.974 253.133 876.176 252.365 876.176ZM251.574 868.134C250.912 868.134 250.429 868.339 250.124 868.749C249.819 869.153 249.661 869.824 249.649 870.762V871.052C249.649 872.106 249.805 872.862 250.115 873.319C250.432 873.776 250.93 874.005 251.609 874.005C252.811 874.005 253.411 873.015 253.411 871.034C253.411 870.067 253.262 869.344 252.963 868.863C252.67 868.377 252.207 868.134 251.574 868.134ZM258.245 863.634C258.245 862.761 258.731 862.324 259.704 862.324C260.677 862.324 261.163 862.761 261.163 863.634C261.163 864.05 261.04 864.375 260.794 864.609C260.554 864.838 260.19 864.952 259.704 864.952C258.731 864.952 258.245 864.513 258.245 863.634ZM261.04 876H258.359V866.174H261.04V876ZM267.852 876.176C264.793 876.176 263.264 874.497 263.264 871.14C263.264 869.47 263.68 868.195 264.512 867.316C265.344 866.432 266.536 865.989 268.089 865.989C269.226 865.989 270.245 866.212 271.147 866.657L270.356 868.731C269.935 868.562 269.542 868.424 269.179 868.318C268.815 868.207 268.452 868.151 268.089 868.151C266.694 868.151 265.997 869.142 265.997 871.122C265.997 873.044 266.694 874.005 268.089 874.005C268.604 874.005 269.082 873.938 269.521 873.803C269.961 873.662 270.4 873.445 270.84 873.152V875.446C270.406 875.722 269.967 875.912 269.521 876.018C269.082 876.123 268.525 876.176 267.852 876.176ZM279.98 873.082C279.98 874.09 279.629 874.857 278.926 875.385C278.229 875.912 277.183 876.176 275.788 876.176C275.073 876.176 274.464 876.126 273.96 876.026C273.456 875.933 272.984 875.792 272.545 875.604V873.39C273.043 873.624 273.603 873.82 274.224 873.979C274.851 874.137 275.401 874.216 275.876 874.216C276.849 874.216 277.335 873.935 277.335 873.372C277.335 873.161 277.271 872.991 277.142 872.862C277.013 872.728 276.79 872.578 276.474 872.414C276.157 872.244 275.735 872.048 275.208 871.825C274.452 871.509 273.896 871.216 273.538 870.946C273.187 870.677 272.929 870.369 272.765 870.023C272.606 869.672 272.527 869.241 272.527 868.731C272.527 867.858 272.864 867.185 273.538 866.71C274.218 866.229 275.179 865.989 276.421 865.989C277.604 865.989 278.756 866.247 279.875 866.763L279.066 868.696C278.574 868.485 278.114 868.312 277.687 868.178C277.259 868.043 276.822 867.976 276.377 867.976C275.586 867.976 275.19 868.189 275.19 868.617C275.19 868.857 275.316 869.065 275.568 869.241C275.826 869.417 276.386 869.678 277.247 870.023C278.015 870.334 278.577 870.624 278.935 870.894C279.292 871.163 279.556 871.474 279.726 871.825C279.896 872.177 279.98 872.596 279.98 873.082ZM286.634 863.634C286.634 862.761 287.12 862.324 288.093 862.324C289.065 862.324 289.552 862.761 289.552 863.634C289.552 864.05 289.429 864.375 289.183 864.609C288.942 864.838 288.579 864.952 288.093 864.952C287.12 864.952 286.634 864.513 286.634 863.634ZM289.429 876H286.748V866.174H289.429V876ZM301.32 876H298.64V870.261C298.64 869.552 298.514 869.021 298.262 868.67C298.01 868.312 297.608 868.134 297.058 868.134C296.308 868.134 295.766 868.386 295.432 868.89C295.098 869.388 294.931 870.217 294.931 871.377V876H292.25V866.174H294.298L294.658 867.431H294.808C295.106 866.956 295.517 866.599 296.038 866.358C296.565 866.112 297.163 865.989 297.831 865.989C298.974 865.989 299.841 866.3 300.433 866.921C301.024 867.536 301.32 868.427 301.32 869.593V876ZM315.611 873.082C315.611 874.09 315.26 874.857 314.557 875.385C313.859 875.912 312.813 876.176 311.419 876.176C310.704 876.176 310.095 876.126 309.591 876.026C309.087 875.933 308.615 875.792 308.176 875.604V873.39C308.674 873.624 309.233 873.82 309.854 873.979C310.481 874.137 311.032 874.216 311.507 874.216C312.479 874.216 312.966 873.935 312.966 873.372C312.966 873.161 312.901 872.991 312.772 872.862C312.644 872.728 312.421 872.578 312.104 872.414C311.788 872.244 311.366 872.048 310.839 871.825C310.083 871.509 309.526 871.216 309.169 870.946C308.817 870.677 308.56 870.369 308.396 870.023C308.237 869.672 308.158 869.241 308.158 868.731C308.158 867.858 308.495 867.185 309.169 866.71C309.849 866.229 310.81 865.989 312.052 865.989C313.235 865.989 314.387 866.247 315.506 866.763L314.697 868.696C314.205 868.485 313.745 868.312 313.317 868.178C312.89 868.043 312.453 867.976 312.008 867.976C311.217 867.976 310.821 868.189 310.821 868.617C310.821 868.857 310.947 869.065 311.199 869.241C311.457 869.417 312.017 869.678 312.878 870.023C313.646 870.334 314.208 870.624 314.565 870.894C314.923 871.163 315.187 871.474 315.356 871.825C315.526 872.177 315.611 872.596 315.611 873.082ZM321.693 876.176C318.635 876.176 317.105 874.497 317.105 871.14C317.105 869.47 317.521 868.195 318.354 867.316C319.186 866.432 320.378 865.989 321.931 865.989C323.067 865.989 324.087 866.212 324.989 866.657L324.198 868.731C323.776 868.562 323.384 868.424 323.021 868.318C322.657 868.207 322.294 868.151 321.931 868.151C320.536 868.151 319.839 869.142 319.839 871.122C319.839 873.044 320.536 874.005 321.931 874.005C322.446 874.005 322.924 873.938 323.363 873.803C323.803 873.662 324.242 873.445 324.682 873.152V875.446C324.248 875.722 323.809 875.912 323.363 876.018C322.924 876.123 322.367 876.176 321.693 876.176ZM326.853 863.634C326.853 862.761 327.339 862.324 328.312 862.324C329.284 862.324 329.771 862.761 329.771 863.634C329.771 864.05 329.647 864.375 329.401 864.609C329.161 864.838 328.798 864.952 328.312 864.952C327.339 864.952 326.853 864.513 326.853 863.634ZM329.647 876H326.967V866.174H329.647V876ZM336.538 867.896C335.97 867.896 335.524 868.078 335.202 868.441C334.88 868.799 334.695 869.309 334.648 869.971H338.41C338.398 869.309 338.226 868.799 337.892 868.441C337.558 868.078 337.106 867.896 336.538 867.896ZM336.916 876.176C335.334 876.176 334.098 875.739 333.207 874.866C332.316 873.993 331.871 872.757 331.871 871.157C331.871 869.511 332.281 868.239 333.102 867.343C333.928 866.44 335.067 865.989 336.521 865.989C337.909 865.989 338.99 866.385 339.764 867.176C340.537 867.967 340.924 869.06 340.924 870.454V871.755H334.587C334.616 872.517 334.842 873.111 335.264 873.539C335.686 873.967 336.277 874.181 337.039 874.181C337.631 874.181 338.19 874.119 338.718 873.996C339.245 873.873 339.796 873.677 340.37 873.407V875.481C339.901 875.716 339.4 875.889 338.867 876C338.334 876.117 337.684 876.176 336.916 876.176ZM352.174 876H349.493V870.261C349.493 869.552 349.367 869.021 349.115 868.67C348.863 868.312 348.462 868.134 347.911 868.134C347.161 868.134 346.619 868.386 346.285 868.89C345.951 869.388 345.784 870.217 345.784 871.377V876H343.104V866.174H345.151L345.512 867.431H345.661C345.96 866.956 346.37 866.599 346.892 866.358C347.419 866.112 348.017 865.989 348.685 865.989C349.827 865.989 350.694 866.3 351.286 866.921C351.878 867.536 352.174 868.427 352.174 869.593V876ZM358.924 876.176C355.865 876.176 354.336 874.497 354.336 871.14C354.336 869.47 354.752 868.195 355.584 867.316C356.416 866.432 357.608 865.989 359.161 865.989C360.298 865.989 361.317 866.212 362.22 866.657L361.429 868.731C361.007 868.562 360.614 868.424 360.251 868.318C359.888 868.207 359.524 868.151 359.161 868.151C357.767 868.151 357.069 869.142 357.069 871.122C357.069 873.044 357.767 874.005 359.161 874.005C359.677 874.005 360.154 873.938 360.594 873.803C361.033 873.662 361.473 873.445 361.912 873.152V875.446C361.479 875.722 361.039 875.912 360.594 876.018C360.154 876.123 359.598 876.176 358.924 876.176ZM368.267 867.896C367.698 867.896 367.253 868.078 366.931 868.441C366.608 868.799 366.424 869.309 366.377 869.971H370.139C370.127 869.309 369.954 868.799 369.62 868.441C369.286 868.078 368.835 867.896 368.267 867.896ZM368.645 876.176C367.062 876.176 365.826 875.739 364.936 874.866C364.045 873.993 363.6 872.757 363.6 871.157C363.6 869.511 364.01 868.239 364.83 867.343C365.656 866.44 366.796 865.989 368.249 865.989C369.638 865.989 370.719 866.385 371.492 867.176C372.266 867.967 372.652 869.06 372.652 870.454V871.755H366.315C366.345 872.517 366.57 873.111 366.992 873.539C367.414 873.967 368.006 874.181 368.768 874.181C369.359 874.181 369.919 874.119 370.446 873.996C370.974 873.873 371.524 873.677 372.099 873.407V875.481C371.63 875.716 371.129 875.889 370.596 876C370.062 876.117 369.412 876.176 368.645 876.176Z" fill="black"/>
</g>
</svg>
