<svg width="1440" height="900" viewBox="0 0 1440 900" fill="none" xmlns="http://www.w3.org/2000/svg">
<rect width="1440" height="900" fill="white"/>
<rect x="720" width="720" height="900" fill="black"/>
<path d="M375.547 613.922C382.266 613.922 387.383 616.266 390.898 620.953C394.414 625.602 396.172 632.574 396.172 641.871C396.172 646.637 395.84 650.699 395.176 654.059C394.551 657.418 393.613 660.562 392.363 663.492L377.598 663.492C379.16 660.172 380.469 656.441 381.523 652.301C382.578 648.121 383.105 644.449 383.105 641.285C383.105 634.801 381.23 631.559 377.48 631.559C376.074 631.559 374.941 631.988 374.082 632.848C373.184 633.707 372.187 635.191 371.094 637.301C369.961 639.41 368.652 642.223 367.168 645.738C365.059 650.777 363.105 654.488 361.309 656.871C359.512 659.215 357.461 660.934 355.156 662.027C352.812 663.082 349.941 663.609 346.543 663.609C340.723 663.609 336.23 661.363 333.066 656.871C329.863 652.34 328.262 645.934 328.262 637.652C328.262 629.762 329.98 622.086 333.418 614.625L346.309 620.016C344.902 623.297 343.75 626.363 342.852 629.215C341.953 632.066 341.504 634.977 341.504 637.945C341.504 643.219 342.93 645.855 345.781 645.855C347.383 645.855 348.77 645.016 349.941 643.336C351.113 641.617 352.852 637.887 355.156 632.145C357.227 627.027 359.16 623.277 360.957 620.895C362.754 618.512 364.824 616.754 367.168 615.621C369.512 614.488 372.305 613.922 375.547 613.922ZM396.172 573.375C396.172 593.766 384.98 603.961 362.598 603.961C351.465 603.961 342.969 601.187 337.109 595.641C331.211 590.094 328.262 582.145 328.262 571.793C328.262 564.215 329.746 557.418 332.715 551.402L346.543 556.676C345.41 559.488 344.492 562.105 343.789 564.527C343.047 566.949 342.676 569.371 342.676 571.793C342.676 581.09 349.277 585.738 362.48 585.738C375.293 585.738 381.699 581.09 381.699 571.793C381.699 568.355 381.25 565.172 380.352 562.242C379.414 559.312 377.969 556.383 376.016 553.453L391.309 553.453C393.145 556.344 394.414 559.273 395.117 562.242C395.82 565.172 396.172 568.883 396.172 573.375ZM312.559 538.98C306.738 538.98 303.828 535.738 303.828 529.254C303.828 522.77 306.738 519.527 312.559 519.527C315.332 519.527 317.5 520.348 319.062 521.988C320.586 523.59 321.348 526.012 321.348 529.254C321.348 535.738 318.418 538.98 312.559 538.98ZM395 520.348L395 538.219L329.492 538.219L329.492 520.348L395 520.348ZM340.977 474.41C340.977 478.199 342.187 481.168 344.609 483.316C346.992 485.465 350.391 486.695 354.805 487.008L354.805 461.93C350.391 462.008 346.992 463.16 344.609 465.387C342.187 467.613 340.977 470.621 340.977 474.41ZM396.172 471.891C396.172 482.437 393.262 490.68 387.441 496.617C381.621 502.555 373.379 505.523 362.715 505.523C351.738 505.523 343.262 502.789 337.285 497.32C331.27 491.812 328.262 484.215 328.262 474.527C328.262 465.27 330.898 458.062 336.172 452.906C341.445 447.75 348.73 445.172 358.027 445.172L366.699 445.172L366.699 487.418C371.777 487.223 375.742 485.719 378.594 482.906C381.445 480.094 382.871 476.148 382.871 471.07C382.871 467.125 382.461 463.395 381.641 459.879C380.82 456.363 379.512 452.691 377.715 448.863L391.543 448.863C393.105 451.988 394.258 455.328 395 458.883C395.781 462.437 396.172 466.773 396.172 471.891ZM395 370.172L395 388.043L356.738 388.043C352.012 388.043 348.477 388.883 346.133 390.562C343.75 392.242 342.559 394.918 342.559 398.59C342.559 403.59 344.238 407.203 347.598 409.43C350.918 411.656 356.445 412.77 364.18 412.77L395 412.77L395 430.641L329.492 430.641L329.492 416.988L337.871 414.586L337.871 413.59C334.707 411.598 332.324 408.863 330.723 405.387C329.082 401.871 328.262 397.887 328.262 393.434C328.262 385.816 330.332 380.035 334.473 376.09C338.574 372.145 344.512 370.172 352.285 370.172L395 370.172ZM396.172 325.172C396.172 345.562 384.98 355.758 362.598 355.758C351.465 355.758 342.969 352.984 337.109 347.437C331.211 341.891 328.262 333.941 328.262 323.59C328.262 316.012 329.746 309.215 332.715 303.199L346.543 308.473C345.41 311.285 344.492 313.902 343.789 316.324C343.047 318.746 342.676 321.168 342.676 323.59C342.676 332.887 349.277 337.535 362.48 337.535C375.293 337.535 381.699 332.887 381.699 323.59C381.699 320.152 381.25 316.969 380.352 314.039C379.414 311.109 377.969 308.18 376.016 305.25L391.309 305.25C393.145 308.141 394.414 311.07 395.117 314.039C395.82 316.969 396.172 320.68 396.172 325.172ZM340.977 262.887C340.977 266.676 342.187 269.645 344.609 271.793C346.992 273.941 350.391 275.172 354.805 275.484L354.805 250.406C350.391 250.484 346.992 251.637 344.609 253.863C342.187 256.09 340.977 259.098 340.977 262.887ZM396.172 260.367C396.172 270.914 393.262 279.156 387.441 285.094C381.621 291.031 373.379 294 362.715 294C351.738 294 343.262 291.266 337.285 285.797C331.27 280.289 328.262 272.691 328.262 263.004C328.262 253.746 330.898 246.539 336.172 241.383C341.445 236.227 348.73 233.648 358.027 233.648L366.699 233.648L366.699 275.895C371.777 275.699 375.742 274.195 378.594 271.383C381.445 268.57 382.871 264.625 382.871 259.547C382.871 255.602 382.461 251.871 381.641 248.355C380.82 244.84 379.512 241.168 377.715 237.34L391.543 237.34C393.105 240.465 394.258 243.805 395 247.359C395.781 250.914 396.172 255.25 396.172 260.367ZM386.621 221.637C383.34 221.637 380.859 220.758 379.18 219C377.5 217.242 376.66 214.684 376.66 211.324C376.66 208.082 377.52 205.582 379.238 203.824C380.957 202.027 383.418 201.129 386.621 201.129C389.707 201.129 392.148 202.027 393.945 203.824C395.703 205.621 396.582 208.121 396.582 211.324C396.582 214.605 395.723 217.145 394.004 218.941C392.246 220.738 389.785 221.637 386.621 221.637Z" fill="black"/>
<path d="M416.483 216L415.728 212.563L414.708 208.222H414.646L412.854 216H409.971L407.176 206.174H409.848L410.981 210.524C411.163 211.304 411.348 212.379 411.535 213.75H411.588C411.611 213.305 411.714 212.599 411.896 211.632L412.036 210.885L413.249 206.174H416.202L417.354 210.885C417.377 211.014 417.412 211.204 417.459 211.456C417.512 211.708 417.562 211.978 417.608 212.265C417.655 212.546 417.696 212.824 417.731 213.1C417.772 213.369 417.796 213.586 417.802 213.75H417.854C417.907 213.328 418.001 212.751 418.136 212.019C418.271 211.28 418.367 210.782 418.426 210.524L419.604 206.174H422.231L419.401 216H416.483ZM427.892 207.896C427.323 207.896 426.878 208.078 426.556 208.441C426.233 208.799 426.049 209.309 426.002 209.971H429.764C429.752 209.309 429.579 208.799 429.245 208.441C428.911 208.078 428.46 207.896 427.892 207.896ZM428.27 216.176C426.688 216.176 425.451 215.739 424.561 214.866C423.67 213.993 423.225 212.757 423.225 211.157C423.225 209.511 423.635 208.239 424.455 207.343C425.281 206.44 426.421 205.989 427.874 205.989C429.263 205.989 430.344 206.385 431.117 207.176C431.891 207.967 432.277 209.06 432.277 210.454V211.755H425.94C425.97 212.517 426.195 213.111 426.617 213.539C427.039 213.967 427.631 214.181 428.393 214.181C428.984 214.181 429.544 214.119 430.071 213.996C430.599 213.873 431.149 213.677 431.724 213.407V215.481C431.255 215.716 430.754 215.889 430.221 216C429.688 216.117 429.037 216.176 428.27 216.176ZM438.526 207.896C437.958 207.896 437.513 208.078 437.19 208.441C436.868 208.799 436.684 209.309 436.637 209.971H440.398C440.387 209.309 440.214 208.799 439.88 208.441C439.546 208.078 439.095 207.896 438.526 207.896ZM438.904 216.176C437.322 216.176 436.086 215.739 435.195 214.866C434.305 213.993 433.859 212.757 433.859 211.157C433.859 209.511 434.27 208.239 435.09 207.343C435.916 206.44 437.056 205.989 438.509 205.989C439.897 205.989 440.979 206.385 441.752 207.176C442.525 207.967 442.912 209.06 442.912 210.454V211.755H436.575C436.604 212.517 436.83 213.111 437.252 213.539C437.674 213.967 438.266 214.181 439.027 214.181C439.619 214.181 440.179 214.119 440.706 213.996C441.233 213.873 441.784 213.677 442.358 213.407V215.481C441.89 215.716 441.389 215.889 440.855 216C440.322 216.117 439.672 216.176 438.904 216.176ZM447.667 210.656L448.836 209.162L451.587 206.174H454.61L450.708 210.437L454.848 216H451.754L448.924 212.019L447.772 212.941V216H445.092V202.324H447.772V208.424L447.632 210.656H447.667ZM458.935 216H456.254V202.324H458.935V216ZM460.35 206.174H463.285L465.14 211.702C465.298 212.183 465.406 212.751 465.465 213.407H465.518C465.582 212.804 465.708 212.235 465.896 211.702L467.715 206.174H470.589L466.432 217.257C466.051 218.282 465.506 219.05 464.797 219.56C464.094 220.069 463.271 220.324 462.327 220.324C461.864 220.324 461.41 220.274 460.965 220.175V218.048C461.287 218.124 461.639 218.162 462.02 218.162C462.494 218.162 462.907 218.016 463.259 217.723C463.616 217.436 463.895 216.999 464.094 216.413L464.252 215.93L460.35 206.174Z" fill="black"/>
<path d="M26.4834 876L25.5518 872.941H20.8672L19.9355 876H17L21.5352 863.098H24.8662L29.4189 876H26.4834ZM24.9014 870.656C24.04 867.885 23.5537 866.317 23.4424 865.954C23.3369 865.591 23.2607 865.304 23.2139 865.093C23.0205 865.843 22.4668 867.697 21.5527 870.656H24.9014ZM37.8477 876L34.1035 866.174H36.9072L38.8057 871.772C39.0166 872.481 39.1484 873.152 39.2012 873.785H39.2539C39.2832 873.223 39.415 872.552 39.6494 871.772L41.5391 866.174H44.3428L40.5986 876H37.8477ZM45.6436 863.634C45.6436 862.761 46.1299 862.324 47.1025 862.324C48.0752 862.324 48.5615 862.761 48.5615 863.634C48.5615 864.05 48.4385 864.375 48.1924 864.609C47.9521 864.838 47.5889 864.952 47.1025 864.952C46.1299 864.952 45.6436 864.513 45.6436 863.634ZM48.4385 876H45.7578V866.174H48.4385V876ZM58.1152 873.082C58.1152 874.09 57.7637 874.857 57.0605 875.385C56.3633 875.912 55.3174 876.176 53.9229 876.176C53.208 876.176 52.5986 876.126 52.0947 876.026C51.5908 875.933 51.1191 875.792 50.6797 875.604V873.39C51.1777 873.624 51.7373 873.82 52.3584 873.979C52.9854 874.137 53.5361 874.216 54.0107 874.216C54.9834 874.216 55.4697 873.935 55.4697 873.372C55.4697 873.161 55.4053 872.991 55.2764 872.862C55.1475 872.728 54.9248 872.578 54.6084 872.414C54.292 872.244 53.8701 872.048 53.3428 871.825C52.5869 871.509 52.0303 871.216 51.6729 870.946C51.3213 870.677 51.0635 870.369 50.8994 870.023C50.7412 869.672 50.6621 869.241 50.6621 868.731C50.6621 867.858 50.999 867.185 51.6729 866.71C52.3525 866.229 53.3135 865.989 54.5557 865.989C55.7393 865.989 56.8906 866.247 58.0098 866.763L57.2012 868.696C56.709 868.485 56.249 868.312 55.8213 868.178C55.3936 868.043 54.957 867.976 54.5117 867.976C53.7207 867.976 53.3252 868.189 53.3252 868.617C53.3252 868.857 53.4512 869.065 53.7031 869.241C53.9609 869.417 54.5205 869.678 55.3818 870.023C56.1494 870.334 56.7119 870.624 57.0693 870.894C57.4268 871.163 57.6904 871.474 57.8604 871.825C58.0303 872.177 58.1152 872.596 58.1152 873.082ZM67.168 876L66.8076 874.743H66.667C66.3799 875.2 65.9727 875.555 65.4453 875.807C64.918 876.053 64.3174 876.176 63.6436 876.176C62.4893 876.176 61.6191 875.868 61.0332 875.253C60.4473 874.632 60.1543 873.741 60.1543 872.581V866.174H62.835V871.913C62.835 872.622 62.9609 873.155 63.2129 873.513C63.4648 873.864 63.8662 874.04 64.417 874.04C65.167 874.04 65.709 873.791 66.043 873.293C66.377 872.789 66.5439 871.957 66.5439 870.797V866.174H69.2246V876H67.168ZM78.2773 876L77.7588 874.664H77.6885C77.2373 875.232 76.7715 875.628 76.291 875.851C75.8164 876.067 75.1953 876.176 74.4277 876.176C73.4844 876.176 72.7402 875.906 72.1953 875.367C71.6562 874.828 71.3867 874.061 71.3867 873.064C71.3867 872.021 71.75 871.254 72.4766 870.762C73.209 870.264 74.3105 869.988 75.7812 869.936L77.4863 869.883V869.452C77.4863 868.456 76.9766 867.958 75.957 867.958C75.1719 867.958 74.249 868.195 73.1885 868.67L72.3008 866.859C73.4316 866.268 74.6855 865.972 76.0625 865.972C77.3809 865.972 78.3916 866.259 79.0947 866.833C79.7979 867.407 80.1494 868.28 80.1494 869.452V876H78.2773ZM77.4863 871.447L76.4492 871.482C75.6699 871.506 75.0898 871.646 74.709 871.904C74.3281 872.162 74.1377 872.555 74.1377 873.082C74.1377 873.838 74.5713 874.216 75.4385 874.216C76.0596 874.216 76.5547 874.037 76.9238 873.68C77.2988 873.322 77.4863 872.848 77.4863 872.256V871.447ZM85.5986 876H82.918V862.324H85.5986V876ZM97.165 867.896C96.5967 867.896 96.1514 868.078 95.8291 868.441C95.5068 868.799 95.3223 869.309 95.2754 869.971H99.0371C99.0254 869.309 98.8525 868.799 98.5186 868.441C98.1846 868.078 97.7334 867.896 97.165 867.896ZM97.543 876.176C95.9609 876.176 94.7246 875.739 93.834 874.866C92.9434 873.993 92.498 872.757 92.498 871.157C92.498 869.511 92.9082 868.239 93.7285 867.343C94.5547 866.44 95.6943 865.989 97.1475 865.989C98.5361 865.989 99.6172 866.385 100.391 867.176C101.164 867.967 101.551 869.06 101.551 870.454V871.755H95.2139C95.2432 872.517 95.4688 873.111 95.8906 873.539C96.3125 873.967 96.9043 874.181 97.666 874.181C98.2578 874.181 98.8174 874.119 99.3447 873.996C99.8721 873.873 100.423 873.677 100.997 873.407V875.481C100.528 875.716 100.027 875.889 99.4941 876C98.9609 876.117 98.3105 876.176 97.543 876.176ZM105.743 870.981L102.579 866.174H105.62L107.527 869.303L109.452 866.174H112.493L109.294 870.981L112.643 876H109.593L107.527 872.634L105.453 876H102.412L105.743 870.981ZM119.533 876.176C118.379 876.176 117.474 875.757 116.817 874.919H116.677C116.771 875.739 116.817 876.214 116.817 876.343V880.324H114.137V866.174H116.316L116.694 867.448H116.817C117.444 866.476 118.373 865.989 119.604 865.989C120.764 865.989 121.672 866.438 122.328 867.334C122.984 868.23 123.312 869.476 123.312 871.069C123.312 872.118 123.157 873.029 122.847 873.803C122.542 874.576 122.105 875.165 121.537 875.569C120.969 875.974 120.301 876.176 119.533 876.176ZM118.742 868.134C118.08 868.134 117.597 868.339 117.292 868.749C116.987 869.153 116.829 869.824 116.817 870.762V871.052C116.817 872.106 116.973 872.862 117.283 873.319C117.6 873.776 118.098 874.005 118.777 874.005C119.979 874.005 120.579 873.015 120.579 871.034C120.579 870.067 120.43 869.344 120.131 868.863C119.838 868.377 119.375 868.134 118.742 868.134ZM128.208 876H125.527V862.324H128.208V876ZM133.165 871.069C133.165 872.042 133.323 872.777 133.64 873.275C133.962 873.773 134.483 874.022 135.204 874.022C135.919 874.022 136.432 873.776 136.742 873.284C137.059 872.786 137.217 872.048 137.217 871.069C137.217 870.097 137.059 869.367 136.742 868.881C136.426 868.395 135.907 868.151 135.187 868.151C134.472 868.151 133.956 868.395 133.64 868.881C133.323 869.361 133.165 870.091 133.165 871.069ZM139.959 871.069C139.959 872.669 139.537 873.92 138.693 874.822C137.85 875.725 136.675 876.176 135.169 876.176C134.226 876.176 133.394 875.971 132.673 875.561C131.952 875.145 131.398 874.55 131.012 873.776C130.625 873.003 130.432 872.101 130.432 871.069C130.432 869.464 130.851 868.216 131.688 867.325C132.526 866.435 133.704 865.989 135.222 865.989C136.165 865.989 136.997 866.194 137.718 866.604C138.438 867.015 138.992 867.604 139.379 868.371C139.766 869.139 139.959 870.038 139.959 871.069ZM147.658 865.989C148.021 865.989 148.323 866.016 148.563 866.068L148.361 868.582C148.145 868.523 147.881 868.494 147.57 868.494C146.715 868.494 146.047 868.714 145.566 869.153C145.092 869.593 144.854 870.208 144.854 870.999V876H142.174V866.174H144.204L144.6 867.826H144.731C145.036 867.275 145.446 866.833 145.962 866.499C146.483 866.159 147.049 865.989 147.658 865.989ZM156.588 876L156.069 874.664H155.999C155.548 875.232 155.082 875.628 154.602 875.851C154.127 876.067 153.506 876.176 152.738 876.176C151.795 876.176 151.051 875.906 150.506 875.367C149.967 874.828 149.697 874.061 149.697 873.064C149.697 872.021 150.061 871.254 150.787 870.762C151.52 870.264 152.621 869.988 154.092 869.936L155.797 869.883V869.452C155.797 868.456 155.287 867.958 154.268 867.958C153.482 867.958 152.56 868.195 151.499 868.67L150.611 866.859C151.742 866.268 152.996 865.972 154.373 865.972C155.691 865.972 156.702 866.259 157.405 866.833C158.108 867.407 158.46 868.28 158.46 869.452V876H156.588ZM155.797 871.447L154.76 871.482C153.98 871.506 153.4 871.646 153.02 871.904C152.639 872.162 152.448 872.555 152.448 873.082C152.448 873.838 152.882 874.216 153.749 874.216C154.37 874.216 154.865 874.037 155.234 873.68C155.609 873.322 155.797 872.848 155.797 872.256V871.447ZM165.368 874.04C165.837 874.04 166.399 873.938 167.056 873.732V875.728C166.388 876.026 165.567 876.176 164.595 876.176C163.522 876.176 162.74 875.906 162.248 875.367C161.762 874.822 161.519 874.008 161.519 872.924V868.187H160.235V867.053L161.712 866.156L162.485 864.082H164.199V866.174H166.95V868.187H164.199V872.924C164.199 873.305 164.305 873.586 164.516 873.768C164.732 873.949 165.017 874.04 165.368 874.04ZM168.937 863.634C168.937 862.761 169.423 862.324 170.396 862.324C171.368 862.324 171.854 862.761 171.854 863.634C171.854 864.05 171.731 864.375 171.485 864.609C171.245 864.838 170.882 864.952 170.396 864.952C169.423 864.952 168.937 864.513 168.937 863.634ZM171.731 876H169.051V866.174H171.731V876ZM176.688 871.069C176.688 872.042 176.847 872.777 177.163 873.275C177.485 873.773 178.007 874.022 178.728 874.022C179.442 874.022 179.955 873.776 180.266 873.284C180.582 872.786 180.74 872.048 180.74 871.069C180.74 870.097 180.582 869.367 180.266 868.881C179.949 868.395 179.431 868.151 178.71 868.151C177.995 868.151 177.479 868.395 177.163 868.881C176.847 869.361 176.688 870.091 176.688 871.069ZM183.482 871.069C183.482 872.669 183.061 873.92 182.217 874.822C181.373 875.725 180.198 876.176 178.692 876.176C177.749 876.176 176.917 875.971 176.196 875.561C175.476 875.145 174.922 874.55 174.535 873.776C174.148 873.003 173.955 872.101 173.955 871.069C173.955 869.464 174.374 868.216 175.212 867.325C176.05 866.435 177.228 865.989 178.745 865.989C179.688 865.989 180.521 866.194 181.241 866.604C181.962 867.015 182.516 867.604 182.902 868.371C183.289 869.139 183.482 870.038 183.482 871.069ZM194.768 876H192.087V870.261C192.087 869.552 191.961 869.021 191.709 868.67C191.457 868.312 191.056 868.134 190.505 868.134C189.755 868.134 189.213 868.386 188.879 868.89C188.545 869.388 188.378 870.217 188.378 871.377V876H185.697V866.174H187.745L188.105 867.431H188.255C188.554 866.956 188.964 866.599 189.485 866.358C190.013 866.112 190.61 865.989 191.278 865.989C192.421 865.989 193.288 866.3 193.88 866.921C194.472 867.536 194.768 868.427 194.768 869.593V876ZM204.339 871.069C204.339 872.042 204.497 872.777 204.813 873.275C205.136 873.773 205.657 874.022 206.378 874.022C207.093 874.022 207.605 873.776 207.916 873.284C208.232 872.786 208.391 872.048 208.391 871.069C208.391 870.097 208.232 869.367 207.916 868.881C207.6 868.395 207.081 868.151 206.36 868.151C205.646 868.151 205.13 868.395 204.813 868.881C204.497 869.361 204.339 870.091 204.339 871.069ZM211.133 871.069C211.133 872.669 210.711 873.92 209.867 874.822C209.023 875.725 207.849 876.176 206.343 876.176C205.399 876.176 204.567 875.971 203.847 875.561C203.126 875.145 202.572 874.55 202.186 873.776C201.799 873.003 201.605 872.101 201.605 871.069C201.605 869.464 202.024 868.216 202.862 867.325C203.7 866.435 204.878 865.989 206.396 865.989C207.339 865.989 208.171 866.194 208.892 866.604C209.612 867.015 210.166 867.604 210.553 868.371C210.939 869.139 211.133 870.038 211.133 871.069ZM218.779 868.187H216.459V876H213.778V868.187H212.302V866.895L213.778 866.174V865.453C213.778 864.334 214.054 863.517 214.604 863.001C215.155 862.485 216.037 862.228 217.25 862.228C218.176 862.228 218.999 862.365 219.72 862.641L219.034 864.609C218.495 864.439 217.997 864.354 217.54 864.354C217.159 864.354 216.884 864.469 216.714 864.697C216.544 864.92 216.459 865.207 216.459 865.559V866.174H218.779V868.187ZM229.142 874.04C229.61 874.04 230.173 873.938 230.829 873.732V875.728C230.161 876.026 229.341 876.176 228.368 876.176C227.296 876.176 226.514 875.906 226.021 875.367C225.535 874.822 225.292 874.008 225.292 872.924V868.187H224.009V867.053L225.485 866.156L226.259 864.082H227.973V866.174H230.724V868.187H227.973V872.924C227.973 873.305 228.078 873.586 228.289 873.768C228.506 873.949 228.79 874.04 229.142 874.04ZM234.96 871.069C234.96 872.042 235.118 872.777 235.435 873.275C235.757 873.773 236.278 874.022 236.999 874.022C237.714 874.022 238.227 873.776 238.537 873.284C238.854 872.786 239.012 872.048 239.012 871.069C239.012 870.097 238.854 869.367 238.537 868.881C238.221 868.395 237.702 868.151 236.981 868.151C236.267 868.151 235.751 868.395 235.435 868.881C235.118 869.361 234.96 870.091 234.96 871.069ZM241.754 871.069C241.754 872.669 241.332 873.92 240.488 874.822C239.645 875.725 238.47 876.176 236.964 876.176C236.021 876.176 235.188 875.971 234.468 875.561C233.747 875.145 233.193 874.55 232.807 873.776C232.42 873.003 232.227 872.101 232.227 871.069C232.227 869.464 232.646 868.216 233.483 867.325C234.321 866.435 235.499 865.989 237.017 865.989C237.96 865.989 238.792 866.194 239.513 866.604C240.233 867.015 240.787 867.604 241.174 868.371C241.561 869.139 241.754 870.038 241.754 871.069ZM249.365 876.176C248.211 876.176 247.306 875.757 246.649 874.919H246.509C246.603 875.739 246.649 876.214 246.649 876.343V880.324H243.969V866.174H246.148L246.526 867.448H246.649C247.276 866.476 248.205 865.989 249.436 865.989C250.596 865.989 251.504 866.438 252.16 867.334C252.816 868.23 253.145 869.476 253.145 871.069C253.145 872.118 252.989 873.029 252.679 873.803C252.374 874.576 251.938 875.165 251.369 875.569C250.801 875.974 250.133 876.176 249.365 876.176ZM248.574 868.134C247.912 868.134 247.429 868.339 247.124 868.749C246.819 869.153 246.661 869.824 246.649 870.762V871.052C246.649 872.106 246.805 872.862 247.115 873.319C247.432 873.776 247.93 874.005 248.609 874.005C249.811 874.005 250.411 873.015 250.411 871.034C250.411 870.067 250.262 869.344 249.963 868.863C249.67 868.377 249.207 868.134 248.574 868.134ZM255.245 863.634C255.245 862.761 255.731 862.324 256.704 862.324C257.677 862.324 258.163 862.761 258.163 863.634C258.163 864.05 258.04 864.375 257.794 864.609C257.554 864.838 257.19 864.952 256.704 864.952C255.731 864.952 255.245 864.513 255.245 863.634ZM258.04 876H255.359V866.174H258.04V876ZM264.852 876.176C261.793 876.176 260.264 874.497 260.264 871.14C260.264 869.47 260.68 868.195 261.512 867.316C262.344 866.432 263.536 865.989 265.089 865.989C266.226 865.989 267.245 866.212 268.147 866.657L267.356 868.731C266.935 868.562 266.542 868.424 266.179 868.318C265.815 868.207 265.452 868.151 265.089 868.151C263.694 868.151 262.997 869.142 262.997 871.122C262.997 873.044 263.694 874.005 265.089 874.005C265.604 874.005 266.082 873.938 266.521 873.803C266.961 873.662 267.4 873.445 267.84 873.152V875.446C267.406 875.722 266.967 875.912 266.521 876.018C266.082 876.123 265.525 876.176 264.852 876.176ZM276.98 873.082C276.98 874.09 276.629 874.857 275.926 875.385C275.229 875.912 274.183 876.176 272.788 876.176C272.073 876.176 271.464 876.126 270.96 876.026C270.456 875.933 269.984 875.792 269.545 875.604V873.39C270.043 873.624 270.603 873.82 271.224 873.979C271.851 874.137 272.401 874.216 272.876 874.216C273.849 874.216 274.335 873.935 274.335 873.372C274.335 873.161 274.271 872.991 274.142 872.862C274.013 872.728 273.79 872.578 273.474 872.414C273.157 872.244 272.735 872.048 272.208 871.825C271.452 871.509 270.896 871.216 270.538 870.946C270.187 870.677 269.929 870.369 269.765 870.023C269.606 869.672 269.527 869.241 269.527 868.731C269.527 867.858 269.864 867.185 270.538 866.71C271.218 866.229 272.179 865.989 273.421 865.989C274.604 865.989 275.756 866.247 276.875 866.763L276.066 868.696C275.574 868.485 275.114 868.312 274.687 868.178C274.259 868.043 273.822 867.976 273.377 867.976C272.586 867.976 272.19 868.189 272.19 868.617C272.19 868.857 272.316 869.065 272.568 869.241C272.826 869.417 273.386 869.678 274.247 870.023C275.015 870.334 275.577 870.624 275.935 870.894C276.292 871.163 276.556 871.474 276.726 871.825C276.896 872.177 276.98 872.596 276.98 873.082ZM283.634 863.634C283.634 862.761 284.12 862.324 285.093 862.324C286.065 862.324 286.552 862.761 286.552 863.634C286.552 864.05 286.429 864.375 286.183 864.609C285.942 864.838 285.579 864.952 285.093 864.952C284.12 864.952 283.634 864.513 283.634 863.634ZM286.429 876H283.748V866.174H286.429V876ZM298.32 876H295.64V870.261C295.64 869.552 295.514 869.021 295.262 868.67C295.01 868.312 294.608 868.134 294.058 868.134C293.308 868.134 292.766 868.386 292.432 868.89C292.098 869.388 291.931 870.217 291.931 871.377V876H289.25V866.174H291.298L291.658 867.431H291.808C292.106 866.956 292.517 866.599 293.038 866.358C293.565 866.112 294.163 865.989 294.831 865.989C295.974 865.989 296.841 866.3 297.433 866.921C298.024 867.536 298.32 868.427 298.32 869.593V876ZM312.611 873.082C312.611 874.09 312.26 874.857 311.557 875.385C310.859 875.912 309.813 876.176 308.419 876.176C307.704 876.176 307.095 876.126 306.591 876.026C306.087 875.933 305.615 875.792 305.176 875.604V873.39C305.674 873.624 306.233 873.82 306.854 873.979C307.481 874.137 308.032 874.216 308.507 874.216C309.479 874.216 309.966 873.935 309.966 873.372C309.966 873.161 309.901 872.991 309.772 872.862C309.644 872.728 309.421 872.578 309.104 872.414C308.788 872.244 308.366 872.048 307.839 871.825C307.083 871.509 306.526 871.216 306.169 870.946C305.817 870.677 305.56 870.369 305.396 870.023C305.237 869.672 305.158 869.241 305.158 868.731C305.158 867.858 305.495 867.185 306.169 866.71C306.849 866.229 307.81 865.989 309.052 865.989C310.235 865.989 311.387 866.247 312.506 866.763L311.697 868.696C311.205 868.485 310.745 868.312 310.317 868.178C309.89 868.043 309.453 867.976 309.008 867.976C308.217 867.976 307.821 868.189 307.821 868.617C307.821 868.857 307.947 869.065 308.199 869.241C308.457 869.417 309.017 869.678 309.878 870.023C310.646 870.334 311.208 870.624 311.565 870.894C311.923 871.163 312.187 871.474 312.356 871.825C312.526 872.177 312.611 872.596 312.611 873.082ZM318.693 876.176C315.635 876.176 314.105 874.497 314.105 871.14C314.105 869.47 314.521 868.195 315.354 867.316C316.186 866.432 317.378 865.989 318.931 865.989C320.067 865.989 321.087 866.212 321.989 866.657L321.198 868.731C320.776 868.562 320.384 868.424 320.021 868.318C319.657 868.207 319.294 868.151 318.931 868.151C317.536 868.151 316.839 869.142 316.839 871.122C316.839 873.044 317.536 874.005 318.931 874.005C319.446 874.005 319.924 873.938 320.363 873.803C320.803 873.662 321.242 873.445 321.682 873.152V875.446C321.248 875.722 320.809 875.912 320.363 876.018C319.924 876.123 319.367 876.176 318.693 876.176ZM323.853 863.634C323.853 862.761 324.339 862.324 325.312 862.324C326.284 862.324 326.771 862.761 326.771 863.634C326.771 864.05 326.647 864.375 326.401 864.609C326.161 864.838 325.798 864.952 325.312 864.952C324.339 864.952 323.853 864.513 323.853 863.634ZM326.647 876H323.967V866.174H326.647V876ZM333.538 867.896C332.97 867.896 332.524 868.078 332.202 868.441C331.88 868.799 331.695 869.309 331.648 869.971H335.41C335.398 869.309 335.226 868.799 334.892 868.441C334.558 868.078 334.106 867.896 333.538 867.896ZM333.916 876.176C332.334 876.176 331.098 875.739 330.207 874.866C329.316 873.993 328.871 872.757 328.871 871.157C328.871 869.511 329.281 868.239 330.102 867.343C330.928 866.44 332.067 865.989 333.521 865.989C334.909 865.989 335.99 866.385 336.764 867.176C337.537 867.967 337.924 869.06 337.924 870.454V871.755H331.587C331.616 872.517 331.842 873.111 332.264 873.539C332.686 873.967 333.277 874.181 334.039 874.181C334.631 874.181 335.19 874.119 335.718 873.996C336.245 873.873 336.796 873.677 337.37 873.407V875.481C336.901 875.716 336.4 875.889 335.867 876C335.334 876.117 334.684 876.176 333.916 876.176ZM349.174 876H346.493V870.261C346.493 869.552 346.367 869.021 346.115 868.67C345.863 868.312 345.462 868.134 344.911 868.134C344.161 868.134 343.619 868.386 343.285 868.89C342.951 869.388 342.784 870.217 342.784 871.377V876H340.104V866.174H342.151L342.512 867.431H342.661C342.96 866.956 343.37 866.599 343.892 866.358C344.419 866.112 345.017 865.989 345.685 865.989C346.827 865.989 347.694 866.3 348.286 866.921C348.878 867.536 349.174 868.427 349.174 869.593V876ZM355.924 876.176C352.865 876.176 351.336 874.497 351.336 871.14C351.336 869.47 351.752 868.195 352.584 867.316C353.416 866.432 354.608 865.989 356.161 865.989C357.298 865.989 358.317 866.212 359.22 866.657L358.429 868.731C358.007 868.562 357.614 868.424 357.251 868.318C356.888 868.207 356.524 868.151 356.161 868.151C354.767 868.151 354.069 869.142 354.069 871.122C354.069 873.044 354.767 874.005 356.161 874.005C356.677 874.005 357.154 873.938 357.594 873.803C358.033 873.662 358.473 873.445 358.912 873.152V875.446C358.479 875.722 358.039 875.912 357.594 876.018C357.154 876.123 356.598 876.176 355.924 876.176ZM365.267 867.896C364.698 867.896 364.253 868.078 363.931 868.441C363.608 868.799 363.424 869.309 363.377 869.971H367.139C367.127 869.309 366.954 868.799 366.62 868.441C366.286 868.078 365.835 867.896 365.267 867.896ZM365.645 876.176C364.062 876.176 362.826 875.739 361.936 874.866C361.045 873.993 360.6 872.757 360.6 871.157C360.6 869.511 361.01 868.239 361.83 867.343C362.656 866.44 363.796 865.989 365.249 865.989C366.638 865.989 367.719 866.385 368.492 867.176C369.266 867.967 369.652 869.06 369.652 870.454V871.755H363.315C363.345 872.517 363.57 873.111 363.992 873.539C364.414 873.967 365.006 874.181 365.768 874.181C366.359 874.181 366.919 874.119 367.446 873.996C367.974 873.873 368.524 873.677 369.099 873.407V875.481C368.63 875.716 368.129 875.889 367.596 876C367.062 876.117 366.412 876.176 365.645 876.176Z" fill="black"/>
<path d="M1260.52 865.989C1261.68 865.989 1262.59 866.443 1263.24 867.352C1263.9 868.254 1264.23 869.493 1264.23 871.069C1264.23 872.692 1263.89 873.949 1263.21 874.84C1262.53 875.73 1261.61 876.176 1260.45 876.176C1259.29 876.176 1258.39 875.757 1257.73 874.919H1257.55L1257.1 876H1255.05V862.324H1257.73V865.506C1257.73 865.91 1257.7 866.558 1257.63 867.448H1257.73C1258.36 866.476 1259.29 865.989 1260.52 865.989ZM1259.66 868.134C1258.99 868.134 1258.51 868.339 1258.21 868.749C1257.9 869.153 1257.74 869.824 1257.73 870.762V871.052C1257.73 872.106 1257.89 872.862 1258.2 873.319C1258.51 873.776 1259.01 874.005 1259.69 874.005C1260.24 874.005 1260.68 873.753 1261 873.249C1261.33 872.739 1261.49 872.001 1261.49 871.034C1261.49 870.067 1261.33 869.344 1261 868.863C1260.67 868.377 1260.22 868.134 1259.66 868.134ZM1265.04 866.174H1267.97L1269.83 871.702C1269.98 872.183 1270.09 872.751 1270.15 873.407H1270.2C1270.27 872.804 1270.39 872.235 1270.58 871.702L1272.4 866.174H1275.27L1271.12 877.257C1270.74 878.282 1270.19 879.05 1269.48 879.56C1268.78 880.069 1267.96 880.324 1267.01 880.324C1266.55 880.324 1266.1 880.274 1265.65 880.175V878.048C1265.97 878.124 1266.32 878.162 1266.71 878.162C1267.18 878.162 1267.59 878.016 1267.94 877.723C1268.3 877.436 1268.58 876.999 1268.78 876.413L1268.94 875.93L1265.04 866.174ZM1281.58 876V863.15H1284.3V876H1281.58ZM1290 876H1287.32V862.324H1290V876ZM1292.71 863.634C1292.71 862.761 1293.2 862.324 1294.17 862.324C1295.14 862.324 1295.63 862.761 1295.63 863.634C1295.63 864.05 1295.51 864.375 1295.26 864.609C1295.02 864.838 1294.66 864.952 1294.17 864.952C1293.2 864.952 1292.71 864.513 1292.71 863.634ZM1295.51 876H1292.83V866.174H1295.51V876ZM1304.57 876L1304.05 874.664H1303.98C1303.53 875.232 1303.06 875.628 1302.58 875.851C1302.11 876.067 1301.49 876.176 1300.72 876.176C1299.78 876.176 1299.03 875.906 1298.49 875.367C1297.95 874.828 1297.68 874.061 1297.68 873.064C1297.68 872.021 1298.04 871.254 1298.77 870.762C1299.5 870.264 1300.6 869.988 1302.07 869.936L1303.78 869.883V869.452C1303.78 868.456 1303.27 867.958 1302.25 867.958C1301.46 867.958 1300.54 868.195 1299.48 868.67L1298.59 866.859C1299.72 866.268 1300.98 865.972 1302.35 865.972C1303.67 865.972 1304.68 866.259 1305.39 866.833C1306.09 867.407 1306.44 868.28 1306.44 869.452V876H1304.57ZM1303.78 871.447L1302.74 871.482C1301.96 871.506 1301.38 871.646 1301 871.904C1300.62 872.162 1300.43 872.555 1300.43 873.082C1300.43 873.838 1300.86 874.216 1301.73 874.216C1302.35 874.216 1302.85 874.037 1303.21 873.68C1303.59 873.322 1303.78 872.848 1303.78 872.256V871.447ZM1314.1 863.15H1318.09C1319.92 863.15 1321.24 863.411 1322.06 863.933C1322.88 864.448 1323.3 865.271 1323.3 866.402C1323.3 867.17 1323.12 867.8 1322.75 868.292C1322.4 868.784 1321.92 869.08 1321.32 869.18V869.268C1322.13 869.449 1322.72 869.789 1323.08 870.287C1323.44 870.785 1323.62 871.447 1323.62 872.273C1323.62 873.445 1323.2 874.359 1322.35 875.016C1321.5 875.672 1320.36 876 1318.9 876H1314.1V863.15ZM1316.82 868.239H1318.4C1319.14 868.239 1319.67 868.125 1320 867.896C1320.34 867.668 1320.5 867.29 1320.5 866.763C1320.5 866.271 1320.32 865.919 1319.96 865.708C1319.6 865.491 1319.03 865.383 1318.25 865.383H1316.82V868.239ZM1316.82 870.401V873.75H1318.6C1319.35 873.75 1319.9 873.606 1320.26 873.319C1320.61 873.032 1320.79 872.593 1320.79 872.001C1320.79 870.935 1320.03 870.401 1318.51 870.401H1316.82ZM1328.66 876H1325.98V862.324H1328.66V876ZM1331.37 863.634C1331.37 862.761 1331.85 862.324 1332.83 862.324C1333.8 862.324 1334.28 862.761 1334.28 863.634C1334.28 864.05 1334.16 864.375 1333.92 864.609C1333.67 864.838 1333.31 864.952 1332.83 864.952C1331.85 864.952 1331.37 864.513 1331.37 863.634ZM1334.16 876H1331.48V866.174H1334.16V876ZM1346.05 876H1343.37V870.261C1343.37 869.552 1343.25 869.021 1342.99 868.67C1342.74 868.312 1342.34 868.134 1341.79 868.134C1341.04 868.134 1340.5 868.386 1340.16 868.89C1339.83 869.388 1339.66 870.217 1339.66 871.377V876H1336.98V866.174H1339.03L1339.39 867.431H1339.54C1339.84 866.956 1340.25 866.599 1340.77 866.358C1341.3 866.112 1341.9 865.989 1342.56 865.989C1343.71 865.989 1344.57 866.3 1345.17 866.921C1345.76 867.536 1346.05 868.427 1346.05 869.593V876ZM1351.92 876.176C1350.77 876.176 1349.86 875.728 1349.2 874.831C1348.54 873.935 1348.21 872.692 1348.21 871.104C1348.21 869.493 1348.55 868.239 1349.22 867.343C1349.89 866.44 1350.82 865.989 1351.99 865.989C1353.23 865.989 1354.17 866.47 1354.82 867.431H1354.91C1354.78 866.698 1354.71 866.045 1354.71 865.471V862.324H1357.4V876H1355.34L1354.82 874.726H1354.71C1354.1 875.692 1353.17 876.176 1351.92 876.176ZM1352.86 874.04C1353.55 874.04 1354.05 873.841 1354.37 873.442C1354.69 873.044 1354.87 872.367 1354.89 871.412V871.122C1354.89 870.067 1354.73 869.312 1354.4 868.854C1354.08 868.397 1353.55 868.169 1352.82 868.169C1352.22 868.169 1351.76 868.424 1351.42 868.934C1351.09 869.438 1350.93 870.173 1350.93 871.14C1350.93 872.106 1351.1 872.833 1351.43 873.319C1351.77 873.8 1352.24 874.04 1352.86 874.04ZM1364.27 867.896C1363.7 867.896 1363.26 868.078 1362.94 868.441C1362.61 868.799 1362.43 869.309 1362.38 869.971H1366.14C1366.13 869.309 1365.96 868.799 1365.63 868.441C1365.29 868.078 1364.84 867.896 1364.27 867.896ZM1364.65 876.176C1363.07 876.176 1361.83 875.739 1360.94 874.866C1360.05 873.993 1359.61 872.757 1359.61 871.157C1359.61 869.511 1360.02 868.239 1360.84 867.343C1361.66 866.44 1362.8 865.989 1364.25 865.989C1365.64 865.989 1366.72 866.385 1367.5 867.176C1368.27 867.967 1368.66 869.06 1368.66 870.454V871.755H1362.32C1362.35 872.517 1362.58 873.111 1363 873.539C1363.42 873.967 1364.01 874.181 1364.77 874.181C1365.37 874.181 1365.92 874.119 1366.45 873.996C1366.98 873.873 1367.53 873.677 1368.1 873.407V875.481C1367.64 875.716 1367.13 875.889 1366.6 876C1366.07 876.117 1365.42 876.176 1364.65 876.176ZM1376.32 865.989C1376.69 865.989 1376.99 866.016 1377.23 866.068L1377.03 868.582C1376.81 868.523 1376.54 868.494 1376.23 868.494C1375.38 868.494 1374.71 868.714 1374.23 869.153C1373.76 869.593 1373.52 870.208 1373.52 870.999V876H1370.84V866.174H1372.87L1373.26 867.826H1373.4C1373.7 867.275 1374.11 866.833 1374.63 866.499C1375.15 866.159 1375.71 865.989 1376.32 865.989ZM1387.81 876H1385.13V870.261C1385.13 869.552 1385.01 869.021 1384.77 868.67C1384.53 868.312 1384.16 868.134 1383.65 868.134C1382.97 868.134 1382.47 868.386 1382.16 868.89C1381.85 869.394 1381.69 870.223 1381.69 871.377V876H1379.01V866.174H1381.06L1381.42 867.431H1381.57C1381.83 866.979 1382.21 866.628 1382.71 866.376C1383.21 866.118 1383.78 865.989 1384.43 865.989C1385.9 865.989 1386.89 866.47 1387.41 867.431H1387.65C1387.92 866.974 1388.3 866.619 1388.81 866.367C1389.33 866.115 1389.91 865.989 1390.55 865.989C1391.67 865.989 1392.51 866.276 1393.07 866.851C1393.65 867.419 1393.94 868.333 1393.94 869.593V876H1391.25V870.261C1391.25 869.552 1391.13 869.021 1390.89 868.67C1390.65 868.312 1390.28 868.134 1389.77 868.134C1389.11 868.134 1388.62 868.368 1388.29 868.837C1387.97 869.306 1387.81 870.05 1387.81 871.069V876ZM1402.94 876L1402.42 874.664H1402.35C1401.9 875.232 1401.43 875.628 1400.95 875.851C1400.47 876.067 1399.85 876.176 1399.09 876.176C1398.14 876.176 1397.4 875.906 1396.85 875.367C1396.31 874.828 1396.04 874.061 1396.04 873.064C1396.04 872.021 1396.41 871.254 1397.13 870.762C1397.87 870.264 1398.97 869.988 1400.44 869.936L1402.14 869.883V869.452C1402.14 868.456 1401.63 867.958 1400.62 867.958C1399.83 867.958 1398.91 868.195 1397.85 868.67L1396.96 866.859C1398.09 866.268 1399.34 865.972 1400.72 865.972C1402.04 865.972 1403.05 866.259 1403.75 866.833C1404.46 867.407 1404.81 868.28 1404.81 869.452V876H1402.94ZM1402.14 871.447L1401.11 871.482C1400.33 871.506 1399.75 871.646 1399.37 871.904C1398.99 872.162 1398.8 872.555 1398.8 873.082C1398.8 873.838 1399.23 874.216 1400.1 874.216C1400.72 874.216 1401.21 874.037 1401.58 873.68C1401.96 873.322 1402.14 872.848 1402.14 872.256V871.447ZM1416.65 876H1413.97V870.261C1413.97 869.552 1413.84 869.021 1413.59 868.67C1413.34 868.312 1412.93 868.134 1412.38 868.134C1411.63 868.134 1411.09 868.386 1410.76 868.89C1410.42 869.388 1410.26 870.217 1410.26 871.377V876H1407.58V866.174H1409.62L1409.98 867.431H1410.13C1410.43 866.956 1410.84 866.599 1411.36 866.358C1411.89 866.112 1412.49 865.989 1413.16 865.989C1414.3 865.989 1415.17 866.3 1415.76 866.921C1416.35 867.536 1416.65 868.427 1416.65 869.593V876Z" fill="white"/>
<path d="M789.404 246.863C789.404 249.184 788.566 251.012 786.891 252.348C785.227 253.684 782.906 254.352 779.93 254.352C777.188 254.352 774.762 253.836 772.652 252.805V247.742C774.387 248.516 775.852 249.061 777.047 249.377C778.254 249.693 779.355 249.852 780.352 249.852C781.547 249.852 782.461 249.623 783.094 249.166C783.738 248.709 784.061 248.029 784.061 247.127C784.061 246.623 783.92 246.178 783.639 245.791C783.357 245.393 782.941 245.012 782.391 244.648C781.852 244.285 780.744 243.705 779.068 242.908C777.498 242.17 776.32 241.461 775.535 240.781C774.75 240.102 774.123 239.311 773.654 238.408C773.186 237.506 772.951 236.451 772.951 235.244C772.951 232.971 773.719 231.184 775.254 229.883C776.801 228.582 778.934 227.932 781.652 227.932C782.988 227.932 784.26 228.09 785.467 228.406C786.686 228.723 787.957 229.168 789.281 229.742L787.523 233.979C786.152 233.416 785.016 233.023 784.113 232.801C783.223 232.578 782.344 232.467 781.477 232.467C780.445 232.467 779.654 232.707 779.104 233.188C778.553 233.668 778.277 234.295 778.277 235.068C778.277 235.549 778.389 235.971 778.611 236.334C778.834 236.686 779.186 237.031 779.666 237.371C780.158 237.699 781.312 238.297 783.129 239.164C785.531 240.312 787.178 241.467 788.068 242.627C788.959 243.775 789.404 245.188 789.404 246.863ZM801.621 254.352C795.504 254.352 792.445 250.994 792.445 244.279C792.445 240.939 793.277 238.391 794.941 236.633C796.605 234.863 798.99 233.979 802.096 233.979C804.369 233.979 806.408 234.424 808.213 235.314L806.631 239.463C805.787 239.123 805.002 238.848 804.275 238.637C803.549 238.414 802.822 238.303 802.096 238.303C799.307 238.303 797.912 240.283 797.912 244.244C797.912 248.088 799.307 250.01 802.096 250.01C803.127 250.01 804.082 249.875 804.961 249.605C805.84 249.324 806.719 248.891 807.598 248.305V252.893C806.73 253.443 805.852 253.824 804.961 254.035C804.082 254.246 802.969 254.352 801.621 254.352ZM811.939 229.268C811.939 227.521 812.912 226.648 814.857 226.648C816.803 226.648 817.775 227.521 817.775 229.268C817.775 230.1 817.529 230.75 817.037 231.219C816.557 231.676 815.83 231.904 814.857 231.904C812.912 231.904 811.939 231.025 811.939 229.268ZM817.529 254H812.168V234.348H817.529V254ZM831.311 237.793C830.174 237.793 829.283 238.156 828.639 238.883C827.994 239.598 827.625 240.617 827.531 241.941H835.055C835.031 240.617 834.686 239.598 834.018 238.883C833.35 238.156 832.447 237.793 831.311 237.793ZM832.066 254.352C828.902 254.352 826.43 253.479 824.648 251.732C822.867 249.986 821.977 247.514 821.977 244.314C821.977 241.021 822.797 238.479 824.438 236.686C826.09 234.881 828.369 233.979 831.275 233.979C834.053 233.979 836.215 234.77 837.762 236.352C839.309 237.934 840.082 240.119 840.082 242.908V245.51H827.408C827.467 247.033 827.918 248.223 828.762 249.078C829.605 249.934 830.789 250.361 832.312 250.361C833.496 250.361 834.615 250.238 835.67 249.992C836.725 249.746 837.826 249.354 838.975 248.814V252.963C838.037 253.432 837.035 253.777 835.969 254C834.902 254.234 833.602 254.352 832.066 254.352ZM862.582 254H857.221V242.521C857.221 241.104 856.969 240.043 856.465 239.34C855.961 238.625 855.158 238.268 854.057 238.268C852.557 238.268 851.473 238.771 850.805 239.779C850.137 240.775 849.803 242.434 849.803 244.754V254H844.441V234.348H848.537L849.258 236.861H849.557C850.154 235.912 850.975 235.197 852.018 234.717C853.072 234.225 854.268 233.979 855.604 233.979C857.889 233.979 859.623 234.6 860.807 235.842C861.99 237.072 862.582 238.854 862.582 241.186V254ZM876.082 254.352C869.965 254.352 866.906 250.994 866.906 244.279C866.906 240.939 867.738 238.391 869.402 236.633C871.066 234.863 873.451 233.979 876.557 233.979C878.83 233.979 880.869 234.424 882.674 235.314L881.092 239.463C880.248 239.123 879.463 238.848 878.736 238.637C878.01 238.414 877.283 238.303 876.557 238.303C873.768 238.303 872.373 240.283 872.373 244.244C872.373 248.088 873.768 250.01 876.557 250.01C877.588 250.01 878.543 249.875 879.422 249.605C880.301 249.324 881.18 248.891 882.059 248.305V252.893C881.191 253.443 880.312 253.824 879.422 254.035C878.543 254.246 877.43 254.352 876.082 254.352ZM894.768 237.793C893.631 237.793 892.74 238.156 892.096 238.883C891.451 239.598 891.082 240.617 890.988 241.941H898.512C898.488 240.617 898.143 239.598 897.475 238.883C896.807 238.156 895.904 237.793 894.768 237.793ZM895.523 254.352C892.359 254.352 889.887 253.479 888.105 251.732C886.324 249.986 885.434 247.514 885.434 244.314C885.434 241.021 886.254 238.479 887.895 236.686C889.547 234.881 891.826 233.979 894.732 233.979C897.51 233.979 899.672 234.77 901.219 236.352C902.766 237.934 903.539 240.119 903.539 242.908V245.51H890.865C890.924 247.033 891.375 248.223 892.219 249.078C893.062 249.934 894.246 250.361 895.77 250.361C896.953 250.361 898.072 250.238 899.127 249.992C900.182 249.746 901.283 249.354 902.432 248.814V252.963C901.494 253.432 900.492 253.777 899.426 254C898.359 254.234 897.059 254.352 895.523 254.352ZM928.219 233.979C928.945 233.979 929.549 234.031 930.029 234.137L929.625 239.164C929.191 239.047 928.664 238.988 928.043 238.988C926.332 238.988 924.996 239.428 924.035 240.307C923.086 241.186 922.611 242.416 922.611 243.998V254H917.25V234.348H921.311L922.102 237.652H922.365C922.975 236.551 923.795 235.666 924.826 234.998C925.869 234.318 927 233.979 928.219 233.979ZM941.736 237.793C940.6 237.793 939.709 238.156 939.064 238.883C938.42 239.598 938.051 240.617 937.957 241.941H945.48C945.457 240.617 945.111 239.598 944.443 238.883C943.775 238.156 942.873 237.793 941.736 237.793ZM942.492 254.352C939.328 254.352 936.855 253.479 935.074 251.732C933.293 249.986 932.402 247.514 932.402 244.314C932.402 241.021 933.223 238.479 934.863 236.686C936.516 234.881 938.795 233.979 941.701 233.979C944.479 233.979 946.641 234.77 948.188 236.352C949.734 237.934 950.508 240.119 950.508 242.908V245.51H937.834C937.893 247.033 938.344 248.223 939.188 249.078C940.031 249.934 941.215 250.361 942.738 250.361C943.922 250.361 945.041 250.238 946.096 249.992C947.15 249.746 948.252 249.354 949.4 248.814V252.963C948.463 253.432 947.461 253.777 946.395 254C945.328 254.234 944.027 254.352 942.492 254.352ZM968.578 248.164C968.578 250.18 967.875 251.715 966.469 252.77C965.074 253.824 962.982 254.352 960.193 254.352C958.764 254.352 957.545 254.252 956.537 254.053C955.529 253.865 954.586 253.584 953.707 253.209V248.779C954.703 249.248 955.822 249.641 957.064 249.957C958.318 250.273 959.42 250.432 960.369 250.432C962.314 250.432 963.287 249.869 963.287 248.744C963.287 248.322 963.158 247.982 962.9 247.725C962.643 247.455 962.197 247.156 961.564 246.828C960.932 246.488 960.088 246.096 959.033 245.65C957.521 245.018 956.408 244.432 955.693 243.893C954.99 243.354 954.475 242.738 954.146 242.047C953.83 241.344 953.672 240.482 953.672 239.463C953.672 237.717 954.346 236.369 955.693 235.42C957.053 234.459 958.975 233.979 961.459 233.979C963.826 233.979 966.129 234.494 968.367 235.525L966.75 239.393C965.766 238.971 964.846 238.625 963.99 238.355C963.135 238.086 962.262 237.951 961.371 237.951C959.789 237.951 958.998 238.379 958.998 239.234C958.998 239.715 959.25 240.131 959.754 240.482C960.27 240.834 961.389 241.355 963.111 242.047C964.646 242.668 965.771 243.248 966.486 243.787C967.201 244.326 967.729 244.947 968.068 245.65C968.408 246.354 968.578 247.191 968.578 248.164ZM981.041 250.08C981.979 250.08 983.104 249.875 984.416 249.465V253.455C983.08 254.053 981.439 254.352 979.494 254.352C977.35 254.352 975.785 253.812 974.801 252.734C973.828 251.645 973.342 250.016 973.342 247.848V238.373H970.775V236.105L973.729 234.312L975.275 230.164H978.703V234.348H984.205V238.373H978.703V247.848C978.703 248.609 978.914 249.172 979.336 249.535C979.77 249.898 980.338 250.08 981.041 250.08ZM1002.12 248.164C1002.12 250.18 1001.41 251.715 1000.01 252.77C998.613 253.824 996.521 254.352 993.732 254.352C992.303 254.352 991.084 254.252 990.076 254.053C989.068 253.865 988.125 253.584 987.246 253.209V248.779C988.242 249.248 989.361 249.641 990.604 249.957C991.857 250.273 992.959 250.432 993.908 250.432C995.854 250.432 996.826 249.869 996.826 248.744C996.826 248.322 996.697 247.982 996.439 247.725C996.182 247.455 995.736 247.156 995.104 246.828C994.471 246.488 993.627 246.096 992.572 245.65C991.061 245.018 989.947 244.432 989.232 243.893C988.529 243.354 988.014 242.738 987.686 242.047C987.369 241.344 987.211 240.482 987.211 239.463C987.211 237.717 987.885 236.369 989.232 235.42C990.592 234.459 992.514 233.979 994.998 233.979C997.365 233.979 999.668 234.494 1001.91 235.525L1000.29 239.393C999.305 238.971 998.385 238.625 997.529 238.355C996.674 238.086 995.801 237.951 994.91 237.951C993.328 237.951 992.537 238.379 992.537 239.234C992.537 239.715 992.789 240.131 993.293 240.482C993.809 240.834 994.928 241.355 996.65 242.047C998.186 242.668 999.311 243.248 1000.03 243.787C1000.74 244.326 1001.27 244.947 1001.61 245.65C1001.95 246.354 1002.12 247.191 1002.12 248.164ZM778.084 293.139C778.084 295.084 778.4 296.555 779.033 297.551C779.678 298.547 780.721 299.045 782.162 299.045C783.592 299.045 784.617 298.553 785.238 297.568C785.871 296.572 786.188 295.096 786.188 293.139C786.188 291.193 785.871 289.734 785.238 288.762C784.605 287.789 783.568 287.303 782.127 287.303C780.697 287.303 779.666 287.789 779.033 288.762C778.4 289.723 778.084 291.182 778.084 293.139ZM791.672 293.139C791.672 296.338 790.828 298.84 789.141 300.645C787.453 302.449 785.104 303.352 782.092 303.352C780.205 303.352 778.541 302.941 777.1 302.121C775.658 301.289 774.551 300.1 773.777 298.553C773.004 297.006 772.617 295.201 772.617 293.139C772.617 289.928 773.455 287.432 775.131 285.65C776.807 283.869 779.162 282.979 782.197 282.979C784.084 282.979 785.748 283.389 787.189 284.209C788.631 285.029 789.738 286.207 790.512 287.742C791.285 289.277 791.672 291.076 791.672 293.139ZM814.242 303H808.881V291.521C808.881 290.104 808.629 289.043 808.125 288.34C807.621 287.625 806.818 287.268 805.717 287.268C804.217 287.268 803.133 287.771 802.465 288.779C801.797 289.775 801.463 291.434 801.463 293.754V303H796.102V283.348H800.197L800.918 285.861H801.217C801.814 284.912 802.635 284.197 803.678 283.717C804.732 283.225 805.928 282.979 807.264 282.979C809.549 282.979 811.283 283.6 812.467 284.842C813.65 286.072 814.242 287.854 814.242 290.186V303ZM837.094 303.352C830.977 303.352 827.918 299.994 827.918 293.279C827.918 289.939 828.75 287.391 830.414 285.633C832.078 283.863 834.463 282.979 837.568 282.979C839.842 282.979 841.881 283.424 843.686 284.314L842.104 288.463C841.26 288.123 840.475 287.848 839.748 287.637C839.021 287.414 838.295 287.303 837.568 287.303C834.779 287.303 833.385 289.283 833.385 293.244C833.385 297.088 834.779 299.01 837.568 299.01C838.6 299.01 839.555 298.875 840.434 298.605C841.312 298.324 842.191 297.891 843.07 297.305V301.893C842.203 302.443 841.324 302.824 840.434 303.035C839.555 303.246 838.441 303.352 837.094 303.352ZM847.412 278.268C847.412 276.521 848.385 275.648 850.33 275.648C852.275 275.648 853.248 276.521 853.248 278.268C853.248 279.1 853.002 279.75 852.51 280.219C852.029 280.676 851.303 280.904 850.33 280.904C848.385 280.904 847.412 280.025 847.412 278.268ZM853.002 303H847.641V283.348H853.002V303ZM866.924 299.08C867.861 299.08 868.986 298.875 870.299 298.465V302.455C868.963 303.053 867.322 303.352 865.377 303.352C863.232 303.352 861.668 302.812 860.684 301.734C859.711 300.645 859.225 299.016 859.225 296.848V287.373H856.658V285.105L859.611 283.312L861.158 279.164H864.586V283.348H870.088V287.373H864.586V296.848C864.586 297.609 864.797 298.172 865.219 298.535C865.652 298.898 866.221 299.08 866.924 299.08ZM874.061 278.268C874.061 276.521 875.033 275.648 876.979 275.648C878.924 275.648 879.896 276.521 879.896 278.268C879.896 279.1 879.65 279.75 879.158 280.219C878.678 280.676 877.951 280.904 876.979 280.904C875.033 280.904 874.061 280.025 874.061 278.268ZM879.65 303H874.289V283.348H879.65V303ZM903.434 303H898.072V291.521C898.072 290.104 897.82 289.043 897.316 288.34C896.812 287.625 896.01 287.268 894.908 287.268C893.408 287.268 892.324 287.771 891.656 288.779C890.988 289.775 890.654 291.434 890.654 293.754V303H885.293V283.348H889.389L890.109 285.861H890.408C891.006 284.912 891.826 284.197 892.869 283.717C893.924 283.225 895.119 282.979 896.455 282.979C898.74 282.979 900.475 283.6 901.658 284.842C902.842 286.072 903.434 287.854 903.434 290.186V303ZM926.057 283.348V286.072L922.98 286.863C923.543 287.742 923.824 288.727 923.824 289.816C923.824 291.926 923.086 293.572 921.609 294.756C920.145 295.928 918.105 296.514 915.492 296.514L914.525 296.461L913.734 296.373C913.184 296.795 912.908 297.264 912.908 297.779C912.908 298.553 913.893 298.939 915.861 298.939H919.201C921.357 298.939 922.998 299.402 924.123 300.328C925.26 301.254 925.828 302.613 925.828 304.406C925.828 306.703 924.867 308.484 922.945 309.75C921.035 311.016 918.287 311.648 914.701 311.648C911.959 311.648 909.861 311.168 908.408 310.207C906.967 309.258 906.246 307.922 906.246 306.199C906.246 305.016 906.615 304.025 907.354 303.229C908.092 302.432 909.176 301.863 910.605 301.523C910.055 301.289 909.574 300.908 909.164 300.381C908.754 299.842 908.549 299.273 908.549 298.676C908.549 297.926 908.766 297.305 909.199 296.812C909.633 296.309 910.26 295.816 911.08 295.336C910.049 294.891 909.229 294.176 908.619 293.191C908.021 292.207 907.723 291.047 907.723 289.711C907.723 287.566 908.42 285.908 909.814 284.736C911.209 283.564 913.201 282.979 915.791 282.979C916.342 282.979 916.992 283.031 917.742 283.137C918.504 283.23 918.99 283.301 919.201 283.348H926.057ZM910.887 305.777C910.887 306.516 911.238 307.096 911.941 307.518C912.656 307.939 913.652 308.15 914.93 308.15C916.852 308.15 918.357 307.887 919.447 307.359C920.537 306.832 921.082 306.111 921.082 305.197C921.082 304.459 920.76 303.949 920.115 303.668C919.471 303.387 918.475 303.246 917.127 303.246H914.35C913.365 303.246 912.539 303.475 911.871 303.932C911.215 304.4 910.887 305.016 910.887 305.777ZM912.838 289.781C912.838 290.848 913.078 291.691 913.559 292.312C914.051 292.934 914.795 293.244 915.791 293.244C916.799 293.244 917.537 292.934 918.006 292.312C918.475 291.691 918.709 290.848 918.709 289.781C918.709 287.414 917.736 286.23 915.791 286.23C913.822 286.23 912.838 287.414 912.838 289.781ZM946.939 299.08C947.877 299.08 949.002 298.875 950.314 298.465V302.455C948.979 303.053 947.338 303.352 945.393 303.352C943.248 303.352 941.684 302.812 940.699 301.734C939.727 300.645 939.24 299.016 939.24 296.848V287.373H936.674V285.105L939.627 283.312L941.174 279.164H944.602V283.348H950.104V287.373H944.602V296.848C944.602 297.609 944.812 298.172 945.234 298.535C945.668 298.898 946.236 299.08 946.939 299.08ZM972.445 303H967.084V291.521C967.084 288.686 966.029 287.268 963.92 287.268C962.42 287.268 961.336 287.777 960.668 288.797C960 289.816 959.666 291.469 959.666 293.754V303H954.305V275.648H959.666V281.221C959.666 281.654 959.625 282.674 959.543 284.279L959.42 285.861H959.701C960.896 283.939 962.795 282.979 965.396 282.979C967.705 282.979 969.457 283.6 970.652 284.842C971.848 286.084 972.445 287.865 972.445 290.186V303ZM982.236 293.139C982.236 295.084 982.553 296.555 983.186 297.551C983.83 298.547 984.873 299.045 986.314 299.045C987.744 299.045 988.77 298.553 989.391 297.568C990.023 296.572 990.34 295.096 990.34 293.139C990.34 291.193 990.023 289.734 989.391 288.762C988.758 287.789 987.721 287.303 986.279 287.303C984.85 287.303 983.818 287.789 983.186 288.762C982.553 289.723 982.236 291.182 982.236 293.139ZM995.824 293.139C995.824 296.338 994.98 298.84 993.293 300.645C991.605 302.449 989.256 303.352 986.244 303.352C984.357 303.352 982.693 302.941 981.252 302.121C979.811 301.289 978.703 300.1 977.93 298.553C977.156 297.006 976.77 295.201 976.77 293.139C976.77 289.928 977.607 287.432 979.283 285.65C980.959 283.869 983.314 282.979 986.35 282.979C988.236 282.979 989.9 283.389 991.342 284.209C992.783 285.029 993.891 286.207 994.664 287.742C995.438 289.277 995.824 291.076 995.824 293.139ZM1013.96 297.164C1013.96 299.18 1013.26 300.715 1011.86 301.77C1010.46 302.824 1008.37 303.352 1005.58 303.352C1004.15 303.352 1002.93 303.252 1001.92 303.053C1000.92 302.865 999.973 302.584 999.094 302.209V297.779C1000.09 298.248 1001.21 298.641 1002.45 298.957C1003.71 299.273 1004.81 299.432 1005.76 299.432C1007.7 299.432 1008.67 298.869 1008.67 297.744C1008.67 297.322 1008.54 296.982 1008.29 296.725C1008.03 296.455 1007.58 296.156 1006.95 295.828C1006.32 295.488 1005.47 295.096 1004.42 294.65C1002.91 294.018 1001.79 293.432 1001.08 292.893C1000.38 292.354 999.861 291.738 999.533 291.047C999.217 290.344 999.059 289.482 999.059 288.463C999.059 286.717 999.732 285.369 1001.08 284.42C1002.44 283.459 1004.36 282.979 1006.85 282.979C1009.21 282.979 1011.52 283.494 1013.75 284.525L1012.14 288.393C1011.15 287.971 1010.23 287.625 1009.38 287.355C1008.52 287.086 1007.65 286.951 1006.76 286.951C1005.18 286.951 1004.38 287.379 1004.38 288.234C1004.38 288.715 1004.64 289.131 1005.14 289.482C1005.66 289.834 1006.78 290.355 1008.5 291.047C1010.03 291.668 1011.16 292.248 1011.87 292.787C1012.59 293.326 1013.12 293.947 1013.46 294.65C1013.79 295.354 1013.96 296.191 1013.96 297.164ZM1026.29 286.793C1025.15 286.793 1024.26 287.156 1023.62 287.883C1022.97 288.598 1022.6 289.617 1022.51 290.941H1030.03C1030.01 289.617 1029.66 288.598 1028.99 287.883C1028.33 287.156 1027.42 286.793 1026.29 286.793ZM1027.04 303.352C1023.88 303.352 1021.41 302.479 1019.62 300.732C1017.84 298.986 1016.95 296.514 1016.95 293.314C1016.95 290.021 1017.77 287.479 1019.41 285.686C1021.07 283.881 1023.35 282.979 1026.25 282.979C1029.03 282.979 1031.19 283.77 1032.74 285.352C1034.29 286.934 1035.06 289.119 1035.06 291.908V294.51H1022.38C1022.44 296.033 1022.89 297.223 1023.74 298.078C1024.58 298.934 1025.77 299.361 1027.29 299.361C1028.47 299.361 1029.59 299.238 1030.65 298.992C1031.7 298.746 1032.8 298.354 1033.95 297.814V301.963C1033.01 302.432 1032.01 302.777 1030.95 303C1029.88 303.234 1028.58 303.352 1027.04 303.352ZM1064.92 303L1063.41 296.127L1061.37 287.443H1061.25L1057.66 303H1051.9L1046.31 283.348H1051.65L1053.92 292.049C1054.28 293.607 1054.65 295.758 1055.03 298.5H1055.13C1055.18 297.609 1055.38 296.197 1055.75 294.264L1056.03 292.77L1058.46 283.348H1064.36L1066.66 292.77C1066.71 293.027 1066.78 293.408 1066.88 293.912C1066.98 294.416 1067.08 294.955 1067.17 295.529C1067.27 296.092 1067.35 296.648 1067.42 297.199C1067.5 297.738 1067.55 298.172 1067.56 298.5H1067.67C1067.77 297.656 1067.96 296.502 1068.23 295.037C1068.5 293.561 1068.69 292.564 1068.81 292.049L1071.16 283.348H1076.42L1070.76 303H1064.92ZM1097.74 303H1092.38V291.521C1092.38 288.686 1091.33 287.268 1089.22 287.268C1087.72 287.268 1086.63 287.777 1085.96 288.797C1085.3 289.816 1084.96 291.469 1084.96 293.754V303H1079.6V275.648H1084.96V281.221C1084.96 281.654 1084.92 282.674 1084.84 284.279L1084.72 285.861H1085C1086.19 283.939 1088.09 282.979 1090.69 282.979C1093 282.979 1094.75 283.6 1095.95 284.842C1097.14 286.084 1097.74 287.865 1097.74 290.186V303ZM1107.53 293.139C1107.53 295.084 1107.85 296.555 1108.48 297.551C1109.13 298.547 1110.17 299.045 1111.61 299.045C1113.04 299.045 1114.07 298.553 1114.69 297.568C1115.32 296.572 1115.64 295.096 1115.64 293.139C1115.64 291.193 1115.32 289.734 1114.69 288.762C1114.05 287.789 1113.02 287.303 1111.58 287.303C1110.15 287.303 1109.12 287.789 1108.48 288.762C1107.85 289.723 1107.53 291.182 1107.53 293.139ZM1121.12 293.139C1121.12 296.338 1120.28 298.84 1118.59 300.645C1116.9 302.449 1114.55 303.352 1111.54 303.352C1109.65 303.352 1107.99 302.941 1106.55 302.121C1105.11 301.289 1104 300.1 1103.23 298.553C1102.45 297.006 1102.07 295.201 1102.07 293.139C1102.07 289.928 1102.9 287.432 1104.58 285.65C1106.26 283.869 1108.61 282.979 1111.65 282.979C1113.53 282.979 1115.2 283.389 1116.64 284.209C1118.08 285.029 1119.19 286.207 1119.96 287.742C1120.73 289.277 1121.12 291.076 1121.12 293.139ZM781.793 352.352C775.676 352.352 772.617 348.994 772.617 342.279C772.617 338.939 773.449 336.391 775.113 334.633C776.777 332.863 779.162 331.979 782.268 331.979C784.541 331.979 786.58 332.424 788.385 333.314L786.803 337.463C785.959 337.123 785.174 336.848 784.447 336.637C783.721 336.414 782.994 336.303 782.268 336.303C779.479 336.303 778.084 338.283 778.084 342.244C778.084 346.088 779.479 348.01 782.268 348.01C783.299 348.01 784.254 347.875 785.133 347.605C786.012 347.324 786.891 346.891 787.77 346.305V350.893C786.902 351.443 786.023 351.824 785.133 352.035C784.254 352.246 783.141 352.352 781.793 352.352ZM804.82 352L803.783 349.328H803.643C802.74 350.465 801.809 351.256 800.848 351.701C799.898 352.135 798.656 352.352 797.121 352.352C795.234 352.352 793.746 351.812 792.656 350.734C791.578 349.656 791.039 348.121 791.039 346.129C791.039 344.043 791.766 342.508 793.219 341.523C794.684 340.527 796.887 339.977 799.828 339.871L803.238 339.766V338.904C803.238 336.912 802.219 335.916 800.18 335.916C798.609 335.916 796.764 336.391 794.643 337.34L792.867 333.719C795.129 332.535 797.637 331.943 800.391 331.943C803.027 331.943 805.049 332.518 806.455 333.666C807.861 334.814 808.564 336.561 808.564 338.904V352H804.82ZM803.238 342.895L801.164 342.965C799.605 343.012 798.445 343.293 797.684 343.809C796.922 344.324 796.541 345.109 796.541 346.164C796.541 347.676 797.408 348.432 799.143 348.432C800.385 348.432 801.375 348.074 802.113 347.359C802.863 346.645 803.238 345.695 803.238 344.512V342.895ZM831.697 352H826.336V340.521C826.336 339.104 826.096 338.043 825.615 337.34C825.146 336.625 824.402 336.268 823.383 336.268C822.012 336.268 821.016 336.771 820.395 337.779C819.773 338.787 819.463 340.445 819.463 342.754V352H814.102V332.348H818.197L818.918 334.861H819.217C819.744 333.959 820.506 333.256 821.502 332.752C822.498 332.236 823.641 331.979 824.93 331.979C827.871 331.979 829.863 332.939 830.906 334.861H831.381C831.908 333.947 832.682 333.238 833.701 332.734C834.732 332.23 835.893 331.979 837.182 331.979C839.408 331.979 841.09 332.553 842.227 333.701C843.375 334.838 843.949 336.666 843.949 339.186V352H838.57V340.521C838.57 339.104 838.33 338.043 837.85 337.34C837.381 336.625 836.637 336.268 835.617 336.268C834.305 336.268 833.32 336.736 832.664 337.674C832.02 338.611 831.697 340.1 831.697 342.139V352ZM857.607 335.793C856.471 335.793 855.58 336.156 854.936 336.883C854.291 337.598 853.922 338.617 853.828 339.941H861.352C861.328 338.617 860.982 337.598 860.314 336.883C859.646 336.156 858.744 335.793 857.607 335.793ZM858.363 352.352C855.199 352.352 852.727 351.479 850.945 349.732C849.164 347.986 848.273 345.514 848.273 342.314C848.273 339.021 849.094 336.479 850.734 334.686C852.387 332.881 854.666 331.979 857.572 331.979C860.35 331.979 862.512 332.77 864.059 334.352C865.605 335.934 866.379 338.119 866.379 340.908V343.51H853.705C853.764 345.033 854.215 346.223 855.059 347.078C855.902 347.934 857.086 348.361 858.609 348.361C859.793 348.361 860.912 348.238 861.967 347.992C863.021 347.746 864.123 347.354 865.271 346.814V350.963C864.334 351.432 863.332 351.777 862.266 352C861.199 352.234 859.898 352.352 858.363 352.352ZM891.023 331.979C893.344 331.979 895.16 332.887 896.473 334.703C897.785 336.508 898.441 338.986 898.441 342.139C898.441 345.385 897.762 347.898 896.402 349.68C895.055 351.461 893.215 352.352 890.883 352.352C888.574 352.352 886.764 351.514 885.451 349.838H885.082L884.186 352H880.09V324.648H885.451V331.012C885.451 331.82 885.381 333.115 885.24 334.896H885.451C886.705 332.951 888.562 331.979 891.023 331.979ZM889.301 336.268C887.977 336.268 887.01 336.678 886.4 337.498C885.791 338.307 885.475 339.648 885.451 341.523V342.104C885.451 344.213 885.762 345.725 886.383 346.639C887.016 347.553 888.012 348.01 889.371 348.01C890.473 348.01 891.346 347.506 891.99 346.498C892.646 345.479 892.975 344.002 892.975 342.068C892.975 340.135 892.646 338.688 891.99 337.727C891.334 336.754 890.438 336.268 889.301 336.268ZM911.01 335.793C909.873 335.793 908.982 336.156 908.338 336.883C907.693 337.598 907.324 338.617 907.23 339.941H914.754C914.73 338.617 914.385 337.598 913.717 336.883C913.049 336.156 912.146 335.793 911.01 335.793ZM911.766 352.352C908.602 352.352 906.129 351.479 904.348 349.732C902.566 347.986 901.676 345.514 901.676 342.314C901.676 339.021 902.496 336.479 904.137 334.686C905.789 332.881 908.068 331.979 910.975 331.979C913.752 331.979 915.914 332.77 917.461 334.352C919.008 335.934 919.781 338.119 919.781 340.908V343.51H907.107C907.166 345.033 907.617 346.223 908.461 347.078C909.305 347.934 910.488 348.361 912.012 348.361C913.195 348.361 914.314 348.238 915.369 347.992C916.424 347.746 917.525 347.354 918.674 346.814V350.963C917.736 351.432 916.734 351.777 915.668 352C914.602 352.234 913.301 352.352 911.766 352.352ZM935.004 336.373H930.363V352H925.002V336.373H922.049V333.789L925.002 332.348V330.906C925.002 328.668 925.553 327.033 926.654 326.002C927.756 324.971 929.52 324.455 931.945 324.455C933.797 324.455 935.443 324.73 936.885 325.281L935.514 329.219C934.436 328.879 933.439 328.709 932.525 328.709C931.764 328.709 931.213 328.938 930.873 329.395C930.533 329.84 930.363 330.414 930.363 331.117V332.348H935.004V336.373ZM942.369 342.139C942.369 344.084 942.686 345.555 943.318 346.551C943.963 347.547 945.006 348.045 946.447 348.045C947.877 348.045 948.902 347.553 949.523 346.568C950.156 345.572 950.473 344.096 950.473 342.139C950.473 340.193 950.156 338.734 949.523 337.762C948.891 336.789 947.854 336.303 946.412 336.303C944.982 336.303 943.951 336.789 943.318 337.762C942.686 338.723 942.369 340.182 942.369 342.139ZM955.957 342.139C955.957 345.338 955.113 347.84 953.426 349.645C951.738 351.449 949.389 352.352 946.377 352.352C944.49 352.352 942.826 351.941 941.385 351.121C939.943 350.289 938.836 349.1 938.062 347.553C937.289 346.006 936.902 344.201 936.902 342.139C936.902 338.928 937.74 336.432 939.416 334.65C941.092 332.869 943.447 331.979 946.482 331.979C948.369 331.979 950.033 332.389 951.475 333.209C952.916 334.029 954.023 335.207 954.797 336.742C955.57 338.277 955.957 340.076 955.957 342.139ZM971.355 331.979C972.082 331.979 972.686 332.031 973.166 332.137L972.762 337.164C972.328 337.047 971.801 336.988 971.18 336.988C969.469 336.988 968.133 337.428 967.172 338.307C966.223 339.186 965.748 340.416 965.748 341.998V352H960.387V332.348H964.447L965.238 335.652H965.502C966.111 334.551 966.932 333.666 967.963 332.998C969.006 332.318 970.137 331.979 971.355 331.979ZM984.873 335.793C983.736 335.793 982.846 336.156 982.201 336.883C981.557 337.598 981.188 338.617 981.094 339.941H988.617C988.594 338.617 988.248 337.598 987.58 336.883C986.912 336.156 986.01 335.793 984.873 335.793ZM985.629 352.352C982.465 352.352 979.992 351.479 978.211 349.732C976.43 347.986 975.539 345.514 975.539 342.314C975.539 339.021 976.359 336.479 978 334.686C979.652 332.881 981.932 331.979 984.838 331.979C987.615 331.979 989.777 332.77 991.324 334.352C992.871 335.934 993.645 338.119 993.645 340.908V343.51H980.971C981.029 345.033 981.48 346.223 982.324 347.078C983.168 347.934 984.352 348.361 985.875 348.361C987.059 348.361 988.178 348.238 989.232 347.992C990.287 347.746 991.389 347.354 992.537 346.814V350.963C991.6 351.432 990.598 351.777 989.531 352C988.465 352.234 987.164 352.352 985.629 352.352ZM1021.28 352L1020.56 349.486H1020.28C1019.7 350.4 1018.89 351.109 1017.83 351.613C1016.78 352.105 1015.58 352.352 1014.23 352.352C1011.92 352.352 1010.18 351.736 1009.01 350.506C1007.84 349.264 1007.25 347.482 1007.25 345.162V332.348H1012.61V343.826C1012.61 345.244 1012.86 346.311 1013.37 347.025C1013.87 347.729 1014.67 348.08 1015.78 348.08C1017.28 348.08 1018.36 347.582 1019.03 346.586C1019.7 345.578 1020.03 343.914 1020.03 341.594V332.348H1025.39V352H1021.28ZM1044.73 346.164C1044.73 348.18 1044.02 349.715 1042.62 350.77C1041.22 351.824 1039.13 352.352 1036.34 352.352C1034.91 352.352 1033.69 352.252 1032.69 352.053C1031.68 351.865 1030.73 351.584 1029.86 351.209V346.779C1030.85 347.248 1031.97 347.641 1033.21 347.957C1034.47 348.273 1035.57 348.432 1036.52 348.432C1038.46 348.432 1039.44 347.869 1039.44 346.744C1039.44 346.322 1039.31 345.982 1039.05 345.725C1038.79 345.455 1038.35 345.156 1037.71 344.828C1037.08 344.488 1036.24 344.096 1035.18 343.65C1033.67 343.018 1032.56 342.432 1031.84 341.893C1031.14 341.354 1030.62 340.738 1030.29 340.047C1029.98 339.344 1029.82 338.482 1029.82 337.463C1029.82 335.717 1030.49 334.369 1031.84 333.42C1033.2 332.459 1035.12 331.979 1037.61 331.979C1039.97 331.979 1042.28 332.494 1044.52 333.525L1042.9 337.393C1041.91 336.971 1040.99 336.625 1040.14 336.355C1039.28 336.086 1038.41 335.951 1037.52 335.951C1035.94 335.951 1035.15 336.379 1035.15 337.234C1035.15 337.715 1035.4 338.131 1035.9 338.482C1036.42 338.834 1037.54 339.355 1039.26 340.047C1040.79 340.668 1041.92 341.248 1042.63 341.787C1043.35 342.326 1043.88 342.947 1044.22 343.65C1044.56 344.354 1044.73 345.191 1044.73 346.164ZM1048.15 349.486C1048.15 348.502 1048.42 347.758 1048.95 347.254C1049.47 346.75 1050.24 346.498 1051.25 346.498C1052.22 346.498 1052.97 346.756 1053.5 347.271C1054.04 347.787 1054.31 348.525 1054.31 349.486C1054.31 350.412 1054.04 351.145 1053.5 351.684C1052.96 352.211 1052.21 352.475 1051.25 352.475C1050.26 352.475 1049.5 352.217 1048.96 351.701C1048.42 351.174 1048.15 350.436 1048.15 349.486Z" fill="white"/>
<path d="M1046.84 462.301H1054.84C1058.49 462.301 1061.13 462.822 1062.77 463.865C1064.42 464.896 1065.25 466.543 1065.25 468.805C1065.25 470.34 1064.88 471.6 1064.16 472.584C1063.44 473.568 1062.49 474.16 1061.29 474.359V474.535C1062.92 474.898 1064.09 475.578 1064.81 476.574C1065.54 477.57 1065.9 478.895 1065.9 480.547C1065.9 482.891 1065.05 484.719 1063.35 486.031C1061.66 487.344 1059.37 488 1056.46 488H1046.84V462.301ZM1052.29 472.479H1055.46C1056.93 472.479 1058 472.25 1058.66 471.793C1059.32 471.336 1059.66 470.58 1059.66 469.525C1059.66 468.541 1059.29 467.838 1058.57 467.416C1057.85 466.982 1056.72 466.766 1055.16 466.766H1052.29V472.479ZM1052.29 476.803V483.5H1055.84C1057.34 483.5 1058.45 483.213 1059.17 482.639C1059.88 482.064 1060.24 481.186 1060.24 480.002C1060.24 477.869 1058.71 476.803 1055.67 476.803H1052.29ZM1084.53 488L1083.81 485.486H1083.53C1082.96 486.4 1082.14 487.109 1081.09 487.613C1080.03 488.105 1078.83 488.352 1077.48 488.352C1075.17 488.352 1073.43 487.736 1072.26 486.506C1071.09 485.264 1070.5 483.482 1070.5 481.162V468.348H1075.87V479.826C1075.87 481.244 1076.12 482.311 1076.62 483.025C1077.12 483.729 1077.93 484.08 1079.03 484.08C1080.53 484.08 1081.61 483.582 1082.28 482.586C1082.95 481.578 1083.28 479.914 1083.28 477.594V468.348H1088.64V488H1084.53ZM1102.55 484.08C1103.49 484.08 1104.61 483.875 1105.92 483.465V487.455C1104.59 488.053 1102.95 488.352 1101 488.352C1098.86 488.352 1097.29 487.812 1096.31 486.734C1095.34 485.645 1094.85 484.016 1094.85 481.848V472.373H1092.28V470.105L1095.24 468.312L1096.78 464.164H1100.21V468.348H1105.71V472.373H1100.21V481.848C1100.21 482.609 1100.42 483.172 1100.84 483.535C1101.28 483.898 1101.85 484.08 1102.55 484.08ZM1135.42 488L1133.91 481.127L1131.87 472.443H1131.75L1128.16 488H1122.39L1116.8 468.348H1122.15L1124.42 477.049C1124.78 478.607 1125.15 480.758 1125.52 483.5H1125.63C1125.68 482.609 1125.88 481.197 1126.24 479.264L1126.53 477.77L1128.95 468.348H1134.86L1137.16 477.77C1137.21 478.027 1137.28 478.408 1137.37 478.912C1137.48 479.416 1137.58 479.955 1137.67 480.529C1137.76 481.092 1137.85 481.648 1137.92 482.199C1138 482.738 1138.04 483.172 1138.06 483.5H1138.16C1138.27 482.656 1138.46 481.502 1138.72 480.037C1138.99 478.561 1139.19 477.564 1139.3 477.049L1141.66 468.348H1146.92L1141.26 488H1135.42ZM1168.24 488H1162.88V476.521C1162.88 473.686 1161.82 472.268 1159.71 472.268C1158.21 472.268 1157.13 472.777 1156.46 473.797C1155.79 474.816 1155.46 476.469 1155.46 478.754V488H1150.1V460.648H1155.46V466.221C1155.46 466.654 1155.42 467.674 1155.34 469.279L1155.21 470.861H1155.49C1156.69 468.939 1158.59 467.979 1161.19 467.979C1163.5 467.979 1165.25 468.6 1166.45 469.842C1167.64 471.084 1168.24 472.865 1168.24 475.186V488ZM1186.24 488L1185.2 485.328H1185.06C1184.16 486.465 1183.23 487.256 1182.27 487.701C1181.32 488.135 1180.07 488.352 1178.54 488.352C1176.65 488.352 1175.16 487.812 1174.07 486.734C1173 485.656 1172.46 484.121 1172.46 482.129C1172.46 480.043 1173.18 478.508 1174.64 477.523C1176.1 476.527 1178.3 475.977 1181.25 475.871L1184.66 475.766V474.904C1184.66 472.912 1183.64 471.916 1181.6 471.916C1180.03 471.916 1178.18 472.391 1176.06 473.34L1174.29 469.719C1176.55 468.535 1179.05 467.943 1181.81 467.943C1184.45 467.943 1186.47 468.518 1187.87 469.666C1189.28 470.814 1189.98 472.561 1189.98 474.904V488H1186.24ZM1184.66 478.895L1182.58 478.965C1181.02 479.012 1179.86 479.293 1179.1 479.809C1178.34 480.324 1177.96 481.109 1177.96 482.164C1177.96 483.676 1178.83 484.432 1180.56 484.432C1181.8 484.432 1182.79 484.074 1183.53 483.359C1184.28 482.645 1184.66 481.695 1184.66 480.512V478.895ZM1203.8 484.08C1204.74 484.08 1205.86 483.875 1207.17 483.465V487.455C1205.84 488.053 1204.2 488.352 1202.25 488.352C1200.11 488.352 1198.54 487.812 1197.56 486.734C1196.59 485.645 1196.1 484.016 1196.1 481.848V472.373H1193.53V470.105L1196.49 468.312L1198.03 464.164H1201.46V468.348H1206.96V472.373H1201.46V481.848C1201.46 482.609 1201.67 483.172 1202.09 483.535C1202.53 483.898 1203.1 484.08 1203.8 484.08ZM1226.74 488.352C1224.43 488.352 1222.61 487.455 1221.29 485.662C1219.98 483.869 1219.32 481.385 1219.32 478.209C1219.32 474.986 1219.99 472.479 1221.32 470.686C1222.67 468.881 1224.52 467.979 1226.88 467.979C1229.35 467.979 1231.24 468.939 1232.54 470.861H1232.71C1232.45 469.396 1232.31 468.09 1232.31 466.941V460.648H1237.69V488H1233.58L1232.54 485.451H1232.31C1231.09 487.385 1229.23 488.352 1226.74 488.352ZM1228.62 484.08C1229.99 484.08 1230.99 483.682 1231.62 482.885C1232.27 482.088 1232.62 480.734 1232.68 478.824V478.244C1232.68 476.135 1232.35 474.623 1231.7 473.709C1231.05 472.795 1230 472.338 1228.53 472.338C1227.34 472.338 1226.4 472.848 1225.74 473.867C1225.08 474.875 1224.75 476.346 1224.75 478.279C1224.75 480.213 1225.09 481.666 1225.75 482.639C1226.42 483.6 1227.38 484.08 1228.62 484.08ZM1247.57 478.139C1247.57 480.084 1247.88 481.555 1248.52 482.551C1249.16 483.547 1250.21 484.045 1251.65 484.045C1253.08 484.045 1254.1 483.553 1254.72 482.568C1255.36 481.572 1255.67 480.096 1255.67 478.139C1255.67 476.193 1255.36 474.734 1254.72 473.762C1254.09 472.789 1253.05 472.303 1251.61 472.303C1250.18 472.303 1249.15 472.789 1248.52 473.762C1247.88 474.723 1247.57 476.182 1247.57 478.139ZM1261.16 478.139C1261.16 481.338 1260.31 483.84 1258.62 485.645C1256.94 487.449 1254.59 488.352 1251.58 488.352C1249.69 488.352 1248.03 487.941 1246.58 487.121C1245.14 486.289 1244.04 485.1 1243.26 483.553C1242.49 482.006 1242.1 480.201 1242.1 478.139C1242.1 474.928 1242.94 472.432 1244.62 470.65C1246.29 468.869 1248.65 467.979 1251.68 467.979C1253.57 467.979 1255.23 468.389 1256.67 469.209C1258.12 470.029 1259.22 471.207 1260 472.742C1260.77 474.277 1261.16 476.076 1261.16 478.139ZM1273.72 471.793C1272.59 471.793 1271.7 472.156 1271.05 472.883C1270.41 473.598 1270.04 474.617 1269.95 475.941H1277.47C1277.45 474.617 1277.1 473.598 1276.43 472.883C1275.76 472.156 1274.86 471.793 1273.72 471.793ZM1274.48 488.352C1271.32 488.352 1268.84 487.479 1267.06 485.732C1265.28 483.986 1264.39 481.514 1264.39 478.314C1264.39 475.021 1265.21 472.479 1266.85 470.686C1268.5 468.881 1270.78 467.979 1273.69 467.979C1276.47 467.979 1278.63 468.77 1280.18 470.352C1281.72 471.934 1282.5 474.119 1282.5 476.908V479.51H1269.82C1269.88 481.033 1270.33 482.223 1271.18 483.078C1272.02 483.934 1273.2 484.361 1274.73 484.361C1275.91 484.361 1277.03 484.238 1278.08 483.992C1279.14 483.746 1280.24 483.354 1281.39 482.814V486.963C1280.45 487.432 1279.45 487.777 1278.38 488C1277.32 488.234 1276.02 488.352 1274.48 488.352ZM1300.57 482.164C1300.57 484.18 1299.86 485.715 1298.46 486.77C1297.06 487.824 1294.97 488.352 1292.18 488.352C1290.75 488.352 1289.53 488.252 1288.53 488.053C1287.52 487.865 1286.57 487.584 1285.7 487.209V482.779C1286.69 483.248 1287.81 483.641 1289.05 483.957C1290.31 484.273 1291.41 484.432 1292.36 484.432C1294.3 484.432 1295.28 483.869 1295.28 482.744C1295.28 482.322 1295.15 481.982 1294.89 481.725C1294.63 481.455 1294.19 481.156 1293.55 480.828C1292.92 480.488 1292.08 480.096 1291.02 479.65C1289.51 479.018 1288.4 478.432 1287.68 477.893C1286.98 477.354 1286.46 476.738 1286.13 476.047C1285.82 475.344 1285.66 474.482 1285.66 473.463C1285.66 471.717 1286.33 470.369 1287.68 469.42C1289.04 468.459 1290.96 467.979 1293.45 467.979C1295.81 467.979 1298.12 468.494 1300.36 469.525L1298.74 473.393C1297.75 472.971 1296.83 472.625 1295.98 472.355C1295.12 472.086 1294.25 471.951 1293.36 471.951C1291.78 471.951 1290.99 472.379 1290.99 473.234C1290.99 473.715 1291.24 474.131 1291.74 474.482C1292.26 474.834 1293.38 475.355 1295.1 476.047C1296.63 476.668 1297.76 477.248 1298.47 477.787C1299.19 478.326 1299.72 478.947 1300.06 479.65C1300.4 480.354 1300.57 481.191 1300.57 482.164ZM1322.38 484.08C1323.32 484.08 1324.44 483.875 1325.76 483.465V487.455C1324.42 488.053 1322.78 488.352 1320.83 488.352C1318.69 488.352 1317.12 487.812 1316.14 486.734C1315.17 485.645 1314.68 484.016 1314.68 481.848V472.373H1312.12V470.105L1315.07 468.312L1316.62 464.164H1320.04V468.348H1325.54V472.373H1320.04V481.848C1320.04 482.609 1320.25 483.172 1320.68 483.535C1321.11 483.898 1321.68 484.08 1322.38 484.08ZM1347.89 488H1342.53V476.521C1342.53 473.686 1341.47 472.268 1339.36 472.268C1337.86 472.268 1336.78 472.777 1336.11 473.797C1335.44 474.816 1335.11 476.469 1335.11 478.754V488H1329.75V460.648H1335.11V466.221C1335.11 466.654 1335.07 467.674 1334.98 469.279L1334.86 470.861H1335.14C1336.34 468.939 1338.24 467.979 1340.84 467.979C1343.15 467.979 1344.9 468.6 1346.09 469.842C1347.29 471.084 1347.89 472.865 1347.89 475.186V488ZM1365.89 488L1364.85 485.328H1364.71C1363.81 486.465 1362.88 487.256 1361.91 487.701C1360.96 488.135 1359.72 488.352 1358.19 488.352C1356.3 488.352 1354.81 487.812 1353.72 486.734C1352.64 485.656 1352.11 484.121 1352.11 482.129C1352.11 480.043 1352.83 478.508 1354.29 477.523C1355.75 476.527 1357.95 475.977 1360.89 475.871L1364.3 475.766V474.904C1364.3 472.912 1363.29 471.916 1361.25 471.916C1359.68 471.916 1357.83 472.391 1355.71 473.34L1353.93 469.719C1356.2 468.535 1358.7 467.943 1361.46 467.943C1364.09 467.943 1366.12 468.518 1367.52 469.666C1368.93 470.814 1369.63 472.561 1369.63 474.904V488H1365.89ZM1364.3 478.895L1362.23 478.965C1360.67 479.012 1359.51 479.293 1358.75 479.809C1357.99 480.324 1357.61 481.109 1357.61 482.164C1357.61 483.676 1358.47 484.432 1360.21 484.432C1361.45 484.432 1362.44 484.074 1363.18 483.359C1363.93 482.645 1364.3 481.695 1364.3 480.512V478.895ZM1383.45 484.08C1384.38 484.08 1385.51 483.875 1386.82 483.465V487.455C1385.49 488.053 1383.85 488.352 1381.9 488.352C1379.76 488.352 1378.19 487.812 1377.21 486.734C1376.23 485.645 1375.75 484.016 1375.75 481.848V472.373H1373.18V470.105L1376.13 468.312L1377.68 464.164H1381.11V468.348H1386.61V472.373H1381.11V481.848C1381.11 482.609 1381.32 483.172 1381.74 483.535C1382.18 483.898 1382.74 484.08 1383.45 484.08ZM1171.3 516.979C1172.02 516.979 1172.63 517.031 1173.11 517.137L1172.7 522.164C1172.27 522.047 1171.74 521.988 1171.12 521.988C1169.41 521.988 1168.07 522.428 1167.11 523.307C1166.16 524.186 1165.69 525.416 1165.69 526.998V537H1160.33V517.348H1164.39L1165.18 520.652H1165.44C1166.05 519.551 1166.87 518.666 1167.9 517.998C1168.95 517.318 1170.08 516.979 1171.3 516.979ZM1184.81 520.793C1183.68 520.793 1182.79 521.156 1182.14 521.883C1181.5 522.598 1181.13 523.617 1181.04 524.941H1188.56C1188.54 523.617 1188.19 522.598 1187.52 521.883C1186.85 521.156 1185.95 520.793 1184.81 520.793ZM1185.57 537.352C1182.41 537.352 1179.93 536.479 1178.15 534.732C1176.37 532.986 1175.48 530.514 1175.48 527.314C1175.48 524.021 1176.3 521.479 1177.94 519.686C1179.59 517.881 1181.87 516.979 1184.78 516.979C1187.56 516.979 1189.72 517.77 1191.27 519.352C1192.81 520.934 1193.59 523.119 1193.59 525.908V528.51H1180.91C1180.97 530.033 1181.42 531.223 1182.27 532.078C1183.11 532.934 1184.29 533.361 1185.82 533.361C1187 533.361 1188.12 533.238 1189.17 532.992C1190.23 532.746 1191.33 532.354 1192.48 531.814V535.963C1191.54 536.432 1190.54 536.777 1189.47 537C1188.41 537.234 1187.11 537.352 1185.57 537.352ZM1210.43 537L1209.39 534.328H1209.25C1208.35 535.465 1207.41 536.256 1206.45 536.701C1205.5 537.135 1204.26 537.352 1202.73 537.352C1200.84 537.352 1199.35 536.812 1198.26 535.734C1197.18 534.656 1196.64 533.121 1196.64 531.129C1196.64 529.043 1197.37 527.508 1198.82 526.523C1200.29 525.527 1202.49 524.977 1205.43 524.871L1208.84 524.766V523.904C1208.84 521.912 1207.82 520.916 1205.79 520.916C1204.21 520.916 1202.37 521.391 1200.25 522.34L1198.47 518.719C1200.73 517.535 1203.24 516.943 1206 516.943C1208.63 516.943 1210.65 517.518 1212.06 518.666C1213.47 519.814 1214.17 521.561 1214.17 523.904V537H1210.43ZM1208.84 527.895L1206.77 527.965C1205.21 528.012 1204.05 528.293 1203.29 528.809C1202.53 529.324 1202.15 530.109 1202.15 531.164C1202.15 532.676 1203.01 533.432 1204.75 533.432C1205.99 533.432 1206.98 533.074 1207.72 532.359C1208.47 531.645 1208.84 530.695 1208.84 529.512V527.895ZM1225.07 537H1219.71V509.648H1225.07V537ZM1236.07 537H1230.71V509.648H1236.07V537ZM1238.9 517.348H1244.77L1248.48 528.404C1248.8 529.365 1249.02 530.502 1249.13 531.814H1249.24C1249.37 530.607 1249.62 529.471 1249.99 528.404L1253.63 517.348H1259.38L1251.07 539.514C1250.3 541.564 1249.21 543.1 1247.8 544.119C1246.39 545.139 1244.74 545.648 1242.86 545.648C1241.93 545.648 1241.02 545.549 1240.13 545.35V541.096C1240.78 541.248 1241.48 541.324 1242.24 541.324C1243.19 541.324 1244.02 541.031 1244.72 540.445C1245.44 539.871 1245.99 538.998 1246.39 537.826L1246.71 536.859L1238.9 517.348ZM1289.16 537H1283.8V525.521C1283.8 524.104 1283.56 523.043 1283.08 522.34C1282.61 521.625 1281.86 521.268 1280.84 521.268C1279.47 521.268 1278.48 521.771 1277.86 522.779C1277.23 523.787 1276.92 525.445 1276.92 527.754V537H1271.56V517.348H1275.66L1276.38 519.861H1276.68C1277.21 518.959 1277.97 518.256 1278.96 517.752C1279.96 517.236 1281.1 516.979 1282.39 516.979C1285.33 516.979 1287.32 517.939 1288.37 519.861H1288.84C1289.37 518.947 1290.14 518.238 1291.16 517.734C1292.19 517.23 1293.35 516.979 1294.64 516.979C1296.87 516.979 1298.55 517.553 1299.69 518.701C1300.84 519.838 1301.41 521.666 1301.41 524.186V537H1296.03V525.521C1296.03 524.104 1295.79 523.043 1295.31 522.34C1294.84 521.625 1294.1 521.268 1293.08 521.268C1291.77 521.268 1290.78 521.736 1290.12 522.674C1289.48 523.611 1289.16 525.1 1289.16 527.139V537ZM1315.07 520.793C1313.93 520.793 1313.04 521.156 1312.4 521.883C1311.75 522.598 1311.38 523.617 1311.29 524.941H1318.81C1318.79 523.617 1318.44 522.598 1317.78 521.883C1317.11 521.156 1316.21 520.793 1315.07 520.793ZM1315.82 537.352C1312.66 537.352 1310.19 536.479 1308.41 534.732C1306.62 532.986 1305.73 530.514 1305.73 527.314C1305.73 524.021 1306.55 521.479 1308.2 519.686C1309.85 517.881 1312.13 516.979 1315.03 516.979C1317.81 516.979 1319.97 517.77 1321.52 519.352C1323.07 520.934 1323.84 523.119 1323.84 525.908V528.51H1311.17C1311.22 530.033 1311.68 531.223 1312.52 532.078C1313.36 532.934 1314.55 533.361 1316.07 533.361C1317.25 533.361 1318.37 533.238 1319.43 532.992C1320.48 532.746 1321.58 532.354 1322.73 531.814V535.963C1321.79 536.432 1320.79 536.777 1319.73 537C1318.66 537.234 1317.36 537.352 1315.82 537.352ZM1340.68 537L1339.64 534.328H1339.5C1338.6 535.465 1337.67 536.256 1336.71 536.701C1335.76 537.135 1334.52 537.352 1332.98 537.352C1331.09 537.352 1329.61 536.812 1328.52 535.734C1327.44 534.656 1326.9 533.121 1326.9 531.129C1326.9 529.043 1327.62 527.508 1329.08 526.523C1330.54 525.527 1332.75 524.977 1335.69 524.871L1339.1 524.766V523.904C1339.1 521.912 1338.08 520.916 1336.04 520.916C1334.47 520.916 1332.62 521.391 1330.5 522.34L1328.73 518.719C1330.99 517.535 1333.5 516.943 1336.25 516.943C1338.89 516.943 1340.91 517.518 1342.31 518.666C1343.72 519.814 1344.42 521.561 1344.42 523.904V537H1340.68ZM1339.1 527.895L1337.02 527.965C1335.46 528.012 1334.3 528.293 1333.54 528.809C1332.78 529.324 1332.4 530.109 1332.4 531.164C1332.4 532.676 1333.27 533.432 1335 533.432C1336.24 533.432 1337.23 533.074 1337.97 532.359C1338.72 531.645 1339.1 530.695 1339.1 529.512V527.895ZM1368.1 537H1362.74V525.521C1362.74 524.104 1362.49 523.043 1361.98 522.34C1361.48 521.625 1360.68 521.268 1359.58 521.268C1358.08 521.268 1356.99 521.771 1356.32 522.779C1355.66 523.775 1355.32 525.434 1355.32 527.754V537H1349.96V517.348H1354.06L1354.78 519.861H1355.08C1355.67 518.912 1356.49 518.197 1357.54 517.717C1358.59 517.225 1359.79 516.979 1361.12 516.979C1363.41 516.979 1365.14 517.6 1366.33 518.842C1367.51 520.072 1368.1 521.854 1368.1 524.186V537ZM1375.66 528.475V527.174C1375.66 526.049 1375.9 525.07 1376.38 524.238C1376.86 523.406 1377.74 522.521 1379.02 521.584C1380.25 520.705 1381.06 519.99 1381.44 519.439C1381.84 518.889 1382.04 518.273 1382.04 517.594C1382.04 516.832 1381.76 516.252 1381.2 515.854C1380.63 515.455 1379.85 515.256 1378.84 515.256C1377.08 515.256 1375.08 515.83 1372.83 516.979L1370.91 513.129C1373.53 511.664 1376.3 510.932 1379.23 510.932C1381.64 510.932 1383.56 511.512 1384.98 512.672C1386.41 513.832 1387.12 515.379 1387.12 517.312C1387.12 518.602 1386.83 519.715 1386.24 520.652C1385.66 521.59 1384.54 522.645 1382.9 523.816C1381.78 524.648 1381.06 525.281 1380.76 525.715C1380.46 526.148 1380.32 526.717 1380.32 527.42V528.475H1375.66ZM1375.1 534.486C1375.1 533.502 1375.36 532.758 1375.89 532.254C1376.42 531.75 1377.18 531.498 1378.19 531.498C1379.16 531.498 1379.91 531.756 1380.44 532.271C1380.98 532.787 1381.25 533.525 1381.25 534.486C1381.25 535.412 1380.98 536.145 1380.44 536.684C1379.9 537.211 1379.15 537.475 1378.19 537.475C1377.21 537.475 1376.45 537.217 1375.91 536.701C1375.37 536.174 1375.1 535.436 1375.1 534.486Z" fill="white"/>
<circle cx="1080" cy="707" r="52" fill="#FE5444"/>
<path d="M1063.38 680.906L1060.96 681.211V694.992H1064.05C1065.71 694.992 1066.94 694.914 1067.72 694.758L1068.45 691.488H1069.21L1069 696H1056.68V695.379L1058.7 695.062V681.211L1056.68 680.906V680.285H1063.38V680.906ZM1073.71 690.457V690.668C1073.71 691.746 1073.82 692.586 1074.06 693.188C1074.3 693.781 1074.67 694.234 1075.16 694.547C1075.66 694.859 1076.31 695.016 1077.12 695.016C1077.54 695.016 1078.04 694.98 1078.62 694.91C1079.2 694.84 1079.67 694.762 1080.05 694.676V695.332C1079.67 695.574 1079.16 695.785 1078.51 695.965C1077.87 696.145 1077.21 696.234 1076.54 696.234C1074.83 696.234 1073.58 695.773 1072.78 694.852C1071.99 693.93 1071.6 692.449 1071.6 690.41C1071.6 688.488 1072 687.055 1072.8 686.109C1073.61 685.164 1074.76 684.691 1076.25 684.691C1079.07 684.691 1080.48 686.293 1080.48 689.496V690.457H1073.71ZM1076.25 685.629C1075.44 685.629 1074.81 685.957 1074.38 686.613C1073.95 687.27 1073.73 688.238 1073.73 689.52H1078.44C1078.44 688.121 1078.26 687.125 1077.9 686.531C1077.54 685.93 1076.99 685.629 1076.25 685.629ZM1085.24 696.234C1084.49 696.234 1083.93 696.012 1083.55 695.566C1083.18 695.121 1083 694.496 1083 693.691V685.969H1081.56V685.441L1083.02 684.984L1084.21 682.488H1084.95V684.984H1087.46V685.969H1084.95V693.48C1084.95 693.988 1085.06 694.371 1085.29 694.629C1085.52 694.887 1085.82 695.016 1086.2 695.016C1086.65 695.016 1087.2 694.953 1087.85 694.828V695.59C1087.58 695.777 1087.18 695.93 1086.67 696.047C1086.15 696.172 1085.68 696.234 1085.24 696.234ZM1093.69 681.938C1093.69 683.008 1093.38 683.906 1092.75 684.633C1092.13 685.352 1091.25 685.875 1090.11 686.203V685.301C1091.49 684.863 1092.18 684.207 1092.18 683.332C1092.18 683.176 1092.12 683.035 1092 682.91C1091.88 682.785 1091.68 682.648 1091.39 682.5C1090.86 682.227 1090.59 681.84 1090.59 681.34C1090.59 680.918 1090.73 680.598 1090.99 680.379C1091.26 680.152 1091.6 680.039 1092.01 680.039C1092.49 680.039 1092.89 680.211 1093.21 680.555C1093.53 680.891 1093.69 681.352 1093.69 681.938ZM1103.13 692.906C1103.13 694 1102.79 694.828 1102.09 695.391C1101.4 695.953 1100.38 696.234 1099.03 696.234C1098.48 696.234 1097.88 696.176 1097.21 696.059C1096.56 695.949 1096.04 695.824 1095.67 695.684V692.977H1096.2L1096.77 694.512C1097.36 695.043 1098.12 695.309 1099.05 695.309C1100.57 695.309 1101.33 694.66 1101.33 693.363C1101.33 692.41 1100.73 691.73 1099.54 691.324L1098.49 690.984C1097.7 690.727 1097.13 690.465 1096.77 690.199C1096.41 689.934 1096.13 689.609 1095.94 689.227C1095.74 688.836 1095.64 688.367 1095.64 687.82C1095.64 686.852 1095.97 686.09 1096.63 685.535C1097.29 684.973 1098.19 684.691 1099.31 684.691C1100.12 684.691 1101.12 684.812 1102.34 685.055V687.457H1101.79L1101.29 686.18C1100.88 685.812 1100.23 685.629 1099.34 685.629C1098.7 685.629 1098.22 685.785 1097.88 686.098C1097.55 686.41 1097.39 686.832 1097.39 687.363C1097.39 687.809 1097.54 688.184 1097.84 688.488C1098.14 688.793 1098.6 689.047 1099.21 689.25C1100.36 689.641 1101.11 689.926 1101.46 690.105C1101.81 690.285 1102.11 690.508 1102.35 690.773C1102.6 691.031 1102.79 691.328 1102.92 691.664C1103.06 692 1103.13 692.414 1103.13 692.906ZM1053.68 718.691L1058.19 713.828L1057.04 713.512V712.984H1060.93V713.512L1059.56 713.781L1056.42 716.992L1060.45 723.203L1061.65 723.473V724H1057.14V723.473L1058.14 723.18L1055.12 718.434L1053.68 720.016V723.18L1054.85 723.473V724H1050.34V723.473L1051.73 723.18V708.156L1050.11 707.875V707.348H1053.68V718.691ZM1066.09 709.387C1066.09 709.73 1065.96 710.027 1065.71 710.277C1065.46 710.527 1065.16 710.652 1064.81 710.652C1064.47 710.652 1064.17 710.527 1063.92 710.277C1063.67 710.027 1063.55 709.73 1063.55 709.387C1063.55 709.035 1063.67 708.734 1063.92 708.484C1064.17 708.234 1064.47 708.109 1064.81 708.109C1065.16 708.109 1065.46 708.234 1065.71 708.484C1065.96 708.734 1066.09 709.035 1066.09 709.387ZM1065.97 723.18L1067.86 723.473V724H1062.15V723.473L1064.03 723.18V713.805L1062.47 713.512V712.984H1065.97V723.18ZM1078.24 723.332C1077.86 723.613 1077.33 723.836 1076.66 724C1075.99 724.156 1075.3 724.234 1074.6 724.234C1071.03 724.234 1069.24 722.293 1069.24 718.41C1069.24 716.574 1069.7 715.164 1070.6 714.18C1071.52 713.188 1072.82 712.691 1074.52 712.691C1075.57 712.691 1076.72 712.812 1077.97 713.055V716.125H1077.33L1076.82 714.18C1076.18 713.812 1075.4 713.629 1074.49 713.629C1072.4 713.629 1071.35 715.223 1071.35 718.41C1071.35 720.066 1071.67 721.25 1072.3 721.961C1072.94 722.664 1073.93 723.016 1075.27 723.016C1076.41 723.016 1077.4 722.887 1078.24 722.629V723.332ZM1083.02 718.691L1087.54 713.828L1086.39 713.512V712.984H1090.28V713.512L1088.91 713.781L1085.77 716.992L1089.8 723.203L1090.99 723.473V724H1086.48V723.473L1087.49 723.18L1084.46 718.434L1083.02 720.016V723.18L1084.2 723.473V724H1079.68V723.473L1081.08 723.18V708.156L1079.45 707.875V707.348H1083.02V718.691ZM1101.43 709.387C1101.43 709.73 1101.31 710.027 1101.06 710.277C1100.81 710.527 1100.51 710.652 1100.16 710.652C1099.81 710.652 1099.52 710.527 1099.27 710.277C1099.02 710.027 1098.89 709.73 1098.89 709.387C1098.89 709.035 1099.02 708.734 1099.27 708.484C1099.52 708.234 1099.81 708.109 1100.16 708.109C1100.51 708.109 1100.81 708.234 1101.06 708.484C1101.31 708.734 1101.43 709.035 1101.43 709.387ZM1101.32 723.18L1103.2 723.473V724H1097.5V723.473L1099.37 723.18V713.805L1097.81 713.512V712.984H1101.32V723.18ZM1107.59 724.234C1106.84 724.234 1106.27 724.012 1105.9 723.566C1105.53 723.121 1105.35 722.496 1105.35 721.691V713.969H1103.91V713.441L1105.37 712.984L1106.55 710.488H1107.29V712.984H1109.81V713.969H1107.29V721.48C1107.29 721.988 1107.41 722.371 1107.63 722.629C1107.87 722.887 1108.17 723.016 1108.55 723.016C1109 723.016 1109.55 722.953 1110.2 722.828V723.59C1109.93 723.777 1109.53 723.93 1109.02 724.047C1108.5 724.172 1108.02 724.234 1107.59 724.234Z" fill="black"/>
</svg>
